BesleyCondensed-Fatface.ufo
<glyph name="percent" format="2">
  <advance width="1960"/>
  <unicode hex="0025"/>
  <outline>
    <contour>
      <point x="70.0" y="1080.0" type="curve" smooth="yes"/>
      <point x="70.0" y="1366.0"/>
      <point x="174.0" y="1530.0"/>
      <point x="470.0" y="1530.0" type="curve" smooth="yes"/>
      <point x="766.0" y="1530.0"/>
      <point x="870.0" y="1366.0"/>
      <point x="870.0" y="1080.0" type="curve" smooth="yes"/>
      <point x="870.0" y="794.0"/>
      <point x="726.0" y="630.0"/>
      <point x="470.0" y="630.0" type="curve" smooth="yes"/>
      <point x="174.0" y="630.0"/>
      <point x="70.0" y="794.0"/>
    </contour>
    <contour>
      <point x="440.0" y="1080.0" type="curve" smooth="yes"/>
      <point x="440.0" y="836.0"/>
      <point x="442.0" y="810.0"/>
      <point x="470.0" y="810.0" type="curve" smooth="yes"/>
      <point x="498.0" y="810.0"/>
      <point x="500.0" y="836.0"/>
      <point x="500.0" y="1080.0" type="curve" smooth="yes"/>
      <point x="500.0" y="1324.0"/>
      <point x="498.0" y="1350.0"/>
      <point x="470.0" y="1350.0" type="curve" smooth="yes"/>
      <point x="442.0" y="1350.0"/>
      <point x="440.0" y="1324.0"/>
    </contour>
    <contour>
      <point x="1331.0" y="1500.0" type="curve" smooth="yes"/>
      <point x="1403.0" y="1500.0" type="line" smooth="yes"/>
      <point x="1467.0" y="1500.0"/>
      <point x="1477.80273438" y="1490.27246094"/>
      <point x="1456.0" y="1450.0" type="curve" smooth="yes"/>
      <point x="684.0" y="24.0" type="line" smooth="yes"/>
      <point x="670.098632812" y="-1.677734375"/>
      <point x="639.0" y="0.0"/>
      <point x="597.0" y="0.0" type="curve" smooth="yes"/>
      <point x="547.0" y="0.0" type="line" smooth="yes"/>
      <point x="467.0" y="0.0"/>
      <point x="458.059459603" y="17.7852236068"/>
      <point x="480.0" y="58.0" type="curve" smooth="yes"/>
      <point x="1246.0" y="1462.0" type="line" smooth="yes"/>
      <point x="1261.06023991" y="1489.6038862"/>
      <point x="1284.0" y="1500.0"/>
    </contour>
    <contour>
      <point x="1090.0" y="420.0" type="curve" smooth="yes"/>
      <point x="1090.0" y="706.0"/>
      <point x="1194.0" y="870.0"/>
      <point x="1490.0" y="870.0" type="curve" smooth="yes"/>
      <point x="1786.0" y="870.0"/>
      <point x="1890.0" y="706.0"/>
      <point x="1890.0" y="420.0" type="curve" smooth="yes"/>
      <point x="1890.0" y="134.0"/>
      <point x="1746.0" y="-30.0"/>
      <point x="1490.0" y="-30.0" type="curve" smooth="yes"/>
      <point x="1194.0" y="-30.0"/>
      <point x="1090.0" y="134.0"/>
    </contour>
    <contour>
      <point x="1460.0" y="420.0" type="curve" smooth="yes"/>
      <point x="1460.0" y="176.0"/>
      <point x="1462.0" y="150.0"/>
      <point x="1490.0" y="150.0" type="curve" smooth="yes"/>
      <point x="1518.0" y="150.0"/>
      <point x="1520.0" y="176.0"/>
      <point x="1520.0" y="420.0" type="curve" smooth="yes"/>
      <point x="1520.0" y="664.0"/>
      <point x="1518.0" y="690.0"/>
      <point x="1490.0" y="690.0" type="curve" smooth="yes"/>
      <point x="1462.0" y="690.0"/>
      <point x="1460.0" y="664.0"/>
    </contour>
  </outline>
</glyph>
<glyph name="ampersand" format="2">
  <advance width="1840"/>
  <unicode hex="0026"/>
  <outline>
    <contour>
      <point x="1219.0" y="920.0" type="curve" smooth="yes"/>
      <point x="1676.0" y="920.0" type="line" smooth="yes"/>
      <point x="1704.0" y="920.0"/>
      <point x="1710.0" y="915.0"/>
      <point x="1710.0" y="885.0" type="curve" smooth="yes"/>
      <point x="1710.0" y="722.0" type="line" smooth="yes"/>
      <point x="1710.0" y="694.0"/>
      <point x="1703.0" y="690.0"/>
      <point x="1674.0" y="690.0" type="curve" smooth="yes"/>
      <point x="1576.0" y="690.0" type="line" smooth="yes"/>
      <point x="1542.0" y="690.0"/>
      <point x="1535.0" y="682.0"/>
      <point x="1526.0" y="658.0" type="curve" smooth="yes"/>
      <point x="1490.0" y="562.0"/>
      <point x="1439.0" y="468.0"/>
      <point x="1373.0" y="381.0" type="curve" smooth="yes"/>
      <point x="1346.0" y="345.0"/>
      <point x="1339.0" y="344.0"/>
      <point x="1367.0" y="306.0" type="curve" smooth="yes"/>
      <point x="1402.0" y="259.0" type="line" smooth="yes"/>
      <point x="1422.0" y="232.0"/>
      <point x="1431.0" y="230.0"/>
      <point x="1480.0" y="230.0" type="curve" smooth="yes"/>
      <point x="1681.0" y="230.0" type="line" smooth="yes"/>
      <point x="1717.0" y="230.0"/>
      <point x="1720.0" y="222.0"/>
      <point x="1720.0" y="185.0" type="curve" smooth="yes"/>
      <point x="1720.0" y="50.0" type="line" smooth="yes"/>
      <point x="1720.0" y="6.0"/>
      <point x="1715.0" y="0.0"/>
      <point x="1672.0" y="0.0" type="curve" smooth="yes"/>
      <point x="1150.0" y="0.0" type="line" smooth="yes"/>
      <point x="1095.0" y="0.0"/>
      <point x="1086.0" y="12.0"/>
      <point x="1062.0" y="42.0" type="curve" smooth="yes"/>
      <point x="1054.0" y="52.0" type="line" smooth="yes"/>
      <point x="1038.0" y="72.0"/>
      <point x="1028.0" y="79.0"/>
      <point x="994.0" y="62.0" type="curve" smooth="yes"/>
      <point x="866.0" y="-2.0"/>
      <point x="720.0" y="-40.0"/>
      <point x="560.0" y="-40.0" type="curve" smooth="yes"/>
      <point x="214.0" y="-40.0"/>
      <point x="2.0" y="114.0"/>
      <point x="2.0" y="400.0" type="curve" smooth="yes"/>
      <point x="2.0" y="674.0"/>
      <point x="207.0" y="781.0"/>
      <point x="424.0" y="861.0" type="curve" smooth="yes"/>
      <point x="475.0" y="880.0"/>
      <point x="457.0" y="887.0"/>
      <point x="430.0" y="924.0" type="curve" smooth="yes"/>
      <point x="390.0" y="980.0" type="line"/>
      <point x="340.0" y="1058.0"/>
      <point x="298.0" y="1136.0"/>
      <point x="298.0" y="1206.0" type="curve" smooth="yes"/>
      <point x="298.0" y="1426.0"/>
      <point x="528.0" y="1540.0"/>
      <point x="840.0" y="1540.0" type="curve" smooth="yes"/>
      <point x="1134.0" y="1540.0"/>
      <point x="1332.0" y="1430.0"/>
      <point x="1332.0" y="1250.0" type="curve" smooth="yes"/>
      <point x="1332.0" y="1048.0"/>
      <point x="1178.0" y="947.0"/>
      <point x="999.0" y="866.0" type="curve" smooth="yes"/>
      <point x="962.0" y="849.0"/>
      <point x="968.0" y="849.0"/>
      <point x="990.0" y="819.0" type="curve" smooth="yes"/>
      <point x="1180.0" y="560.0" type="line" smooth="yes"/>
      <point x="1211.0" y="517.0"/>
      <point x="1213.0" y="520.0"/>
      <point x="1241.0" y="566.0" type="curve" smooth="yes"/>
      <point x="1260.0" y="596.0"/>
      <point x="1276.0" y="627.0"/>
      <point x="1290.0" y="659.0" type="curve" smooth="yes"/>
      <point x="1302.0" y="686.0"/>
      <point x="1289.0" y="690.0"/>
      <point x="1269.0" y="690.0" type="curve" smooth="yes"/>
      <point x="1212.0" y="690.0" type="line" smooth="yes"/>
      <point x="1178.0" y="690.0"/>
      <point x="1170.0" y="695.0"/>
      <point x="1170.0" y="732.0" type="curve" smooth="yes"/>
      <point x="1170.0" y="862.0" type="line" smooth="yes"/>
      <point x="1170.0" y="905.0"/>
      <point x="1177.0" y="920.0"/>
    </contour>
    <contour>
      <point x="544.0" y="631.0" type="curve" smooth="yes"/>
      <point x="493.0" y="581.0"/>
      <point x="462.0" y="519.0"/>
      <point x="462.0" y="440.0" type="curve" smooth="yes"/>
      <point x="462.0" y="296.0"/>
      <point x="542.0" y="216.0"/>
      <point x="670.0" y="216.0" type="curve" smooth="yes"/>
      <point x="739.0" y="216.0"/>
      <point x="805.0" y="228.0"/>
      <point x="867.0" y="250.0" type="curve" smooth="yes"/>
      <point x="913.0" y="266.0"/>
      <point x="894.0" y="275.0"/>
      <point x="871.0" y="308.0" type="curve" smooth="yes"/>
      <point x="634.0" y="640.0" type="line" smooth="yes"/>
      <point x="598.0" y="690.0"/>
      <point x="585.0" y="672.0"/>
    </contour>
    <contour>
      <point x="924.0" y="1230.0" type="curve" smooth="yes"/>
      <point x="924.0" y="1284.0"/>
      <point x="908.0" y="1360.0"/>
      <point x="828.0" y="1360.0" type="curve" smooth="yes"/>
      <point x="774.0" y="1360.0"/>
      <point x="734.0" y="1316.0"/>
      <point x="734.0" y="1250.0" type="curve" smooth="yes"/>
      <point x="734.0" y="1170.0"/>
      <point x="781.0" y="1103.0"/>
      <point x="820.0" y="1050.0" type="curve" smooth="yes"/>
      <point x="831.0" y="1036.0"/>
      <point x="833.0" y="1042.0"/>
      <point x="845.0" y="1053.0" type="curve" smooth="yes"/>
      <point x="894.0" y="1098.0"/>
      <point x="924.0" y="1155.0"/>
    </contour>
  </outline>
</glyph>
<glyph name="quotesingle" format="2">
  <advance width="500"/>
  <unicode hex="0027"/>
  <outline>
    <contour>
      <point x="468.0" y="1308.0" type="curve" smooth="yes"/>
      <point x="447.0" y="1184.0"/>
      <point x="338.0" y="1107.0"/>
      <point x="327.0" y="945.0" type="curve" smooth="yes"/>
      <point x="325.0" y="918.0"/>
      <point x="325.0" y="916.0"/>
      <point x="297.0" y="916.0" type="curve" smooth="yes"/>
      <point x="199.0" y="916.0" type="line" smooth="yes"/>
      <point x="172.0" y="916.0"/>
      <point x="170.0" y="932.0"/>
      <point x="168.0" y="954.0" type="curve" smooth="yes"/>
      <point x="153.0" y="1108.0"/>
      <point x="52.0" y="1188.0"/>
      <point x="32.0" y="1308.0" type="curve" smooth="yes"/>
      <point x="30.0" y="1322.0"/>
      <point x="30.0" y="1332.0"/>
      <point x="30.0" y="1344.0" type="curve" smooth="yes"/>
      <point x="30.0" y="1452.0"/>
      <point x="122.0" y="1536.0"/>
      <point x="250.0" y="1536.0" type="curve" smooth="yes"/>
      <point x="378.0" y="1536.0"/>
      <point x="470.0" y="1452.0"/>
      <point x="470.0" y="1344.0" type="curve" smooth="yes"/>
      <point x="470.0" y="1332.0"/>
      <point x="470.0" y="1322.0"/>
    </contour>
  </outline>
</glyph>
<glyph name="parenleft" format="2">
  <advance width="1010"/>
  <unicode hex="0028"/>
  <outline>
    <contour>
      <point x="994.0" y="-217.0" type="curve" smooth="yes"/>
      <point x="949.0" y="-302.0" type="line" smooth="yes"/>
      <point x="934.0" y="-333.0"/>
      <point x="923.0" y="-339.0"/>
      <point x="886.0" y="-329.0" type="curve" smooth="yes"/>
      <point x="460.0" y="-216.0"/>
      <point x="110.0" y="141.0"/>
      <point x="110.0" y="650.0" type="curve" smooth="yes"/>
      <point x="110.0" y="1161.0"/>
      <point x="463.0" y="1481.0"/>
      <point x="892.0" y="1591.0" type="curve" smooth="yes"/>
      <point x="922.0" y="1599.0"/>
      <point x="933.0" y="1598.0"/>
      <point x="946.0" y="1572.0" type="curve" smooth="yes"/>
      <point x="990.0" y="1474.0" type="line" smooth="yes"/>
      <point x="1005.0" y="1444.0"/>
      <point x="1010.0" y="1441.0"/>
      <point x="978.0" y="1428.0" type="curve" smooth="yes"/>
      <point x="712.0" y="1322.0"/>
      <point x="580.0" y="1096.0"/>
      <point x="580.0" y="650.0" type="curve" smooth="yes"/>
      <point x="580.0" y="204.0"/>
      <point x="711.0" y="-60.0"/>
      <point x="978.0" y="-168.0" type="curve" smooth="yes"/>
      <point x="1011.0" y="-181.0"/>
      <point x="1009.0" y="-186.0"/>
    </contour>
  </outline>
</glyph>
<glyph name="asterisk" format="2">
  <advance width="1270"/>
  <unicode hex="002A"/>
  <outline>
    <contour>
      <point x="106.0" y="725.0" type="curve" smooth="yes"/>
      <point x="47.0" y="827.0"/>
      <point x="52.0" y="925.0"/>
      <point x="146.0" y="979.0" type="curve" smooth="yes"/>
      <point x="253.0" y="1041.0"/>
      <point x="341.0" y="957.0"/>
      <point x="514.0" y="1016.0" type="curve" smooth="yes"/>
      <point x="551.0" y="1028.0"/>
      <point x="548.0" y="1031.0"/>
      <point x="512.0" y="1043.0" type="curve" smooth="yes"/>
      <point x="340.0" y="1101.0"/>
      <point x="253.0" y="1019.0"/>
      <point x="146.0" y="1081.0" type="curve" smooth="yes"/>
      <point x="52.0" y="1135.0"/>
      <point x="47.0" y="1233.0"/>
      <point x="106.0" y="1335.0" type="curve" smooth="yes"/>
      <point x="165.0" y="1437.0"/>
      <point x="252.0" y="1481.0"/>
      <point x="346.0" y="1427.0" type="curve" smooth="yes"/>
      <point x="452.0" y="1366.0"/>
      <point x="425.0" y="1249.0"/>
      <point x="559.0" y="1130.0" type="curve" smooth="yes"/>
      <point x="581.0" y="1110.0"/>
      <point x="594.0" y="1093.0"/>
      <point x="585.0" y="1140.0" type="curve" smooth="yes"/>
      <point x="550.0" y="1321.0"/>
      <point x="434.0" y="1354.0"/>
      <point x="434.0" y="1478.0" type="curve" smooth="yes"/>
      <point x="434.0" y="1586.0"/>
      <point x="516.0" y="1640.0"/>
      <point x="634.0" y="1640.0" type="curve" smooth="yes"/>
      <point x="752.0" y="1640.0"/>
      <point x="834.0" y="1586.0"/>
      <point x="834.0" y="1478.0" type="curve" smooth="yes"/>
      <point x="834.0" y="1353.0"/>
      <point x="717.0" y="1320.0"/>
      <point x="682.0" y="1137.0" type="curve" smooth="yes"/>
      <point x="675.0" y="1098.0"/>
      <point x="683.0" y="1108.0"/>
      <point x="704.0" y="1126.0" type="curve" smooth="yes"/>
      <point x="843.0" y="1247.0"/>
      <point x="814.0" y="1365.0"/>
      <point x="922.0" y="1427.0" type="curve" smooth="yes"/>
      <point x="1016.0" y="1481.0"/>
      <point x="1103.0" y="1437.0"/>
      <point x="1162.0" y="1335.0" type="curve" smooth="yes"/>
      <point x="1221.0" y="1233.0"/>
      <point x="1216.0" y="1135.0"/>
      <point x="1122.0" y="1081.0" type="curve" smooth="yes"/>
      <point x="1015.0" y="1019.0"/>
      <point x="927.0" y="1103.0"/>
      <point x="752.0" y="1042.0" type="curve" smooth="yes"/>
      <point x="723.0" y="1032.0"/>
      <point x="715.0" y="1031.0"/>
      <point x="748.0" y="1019.0" type="curve" smooth="yes"/>
      <point x="925.0" y="956.0"/>
      <point x="1013.0" y="1042.0"/>
      <point x="1122.0" y="979.0" type="curve" smooth="yes"/>
      <point x="1216.0" y="925.0"/>
      <point x="1221.0" y="827.0"/>
      <point x="1162.0" y="725.0" type="curve" smooth="yes"/>
      <point x="1103.0" y="623.0"/>
      <point x="1016.0" y="579.0"/>
      <point x="922.0" y="633.0" type="curve" smooth="yes"/>
      <point x="814.0" y="695.0"/>
      <point x="843.0" y="813.0"/>
      <point x="703.0" y="934.0" type="curve" smooth="yes"/>
      <point x="686.0" y="949.0"/>
      <point x="675.0" y="965.0"/>
      <point x="682.0" y="928.0" type="curve" smooth="yes"/>
      <point x="715.0" y="740.0"/>
      <point x="834.0" y="708.0"/>
      <point x="834.0" y="582.0" type="curve" smooth="yes"/>
      <point x="834.0" y="474.0"/>
      <point x="752.0" y="420.0"/>
      <point x="634.0" y="420.0" type="curve" smooth="yes"/>
      <point x="516.0" y="420.0"/>
      <point x="434.0" y="474.0"/>
      <point x="434.0" y="582.0" type="curve" smooth="yes"/>
      <point x="434.0" y="708.0"/>
      <point x="553.0" y="741.0"/>
      <point x="586.0" y="928.0" type="curve" smooth="yes"/>
      <point x="593.0" y="965.0"/>
      <point x="581.0" y="948.0"/>
      <point x="564.0" y="933.0" type="curve" smooth="yes"/>
      <point x="424.0" y="812.0"/>
      <point x="454.0" y="695.0"/>
      <point x="346.0" y="633.0" type="curve" smooth="yes"/>
      <point x="252.0" y="579.0"/>
      <point x="165.0" y="623.0"/>
    </contour>
  </outline>
</glyph>
<glyph name="slash" format="2">
  <advance width="1040"/>
  <unicode hex="002F"/>
  <outline>
    <contour>
      <point x="763.0" y="1560.0" type="curve" smooth="yes"/>
      <point x="881.0" y="1560.0" type="line" smooth="yes"/>
      <point x="948.0" y="1560.0"/>
      <point x="959.0" y="1557.0"/>
      <point x="942.0" y="1505.0" type="curve" smooth="yes"/>
      <point x="353.0" y="-254.0" type="line" smooth="yes"/>
      <point x="340.0" y="-294.0"/>
      <point x="332.0" y="-300.0"/>
      <point x="277.0" y="-300.0" type="curve" smooth="yes"/>
      <point x="167.0" y="-300.0" type="line" smooth="yes"/>
      <point x="96.0" y="-300.0"/>
      <point x="80.0" y="-299.0"/>
      <point x="98.0" y="-246.0" type="curve" smooth="yes"/>
      <point x="700.0" y="1524.0" type="line" smooth="yes"/>
      <point x="711.0" y="1555.0"/>
      <point x="719.0" y="1560.0"/>
    </contour>
  </outline>
</glyph>
<glyph name="zero" format="2">
  <advance width="1120"/>
  <unicode hex="0030"/>
  <outline>
    <contour>
      <point x="50.0" y="750.0" type="curve" smooth="yes"/>
      <point x="50.0" y="1316.0"/>
      <point x="214.0" y="1520.0"/>
      <point x="560.0" y="1520.0" type="curve" smooth="yes"/>
      <point x="926.0" y="1520.0"/>
      <point x="1070.0" y="1316.0"/>
      <point x="1070.0" y="750.0" type="curve" smooth="yes"/>
      <point x="1070.0" y="184.0"/>
      <point x="886.0" y="-20.0"/>
      <point x="560.0" y="-20.0" type="curve" smooth="yes"/>
      <point x="214.0" y="-20.0"/>
      <point x="50.0" y="184.0"/>
    </contour>
    <contour>
      <point x="470.0" y="750.0" type="curve" smooth="yes"/>
      <point x="470.0" y="266.0"/>
      <point x="492.0" y="190.0"/>
      <point x="560.0" y="190.0" type="curve" smooth="yes"/>
      <point x="638.0" y="190.0"/>
      <point x="650.0" y="266.0"/>
      <point x="650.0" y="750.0" type="curve" smooth="yes"/>
      <point x="650.0" y="1234.0"/>
      <point x="638.0" y="1310.0"/>
      <point x="560.0" y="1310.0" type="curve" smooth="yes"/>
      <point x="492.0" y="1310.0"/>
      <point x="470.0" y="1234.0"/>
    </contour>
  </outline>
</glyph>
<glyph name="one" format="2">
  <advance width="920"/>
  <unicode hex="0031"/>
  <outline>
    <contour>
      <point x="70.0" y="65.0" type="curve" smooth="yes"/>
      <point x="70.0" y="166.0" type="line" smooth="yes"/>
      <point x="70.0" y="208.0"/>
      <point x="80.0" y="210.0"/>
      <point x="123.0" y="210.0" type="curve" smooth="yes"/>
      <point x="215.0" y="210.0" type="line" smooth="yes"/>
      <point x="264.0" y="210.0"/>
      <point x="270.0" y="217.0"/>
      <point x="270.0" y="264.0" type="curve" smooth="yes"/>
      <point x="270.0" y="1023.0" type="line" smooth="yes"/>
      <point x="270.0" y="1063.0"/>
      <point x="261.0" y="1070.0"/>
      <point x="223.0" y="1070.0" type="curve" smooth="yes"/>
      <point x="149.0" y="1070.0" type="line" smooth="yes"/>
      <point x="116.0" y="1070.0"/>
      <point x="104.0" y="1073.0"/>
      <point x="104.0" y="1109.0" type="curve" smooth="yes"/>
      <point x="104.0" y="1229.0" type="line" smooth="yes"/>
      <point x="104.0" y="1283.0"/>
      <point x="136.04296875" y="1278.76367188"/>
      <point x="183.0" y="1281.0" type="curve" smooth="yes"/>
      <point x="267.0" y="1285.0"/>
      <point x="356.0" y="1310.0"/>
      <point x="449.0" y="1485.0" type="curve" smooth="yes"/>
      <point x="466.0" y="1517.0"/>
      <point x="471.0" y="1530.0"/>
      <point x="523.0" y="1530.0" type="curve" smooth="yes"/>
      <point x="609.0" y="1530.0" type="line" smooth="yes"/>
      <point x="652.0" y="1530.0"/>
      <point x="660.0" y="1525.0"/>
      <point x="660.0" y="1484.0" type="curve" smooth="yes"/>
      <point x="660.0" y="266.0" type="line" smooth="yes"/>
      <point x="660.0" y="212.0"/>
      <point x="670.0" y="210.0"/>
      <point x="725.0" y="210.0" type="curve" smooth="yes"/>
      <point x="797.0" y="210.0" type="line" smooth="yes"/>
      <point x="830.0" y="210.0"/>
      <point x="850.0" y="206.0"/>
      <point x="850.0" y="170.0" type="curve" smooth="yes"/>
      <point x="850.0" y="59.0" type="line" smooth="yes"/>
      <point x="850.0" y="10.0"/>
      <point x="848.0" y="0.0"/>
      <point x="799.0" y="0.0" type="curve" smooth="yes"/>
      <point x="135.0" y="0.0" type="line" smooth="yes"/>
      <point x="77.0" y="0.0"/>
      <point x="70.0" y="5.0"/>
    </contour>
  </outline>
</glyph>
<glyph name="two" format="2">
  <advance height="2310" width="1094"/>
  <unicode hex="0032"/>
  <outline>
    <contour>
      <point x="1053.95703125" y="510.0" type="curve" smooth="yes"/>
      <point x="1042.95703125" y="141.0"/>
      <point x="972.95703125" y="-20.0"/>
      <point x="724.95703125" y="-20.0" type="curve" smooth="yes"/>
      <point x="540.95703125" y="-20.0"/>
      <point x="500.95703125" y="100.0"/>
      <point x="414.95703125" y="100.0" type="curve" smooth="yes"/>
      <point x="357.95703125" y="100.0"/>
      <point x="320.95703125" y="74.0"/>
      <point x="297.95703125" y="34.0" type="curve" smooth="yes"/>
      <point x="281.95703125" y="7.0"/>
      <point x="287.95703125" y="0.0"/>
      <point x="242.95703125" y="0.0" type="curve" smooth="yes"/>
      <point x="100.95703125" y="0.0" type="line" smooth="yes"/>
      <point x="61.95703125" y="0.0"/>
      <point x="55.95703125" y="4.0"/>
      <point x="55.95703125" y="42.0" type="curve" smooth="yes"/>
      <point x="56.95703125" y="320.0"/>
      <point x="147.546875" y="625.5234375"/>
      <point x="428.95703125" y="808.0" type="curve" smooth="yes"/>
      <point x="556.95703125" y="891.0"/>
      <point x="588.95703125" y="972.0"/>
      <point x="588.95703125" y="1150.0" type="curve" smooth="yes"/>
      <point x="588.95703125" y="1288.0"/>
      <point x="566.95703125" y="1336.0"/>
      <point x="498.95703125" y="1336.0" type="curve" smooth="yes"/>
      <point x="450.95703125" y="1336.0"/>
      <point x="406.95703125" y="1302.0"/>
      <point x="406.95703125" y="1274.0" type="curve" smooth="yes"/>
      <point x="406.95703125" y="1238.0"/>
      <point x="538.95703125" y="1228.0"/>
      <point x="538.95703125" y="1056.0" type="curve" smooth="yes"/>
      <point x="538.95703125" y="922.0"/>
      <point x="433.95703125" y="850.0"/>
      <point x="319.95703125" y="850.0" type="curve" smooth="yes"/>
      <point x="201.95703125" y="850.0"/>
      <point x="86.95703125" y="946.0"/>
      <point x="86.95703125" y="1102.0" type="curve" smooth="yes"/>
      <point x="86.95703125" y="1376.0"/>
      <point x="264.95703125" y="1520.0"/>
      <point x="558.95703125" y="1520.0" type="curve" smooth="yes"/>
      <point x="830.95703125" y="1520.0"/>
      <point x="1010.95703125" y="1360.0"/>
      <point x="1010.95703125" y="1140.0" type="curve" smooth="yes"/>
      <point x="1010.95703125" y="900.0"/>
      <point x="761.549804688" y="767.614257812"/>
      <point x="598.95703125" y="670.0" type="curve" smooth="yes"/>
      <point x="433.4296875" y="570.624023438"/>
      <point x="386.95703125" y="516.0"/>
      <point x="353.95703125" y="441.0" type="curve" smooth="yes"/>
      <point x="325.080078125" y="375.37109375"/>
      <point x="289.95703125" y="301.0"/>
      <point x="311.95703125" y="301.0" type="curve" smooth="yes"/>
      <point x="334.95703125" y="301.0"/>
      <point x="323.95703125" y="356.0"/>
      <point x="385.95703125" y="414.0" type="curve" smooth="yes"/>
      <point x="432.95703125" y="458.0"/>
      <point x="478.95703125" y="469.0"/>
      <point x="514.95703125" y="469.0" type="curve" smooth="yes"/>
      <point x="624.95703125" y="469.0"/>
      <point x="654.95703125" y="381.0"/>
      <point x="746.95703125" y="381.0" type="curve" smooth="yes"/>
      <point x="823.95703125" y="381.0"/>
      <point x="844.95703125" y="431.0"/>
      <point x="857.95703125" y="510.0" type="curve" smooth="yes"/>
      <point x="863.95703125" y="552.0"/>
      <point x="858.95703125" y="554.0"/>
      <point x="906.95703125" y="554.0" type="curve" smooth="yes"/>
      <point x="1012.95703125" y="554.0" type="line" smooth="yes"/>
      <point x="1056.95703125" y="554.0"/>
      <point x="1053.95703125" y="552.0"/>
    </contour>
  </outline>
</glyph>
<glyph name="three" format="2">
  <advance width="960"/>
  <unicode hex="0033"/>
  <outline>
    <contour>
      <point x="50.0" y="348.0" type="curve" smooth="yes"/>
      <point x="50.0" y="484.0"/>
      <point x="140.0" y="590.0"/>
      <point x="288.0" y="590.0" type="curve" smooth="yes"/>
      <point x="422.0" y="590.0"/>
      <point x="492.0" y="518.0"/>
      <point x="492.0" y="424.0" type="curve" smooth="yes"/>
      <point x="492.0" y="272.0"/>
      <point x="357.0" y="262.0"/>
      <point x="357.0" y="216.0" type="curve" smooth="yes"/>
      <point x="357.0" y="182.0"/>
      <point x="394.0" y="164.0"/>
      <point x="422.0" y="164.0" type="curve" smooth="yes"/>
      <point x="500.0" y="164.0"/>
      <point x="528.0" y="212.0"/>
      <point x="528.0" y="420.0" type="curve" smooth="yes"/>
      <point x="528.0" y="556.0"/>
      <point x="479.0" y="655.0"/>
      <point x="406.0" y="670.0" type="curve" smooth="yes"/>
      <point x="368.662109375" y="677.671875"/>
      <point x="354.0" y="663.0"/>
      <point x="354.0" y="707.0" type="curve" smooth="yes"/>
      <point x="354.0" y="838.0" type="line" smooth="yes"/>
      <point x="354.0" y="877.0"/>
      <point x="363.33203125" y="866.388671875"/>
      <point x="397.0" y="872.0" type="curve" smooth="yes"/>
      <point x="481.0" y="886.0"/>
      <point x="508.0" y="995.0"/>
      <point x="508.0" y="1142.0" type="curve" smooth="yes"/>
      <point x="508.0" y="1290.0"/>
      <point x="470.0" y="1346.0"/>
      <point x="402.0" y="1346.0" type="curve" smooth="yes"/>
      <point x="374.0" y="1346.0"/>
      <point x="338.0" y="1330.0"/>
      <point x="338.0" y="1296.0" type="curve" smooth="yes"/>
      <point x="338.0" y="1250.0"/>
      <point x="472.0" y="1260.0"/>
      <point x="472.0" y="1118.0" type="curve" smooth="yes"/>
      <point x="472.0" y="1034.0"/>
      <point x="392.0" y="952.0"/>
      <point x="268.0" y="952.0" type="curve" smooth="yes"/>
      <point x="150.0" y="952.0"/>
      <point x="30.0" y="1028.0"/>
      <point x="30.0" y="1174.0" type="curve" smooth="yes"/>
      <point x="30.0" y="1368.0"/>
      <point x="188.0" y="1520.0"/>
      <point x="492.0" y="1520.0" type="curve" smooth="yes"/>
      <point x="764.0" y="1520.0"/>
      <point x="910.0" y="1372.0"/>
      <point x="910.0" y="1142.0" type="curve" smooth="yes"/>
      <point x="910.0" y="998.0"/>
      <point x="835.0" y="888.0"/>
      <point x="734.0" y="818.0" type="curve" smooth="yes"/>
      <point x="696.049804688" y="791.698242188"/>
      <point x="660.0" y="789.0"/>
      <point x="660.0" y="775.0" type="curve" smooth="yes"/>
      <point x="660.0" y="758.0"/>
      <point x="683.934570312" y="758.729492188"/>
      <point x="734.0" y="732.0" type="curve" smooth="yes"/>
      <point x="852.0" y="669.0"/>
      <point x="930.0" y="561.0"/>
      <point x="930.0" y="400.0" type="curve" smooth="yes"/>
      <point x="930.0" y="100.0"/>
      <point x="734.0" y="-20.0"/>
      <point x="432.0" y="-20.0" type="curve" smooth="yes"/>
      <point x="148.0" y="-20.0"/>
      <point x="50.0" y="154.0"/>
    </contour>
  </outline>
</glyph>
<glyph name="four" format="2">
  <advance width="984"/>
  <unicode hex="0034"/>
  <outline>
    <contour>
      <point x="936.0" y="164.0" type="curve" smooth="yes"/>
      <point x="936.0" y="36.0" type="line" smooth="yes"/>
      <point x="936.0" y="3.0"/>
      <point x="928.0" y="0.0"/>
      <point x="894.0" y="0.0" type="curve" smooth="yes"/>
      <point x="362.0" y="0.0" type="line" smooth="yes"/>
      <point x="315.0" y="0.0"/>
      <point x="306.0" y="1.0"/>
      <point x="306.0" y="48.0" type="curve" smooth="yes"/>
      <point x="306.0" y="165.0" type="line" smooth="yes"/>
      <point x="306.0" y="201.0"/>
      <point x="313.0" y="210.0"/>
      <point x="350.0" y="210.0" type="curve" smooth="yes"/>
      <point x="399.0" y="210.0" type="line" smooth="yes"/>
      <point x="443.0" y="210.0"/>
      <point x="446.0" y="217.0"/>
      <point x="446.0" y="262.0" type="curve" smooth="yes"/>
      <point x="446.0" y="356.0" type="line" smooth="yes"/>
      <point x="446.0" y="410.0"/>
      <point x="446.0" y="410.0"/>
      <point x="392.0" y="410.0" type="curve" smooth="yes"/>
      <point x="94.0" y="410.0" type="line" smooth="yes"/>
      <point x="51.0" y="410.0"/>
      <point x="51.0" y="418.0"/>
      <point x="37.0" y="444.0" type="curve" smooth="yes"/>
      <point x="6.0" y="502.0" type="line" smooth="yes"/>
      <point x="-6.0" y="523.0"/>
      <point x="1.0" y="532.0"/>
      <point x="12.0" y="554.0" type="curve" smooth="yes"/>
      <point x="169.0" y="868.0"/>
      <point x="381.0" y="1048.0"/>
      <point x="484.0" y="1444.0" type="curve" smooth="yes"/>
      <point x="495.0" y="1486.0"/>
      <point x="496.0" y="1500.0"/>
      <point x="552.0" y="1500.0" type="curve" smooth="yes"/>
      <point x="822.0" y="1500.0" type="line" smooth="yes"/>
      <point x="875.0" y="1500.0"/>
      <point x="884.0" y="1495.0"/>
      <point x="876.0" y="1448.0" type="curve" smooth="yes"/>
      <point x="812.0" y="1062.0"/>
      <point x="533.0" y="911.0"/>
      <point x="337.0" y="692.0" type="curve" smooth="yes"/>
      <point x="310.0" y="662.0"/>
      <point x="285.0" y="620.0"/>
      <point x="363.0" y="620.0" type="curve" smooth="yes"/>
      <point x="408.0" y="620.0" type="line" smooth="yes"/>
      <point x="443.0" y="620.0"/>
      <point x="446.0" y="628.0"/>
      <point x="446.0" y="664.0" type="curve" smooth="yes"/>
      <point x="446.0" y="710.0" type="line" smooth="yes"/>
      <point x="446.0" y="757.0"/>
      <point x="457.0" y="754.0"/>
      <point x="488.0" y="771.0" type="curve" smooth="yes"/>
      <point x="554.0" y="806.0"/>
      <point x="643.0" y="854.0"/>
      <point x="684.0" y="940.0" type="curve" smooth="yes"/>
      <point x="693.0" y="960.0"/>
      <point x="699.0" y="970.0"/>
      <point x="730.0" y="970.0" type="curve" smooth="yes"/>
      <point x="796.0" y="970.0" type="line" smooth="yes"/>
      <point x="827.0" y="970.0"/>
      <point x="836.0" y="969.0"/>
      <point x="836.0" y="938.0" type="curve" smooth="yes"/>
      <point x="836.0" y="678.0" type="line" smooth="yes"/>
      <point x="836.0" y="645.0"/>
      <point x="845.0" y="620.0"/>
      <point x="882.0" y="620.0" type="curve" smooth="yes"/>
      <point x="930.0" y="620.0" type="line" smooth="yes"/>
      <point x="962.0" y="620.0"/>
      <point x="966.0" y="612.0"/>
      <point x="966.0" y="582.0" type="curve" smooth="yes"/>
      <point x="966.0" y="466.0" type="line" smooth="yes"/>
      <point x="966.0" y="420.0"/>
      <point x="966.0" y="410.0"/>
      <point x="920.0" y="410.0" type="curve" smooth="yes"/>
      <point x="890.0" y="410.0" type="line" smooth="yes"/>
      <point x="849.0" y="410.0"/>
      <point x="836.0" y="406.0"/>
      <point x="836.0" y="362.0" type="curve" smooth="yes"/>
      <point x="836.0" y="262.0" type="line" smooth="yes"/>
      <point x="836.0" y="217.0"/>
      <point x="841.0" y="210.0"/>
      <point x="888.0" y="210.0" type="curve" smooth="yes"/>
      <point x="892.0" y="210.0" type="line" smooth="yes"/>
      <point x="931.0" y="210.0"/>
      <point x="936.0" y="204.0"/>
    </contour>
  </outline>
</glyph>
<glyph name="five" format="2">
  <advance height="2310" width="930"/>
  <unicode hex="0035"/>
  <outline>
    <contour>
      <point x="30.0" y="318.0" type="curve" smooth="yes"/>
      <point x="30.0" y="464.0"/>
      <point x="130.0" y="550.0"/>
      <point x="258.0" y="550.0" type="curve" smooth="yes"/>
      <point x="382.0" y="550.0"/>
      <point x="462.0" y="468.0"/>
      <point x="462.0" y="364.0" type="curve" smooth="yes"/>
      <point x="462.0" y="232.0"/>
      <point x="378.0" y="242.0"/>
      <point x="378.0" y="196.0" type="curve" smooth="yes"/>
      <point x="378.0" y="162.0"/>
      <point x="404.0" y="144.0"/>
      <point x="422.0" y="144.0" type="curve" smooth="yes"/>
      <point x="470.0" y="144.0"/>
      <point x="498.0" y="302.0"/>
      <point x="498.0" y="510.0" type="curve" smooth="yes"/>
      <point x="498.0" y="728.0"/>
      <point x="480.0" y="782.0"/>
      <point x="442.0" y="782.0" type="curve" smooth="yes"/>
      <point x="413.0" y="782.0"/>
      <point x="391.0" y="763.0"/>
      <point x="305.0" y="655.0" type="curve" smooth="yes"/>
      <point x="289.0" y="634.0"/>
      <point x="278.0" y="624.0"/>
      <point x="239.0" y="624.0" type="curve" smooth="yes"/>
      <point x="175.0" y="624.0" type="line" smooth="yes"/>
      <point x="121.0" y="624.0"/>
      <point x="126.0" y="642.0"/>
      <point x="131.0" y="686.0" type="curve" smooth="yes"/>
      <point x="183.0" y="1460.0" type="line" smooth="yes"/>
      <point x="187.0" y="1498.0"/>
      <point x="197.0" y="1500.0"/>
      <point x="239.0" y="1500.0" type="curve" smooth="yes"/>
      <point x="294.0" y="1500.0" type="line" smooth="yes"/>
      <point x="495.0" y="1500.0"/>
      <point x="597.0" y="1468.0"/>
      <point x="663.0" y="1543.0" type="curve" smooth="yes"/>
      <point x="676.0" y="1558.0"/>
      <point x="686.0" y="1564.0"/>
      <point x="717.0" y="1564.0" type="curve" smooth="yes"/>
      <point x="822.0" y="1564.0" type="line" smooth="yes"/>
      <point x="848.0" y="1564.0"/>
      <point x="859.0" y="1557.0"/>
      <point x="854.0" y="1534.0" type="curve" smooth="yes"/>
      <point x="851.0" y="1500.0" type="line" smooth="yes"/>
      <point x="836.36328125" y="1334.11523438"/>
      <point x="844.0" y="1120.0"/>
      <point x="510.0" y="1120.0" type="curve" smooth="yes"/>
      <point x="355.0" y="1120.0" type="line" smooth="yes"/>
      <point x="317.0" y="1120.0"/>
      <point x="305.802734375" y="1110.51367188"/>
      <point x="308.0" y="1078.0" type="curve" smooth="yes"/>
      <point x="303.0" y="930.0" type="line" smooth="yes"/>
      <point x="305.528320312" y="892.576171875"/>
      <point x="296.0" y="850.0"/>
      <point x="304.0" y="846.0" type="curve" smooth="yes"/>
      <point x="319.0" y="837.0"/>
      <point x="336.127929688" y="863.18359375"/>
      <point x="359.0" y="896.0" type="curve" smooth="yes"/>
      <point x="405.0" y="962.0"/>
      <point x="475.0" y="1000.0"/>
      <point x="586.0" y="1000.0" type="curve" smooth="yes"/>
      <point x="878.0" y="1000.0"/>
      <point x="900.0" y="780.0"/>
      <point x="900.0" y="500.0" type="curve" smooth="yes"/>
      <point x="900.0" y="160.0"/>
      <point x="804.0" y="-20.0"/>
      <point x="462.0" y="-20.0" type="curve" smooth="yes"/>
      <point x="158.0" y="-20.0"/>
      <point x="30.0" y="114.0"/>
    </contour>
  </outline>
</glyph>
<glyph name="six" format="2">
  <advance height="2310" width="1010"/>
  <unicode hex="0036"/>
  <outline>
    <contour>
      <point x="586.0" y="1342.0" type="curve" smooth="yes"/>
      <point x="586.0" y="1358.0"/>
      <point x="576.0" y="1366.0"/>
      <point x="558.0" y="1366.0" type="curve" smooth="yes"/>
      <point x="460.0" y="1366.0"/>
      <point x="454.0" y="1197.0"/>
      <point x="434.0" y="864.0" type="curve" smooth="yes"/>
      <point x="432.0" y="829.0"/>
      <point x="427.0" y="815.0"/>
      <point x="434.0" y="811.0" type="curve" smooth="yes"/>
      <point x="443.0" y="806.0"/>
      <point x="453.00390625" y="817.421875"/>
      <point x="467.0" y="842.0" type="curve" smooth="yes"/>
      <point x="508.0" y="914.0"/>
      <point x="572.0" y="960.0"/>
      <point x="662.0" y="960.0" type="curve" smooth="yes"/>
      <point x="884.0" y="960.0"/>
      <point x="980.0" y="810.0"/>
      <point x="980.0" y="500.0" type="curve" smooth="yes"/>
      <point x="980.0" y="130.0"/>
      <point x="810.0" y="-20.0"/>
      <point x="508.0" y="-20.0" type="curve" smooth="yes"/>
      <point x="186.0" y="-20.0"/>
      <point x="30.0" y="170.0"/>
      <point x="30.0" y="740.0" type="curve" smooth="yes"/>
      <point x="30.0" y="1220.0"/>
      <point x="186.0" y="1520.0"/>
      <point x="558.0" y="1520.0" type="curve" smooth="yes"/>
      <point x="832.0" y="1520.0"/>
      <point x="930.0" y="1376.0"/>
      <point x="930.0" y="1222.0" type="curve" smooth="yes"/>
      <point x="930.0" y="1086.0"/>
      <point x="851.0" y="990.0"/>
      <point x="712.0" y="990.0" type="curve" smooth="yes"/>
      <point x="578.0" y="990.0"/>
      <point x="488.0" y="1062.0"/>
      <point x="488.0" y="1176.0" type="curve" smooth="yes"/>
      <point x="488.0" y="1288.0"/>
      <point x="586.0" y="1316.0"/>
    </contour>
    <contour>
      <point x="580.0" y="470.0" type="curve" smooth="yes"/>
      <point x="580.0" y="658.0"/>
      <point x="546.0" y="722.0"/>
      <point x="508.0" y="722.0" type="curve" smooth="yes"/>
      <point x="472.0" y="722.0"/>
      <point x="430.0" y="620.0"/>
      <point x="430.0" y="460.0" type="curve" smooth="yes"/>
      <point x="430.0" y="302.0"/>
      <point x="450.0" y="210.0"/>
      <point x="508.0" y="210.0" type="curve" smooth="yes"/>
      <point x="556.0" y="210.0"/>
      <point x="580.0" y="292.0"/>
    </contour>
  </outline>
</glyph>
<glyph name="seven" format="2">
  <advance height="2310" width="1027"/>
  <unicode hex="0037"/>
  <outline>
    <contour>
      <point x="0.462890625" y="982.0" type="curve" smooth="yes"/>
      <point x="10.462890625" y="1347.0"/>
      <point x="119.462890625" y="1520.0"/>
      <point x="320.462890625" y="1520.0" type="curve" smooth="yes"/>
      <point x="514.462890625" y="1520.0"/>
      <point x="534.462890625" y="1400.0"/>
      <point x="700.462890625" y="1400.0" type="curve" smooth="yes"/>
      <point x="768.462890625" y="1400.0"/>
      <point x="801.462890625" y="1427.0"/>
      <point x="821.462890625" y="1471.0" type="curve" smooth="yes"/>
      <point x="829.462890625" y="1489.0"/>
      <point x="832.462890625" y="1500.0"/>
      <point x="860.462890625" y="1500.0" type="curve" smooth="yes"/>
      <point x="989.462890625" y="1500.0" type="line" smooth="yes"/>
      <point x="1024.46289062" y="1500.0"/>
      <point x="1030.46289062" y="1493.0"/>
      <point x="1025.46289062" y="1460.0" type="curve" smooth="yes"/>
      <point x="1002.46289062" y="1305.0"/>
      <point x="841.462890625" y="993.0"/>
      <point x="696.462890625" y="756.0" type="curve" smooth="yes"/>
      <point x="592.696289062" y="586.395507812"/>
      <point x="548.462890625" y="532.0"/>
      <point x="548.462890625" y="464.0" type="curve" smooth="yes"/>
      <point x="548.462890625" y="368.0"/>
      <point x="724.462890625" y="368.0"/>
      <point x="724.462890625" y="216.0" type="curve" smooth="yes"/>
      <point x="724.462890625" y="102.0"/>
      <point x="654.462890625" y="-20.0"/>
      <point x="496.462890625" y="-20.0" type="curve" smooth="yes"/>
      <point x="348.462890625" y="-20.0"/>
      <point x="234.462890625" y="74.0"/>
      <point x="234.462890625" y="252.0" type="curve" smooth="yes"/>
      <point x="234.462890625" y="430.0"/>
      <point x="331.145507812" y="540.103515625"/>
      <point x="458.462890625" y="762.0" type="curve" smooth="yes"/>
      <point x="528.462890625" y="884.0"/>
      <point x="568.462890625" y="965.0"/>
      <point x="664.462890625" y="1100.0" type="curve" smooth="yes"/>
      <point x="693.462890625" y="1141.0"/>
      <point x="718.462890625" y="1176.0"/>
      <point x="708.462890625" y="1186.0" type="curve" smooth="yes"/>
      <point x="693.462890625" y="1201.0"/>
      <point x="663.060546875" y="1165.31542969"/>
      <point x="640.462890625" y="1136.0" type="curve" smooth="yes"/>
      <point x="603.462890625" y="1088.0"/>
      <point x="564.462890625" y="1076.0"/>
      <point x="510.462890625" y="1076.0" type="curve" smooth="yes"/>
      <point x="420.462890625" y="1076.0"/>
      <point x="420.462890625" y="1134.0"/>
      <point x="338.462890625" y="1134.0" type="curve" smooth="yes"/>
      <point x="271.462890625" y="1134.0"/>
      <point x="186.462890625" y="1082.0"/>
      <point x="176.462890625" y="980.0" type="curve" smooth="yes"/>
      <point x="174.462890625" y="957.0"/>
      <point x="181.462890625" y="946.0"/>
      <point x="153.462890625" y="946.0" type="curve" smooth="yes"/>
      <point x="37.462890625" y="946.0" type="line" smooth="yes"/>
      <point x="7.462890625" y="946.0"/>
      <point x="-0.537109375" y="954.0"/>
    </contour>
  </outline>
</glyph>
<glyph name="eight" format="2">
  <advance height="2310" width="1050"/>
  <unicode hex="0038"/>
  <outline>
    <contour>
      <point x="430.0" y="444.0" type="curve" smooth="yes"/>
      <point x="430.0" y="216.0"/>
      <point x="472.0" y="170.0"/>
      <point x="520.0" y="170.0" type="curve" smooth="yes"/>
      <point x="568.0" y="170.0"/>
      <point x="600.0" y="216.0"/>
      <point x="600.0" y="444.0" type="curve" smooth="yes"/>
      <point x="600.0" y="662.0"/>
      <point x="568.0" y="720.0"/>
      <point x="520.0" y="720.0" type="curve" smooth="yes"/>
      <point x="472.0" y="720.0"/>
      <point x="430.0" y="662.0"/>
    </contour>
    <contour>
      <point x="60.0" y="1150.0" type="curve" smooth="yes"/>
      <point x="60.0" y="1370.0"/>
      <point x="198.0" y="1520.0"/>
      <point x="520.0" y="1520.0" type="curve" smooth="yes"/>
      <point x="852.0" y="1520.0"/>
      <point x="990.0" y="1370.0"/>
      <point x="990.0" y="1150.0" type="curve" smooth="yes"/>
      <point x="990.0" y="1004.0"/>
      <point x="888.0" y="897.0"/>
      <point x="765.0" y="842.0" type="curve" smooth="yes"/>
      <point x="734.0" y="828.0"/>
      <point x="709.0" y="824.0"/>
      <point x="709.0" y="810.0" type="curve" smooth="yes"/>
      <point x="709.0" y="798.0"/>
      <point x="735.0" y="792.0"/>
      <point x="764.0" y="780.0" type="curve" smooth="yes"/>
      <point x="918.0" y="716.0"/>
      <point x="1020.0" y="591.0"/>
      <point x="1020.0" y="420.0" type="curve" smooth="yes"/>
      <point x="1020.0" y="160.0"/>
      <point x="882.0" y="-20.0"/>
      <point x="520.0" y="-20.0" type="curve" smooth="yes"/>
      <point x="158.0" y="-20.0"/>
      <point x="30.0" y="160.0"/>
      <point x="30.0" y="420.0" type="curve" smooth="yes"/>
      <point x="30.0" y="600.0"/>
      <point x="134.0" y="731.0"/>
      <point x="302.0" y="790.0" type="curve" smooth="yes"/>
      <point x="323.0" y="797.0"/>
      <point x="336.0" y="797.0"/>
      <point x="336.0" y="812.0" type="curve" smooth="yes"/>
      <point x="336.0" y="826.0"/>
      <point x="313.0" y="827.0"/>
      <point x="299.0" y="832.0" type="curve" smooth="yes"/>
      <point x="164.0" y="884.0"/>
      <point x="60.0" y="994.0"/>
    </contour>
    <contour>
      <point x="450.0" y="1105.0" type="curve" smooth="yes"/>
      <point x="450.0" y="957.0"/>
      <point x="482.0" y="900.0"/>
      <point x="520.0" y="900.0" type="curve" smooth="yes"/>
      <point x="578.0" y="900.0"/>
      <point x="590.0" y="957.0"/>
      <point x="590.0" y="1105.0" type="curve" smooth="yes"/>
      <point x="590.0" y="1253.0"/>
      <point x="574.0" y="1330.0"/>
      <point x="526.0" y="1330.0" type="curve" smooth="yes"/>
      <point x="478.0" y="1330.0"/>
      <point x="450.0" y="1253.0"/>
    </contour>
  </outline>
</glyph>
<glyph name="nine" format="2">
  <advance height="2310" width="1010"/>
  <unicode hex="0039"/>
  <outline>
    <contour>
      <point x="424.0" y="158.0" type="curve" smooth="yes"/>
      <point x="424.0" y="142.0"/>
      <point x="434.0" y="134.0"/>
      <point x="452.0" y="134.0" type="curve" smooth="yes"/>
      <point x="550.0" y="134.0"/>
      <point x="556.0" y="303.0"/>
      <point x="576.0" y="636.0" type="curve" smooth="yes"/>
      <point x="578.0" y="671.0"/>
      <point x="583.0" y="685.0"/>
      <point x="576.0" y="689.0" type="curve" smooth="yes"/>
      <point x="567.0" y="694.0"/>
      <point x="556.99609375" y="682.578125"/>
      <point x="543.0" y="658.0" type="curve" smooth="yes"/>
      <point x="502.0" y="586.0"/>
      <point x="438.0" y="540.0"/>
      <point x="348.0" y="540.0" type="curve" smooth="yes"/>
      <point x="126.0" y="540.0"/>
      <point x="30.0" y="690.0"/>
      <point x="30.0" y="1000.0" type="curve" smooth="yes"/>
      <point x="30.0" y="1370.0"/>
      <point x="200.0" y="1520.0"/>
      <point x="502.0" y="1520.0" type="curve" smooth="yes"/>
      <point x="824.0" y="1520.0"/>
      <point x="980.0" y="1330.0"/>
      <point x="980.0" y="760.0" type="curve" smooth="yes"/>
      <point x="980.0" y="280.0"/>
      <point x="824.0" y="-20.0"/>
      <point x="452.0" y="-20.0" type="curve" smooth="yes"/>
      <point x="178.0" y="-20.0"/>
      <point x="80.0" y="124.0"/>
      <point x="80.0" y="278.0" type="curve" smooth="yes"/>
      <point x="80.0" y="414.0"/>
      <point x="159.0" y="510.0"/>
      <point x="298.0" y="510.0" type="curve" smooth="yes"/>
      <point x="432.0" y="510.0"/>
      <point x="522.0" y="438.0"/>
      <point x="522.0" y="324.0" type="curve" smooth="yes"/>
      <point x="522.0" y="212.0"/>
      <point x="424.0" y="184.0"/>
    </contour>
    <contour>
      <point x="430.0" y="1030.0" type="curve" smooth="yes"/>
      <point x="430.0" y="842.0"/>
      <point x="464.0" y="778.0"/>
      <point x="502.0" y="778.0" type="curve" smooth="yes"/>
      <point x="538.0" y="778.0"/>
      <point x="580.0" y="880.0"/>
      <point x="580.0" y="1040.0" type="curve" smooth="yes"/>
      <point x="580.0" y="1198.0"/>
      <point x="560.0" y="1290.0"/>
      <point x="502.0" y="1290.0" type="curve" smooth="yes"/>
      <point x="454.0" y="1290.0"/>
      <point x="430.0" y="1208.0"/>
    </contour>
  </outline>
</glyph>
<glyph name="question" format="2">
  <advance width="1170"/>
  <unicode hex="003F"/>
  <outline>
    <contour>
      <point x="358.0" y="1334.0" type="curve" smooth="yes"/>
      <point x="358.0" y="1294.0"/>
      <point x="500.0" y="1312.0"/>
      <point x="500.0" y="1150.0" type="curve" smooth="yes"/>
      <point x="500.0" y="1026.0"/>
      <point x="374.0" y="940.0"/>
      <point x="264.0" y="940.0" type="curve" smooth="yes"/>
      <point x="144.0" y="940.0"/>
      <point x="30.0" y="1026.0"/>
      <point x="30.0" y="1182.0" type="curve" smooth="yes"/>
      <point x="30.0" y="1346.0"/>
      <point x="228.0" y="1520.0"/>
      <point x="562.0" y="1520.0" type="curve" smooth="yes"/>
      <point x="884.0" y="1520.0"/>
      <point x="1140.0" y="1390.0"/>
      <point x="1140.0" y="1100.0" type="curve" smooth="yes"/>
      <point x="1140.0" y="840.0"/>
      <point x="925.0" y="690.0"/>
      <point x="666.0" y="618.0" type="curve" smooth="yes"/>
      <point x="639.0" y="611.0"/>
      <point x="634.0" y="613.0"/>
      <point x="631.0" y="580.0" type="curve" smooth="yes"/>
      <point x="628.0" y="536.0" type="line" smooth="yes"/>
      <point x="625.0" y="500.0"/>
      <point x="608.0" y="498.0"/>
      <point x="572.0" y="498.0" type="curve" smooth="yes"/>
      <point x="506.0" y="498.0" type="line" smooth="yes"/>
      <point x="440.0" y="498.0"/>
      <point x="433.0" y="504.0"/>
      <point x="425.0" y="560.0" type="curve" smooth="yes"/>
      <point x="411.0" y="652.0" type="line" smooth="yes"/>
      <point x="402.0" y="712.0"/>
      <point x="426.0" y="702.0"/>
      <point x="470.0" y="722.0" type="curve" smooth="yes"/>
      <point x="643.0" y="799.0"/>
      <point x="738.0" y="956.0"/>
      <point x="738.0" y="1140.0" type="curve" smooth="yes"/>
      <point x="738.0" y="1288.0"/>
      <point x="680.0" y="1396.0"/>
      <point x="522.0" y="1396.0" type="curve" smooth="yes"/>
      <point x="414.0" y="1396.0"/>
      <point x="358.0" y="1358.0"/>
    </contour>
    <component base="period" xOffset="258.0"/>
  </outline>
</glyph>
<glyph name="at" format="2">
  <advance width="2300"/>
  <unicode hex="0040"/>
  <outline>
    <contour>
      <point x="1348.0" y="692.0" type="curve" smooth="yes"/>
      <point x="1348.0" y="776.0"/>
      <point x="1344.0" y="836.0"/>
      <point x="1288.0" y="836.0" type="curve" smooth="yes"/>
      <point x="1200.0" y="836.0"/>
      <point x="1130.0" y="608.0"/>
      <point x="1130.0" y="480.0" type="curve" smooth="yes"/>
      <point x="1130.0" y="386.0"/>
      <point x="1140.0" y="364.0"/>
      <point x="1168.0" y="364.0" type="curve" smooth="yes"/>
      <point x="1250.0" y="364.0"/>
      <point x="1348.0" y="536.0"/>
    </contour>
    <contour>
      <point x="1768.0" y="-173.0" type="curve" smooth="yes"/>
      <point x="1600.0" y="-353.0"/>
      <point x="1350.0" y="-448.0"/>
      <point x="1038.0" y="-448.0" type="curve" smooth="yes"/>
      <point x="672.0" y="-448.0"/>
      <point x="90.0" y="-224.0"/>
      <point x="90.0" y="442.0" type="curve" smooth="yes"/>
      <point x="90.0" y="1108.0"/>
      <point x="644.0" y="1600.0"/>
      <point x="1270.0" y="1600.0" type="curve" smooth="yes"/>
      <point x="1856.0" y="1600.0"/>
      <point x="2180.0" y="1248.0"/>
      <point x="2180.0" y="802.0" type="curve" smooth="yes"/>
      <point x="2180.0" y="462.0"/>
      <point x="1944.0" y="126.0"/>
      <point x="1582.0" y="126.0" type="curve" smooth="yes"/>
      <point x="1481.0" y="126.0"/>
      <point x="1405.0" y="172.0"/>
      <point x="1354.0" y="230.0" type="curve" smooth="yes"/>
      <point x="1324.0" y="264.0"/>
      <point x="1314.0" y="272.0"/>
      <point x="1274.0" y="239.0" type="curve" smooth="yes"/>
      <point x="1200.0" y="178.0"/>
      <point x="1119.0" y="130.0"/>
      <point x="1008.0" y="130.0" type="curve" smooth="yes"/>
      <point x="850.0" y="130.0"/>
      <point x="708.0" y="211.0"/>
      <point x="708.0" y="420.0" type="curve" smooth="yes"/>
      <point x="708.0" y="640.0"/>
      <point x="878.0" y="1068.0"/>
      <point x="1196.0" y="1068.0" type="curve" smooth="yes"/>
      <point x="1314.0" y="1068.0"/>
      <point x="1372.0" y="1027.0"/>
      <point x="1400.0" y="958.0" type="curve" smooth="yes"/>
      <point x="1415.0" y="922.0"/>
      <point x="1420.0" y="917.0"/>
      <point x="1428.0" y="961.0" type="curve" smooth="yes"/>
      <point x="1438.0" y="1012.0" type="line" smooth="yes"/>
      <point x="1444.0" y="1042.0"/>
      <point x="1449.0" y="1040.0"/>
      <point x="1486.0" y="1040.0" type="curve" smooth="yes"/>
      <point x="1719.0" y="1040.0" type="line" smooth="yes"/>
      <point x="1770.0" y="1040.0"/>
      <point x="1783.0" y="1036.0"/>
      <point x="1772.0" y="989.0" type="curve" smooth="yes"/>
      <point x="1640.0" y="440.0" type="line" smooth="yes"/>
      <point x="1636.0" y="414.0"/>
      <point x="1610.0" y="340.0"/>
      <point x="1676.0" y="340.0" type="curve" smooth="yes"/>
      <point x="1778.0" y="340.0"/>
      <point x="1954.0" y="482.0"/>
      <point x="1954.0" y="810.0" type="curve" smooth="yes"/>
      <point x="1954.0" y="1224.0"/>
      <point x="1612.0" y="1364.0"/>
      <point x="1344.0" y="1364.0" type="curve" smooth="yes"/>
      <point x="956.0" y="1364.0"/>
      <point x="540.0" y="1046.0"/>
      <point x="540.0" y="482.0" type="curve" smooth="yes"/>
      <point x="540.0" y="58.0"/>
      <point x="762.0" y="-218.0"/>
      <point x="1110.0" y="-218.0" type="curve" smooth="yes"/>
      <point x="1284.0" y="-218.0"/>
      <point x="1446.0" y="-208.0"/>
      <point x="1612.0" y="-51.0" type="curve" smooth="yes"/>
      <point x="1642.0" y="-23.0"/>
      <point x="1645.0" y="-3.0"/>
      <point x="1677.0" y="-35.0" type="curve" smooth="yes"/>
      <point x="1770.0" y="-128.0" type="line" smooth="yes"/>
      <point x="1791.0" y="-149.0"/>
      <point x="1788.0" y="-151.0"/>
    </contour>
  </outline>
</glyph>
<glyph name="A" format="2">
  <advance width="1390"/>
  <unicode hex="0041"/>
  <anchor x="1076.0" y="0.0" name="Anchor-2"/>
  <anchor x="536.0" y="0.0" name="Anchor-1"/>
  <anchor x="704.0" y="1500.0" name="Anchor-0"/>
  <anchor x="1076.0" y="0.0" name="Anchor-3"/>
  <anchor x="536.0" y="0.0" name="Anchor-2"/>
  <anchor x="704.0" y="1500.0" name="Anchor-0"/>
  <outline>
    <contour>
      <point x="569.0" y="999.0" type="curve" smooth="yes"/>
      <point x="518.0" y="735.0" type="line" smooth="yes"/>
      <point x="511.9453125" y="703.658203125"/>
      <point x="491.0" y="670.0"/>
      <point x="545.0" y="670.0" type="curve" smooth="yes"/>
      <point x="626.0" y="670.0" type="line" smooth="yes"/>
      <point x="672.0" y="670.0"/>
      <point x="658.2421875" y="702.153320312"/>
      <point x="654.0" y="731.0" type="curve" smooth="yes"/>
      <point x="614.0" y="1003.0" type="line" smooth="yes"/>
      <point x="607.040039062" y="1050.32910156"/>
      <point x="575.205078125" y="1031.11914062"/>
    </contour>
    <contour>
      <point x="0.0" y="57.0" type="curve" smooth="yes"/>
      <point x="0.0" y="221.0" type="line" smooth="yes"/>
      <point x="0.0" y="255.0"/>
      <point x="8.0" y="270.0"/>
      <point x="46.0" y="270.0" type="curve" smooth="yes"/>
      <point x="111.0" y="270.0" type="line" smooth="yes"/>
      <point x="144.0" y="270.0"/>
      <point x="142.0" y="285.0"/>
      <point x="151.0" y="307.0" type="curve" smooth="yes"/>
      <point x="428.0" y="1477.0" type="line" smooth="yes"/>
      <point x="441.0" y="1509.0"/>
      <point x="445.0" y="1510.0"/>
      <point x="491.0" y="1510.0" type="curve" smooth="yes"/>
      <point x="891.0" y="1510.0" type="line" smooth="yes"/>
      <point x="938.0" y="1510.0"/>
      <point x="944.0" y="1499.0"/>
      <point x="957.0" y="1467.0" type="curve" smooth="yes"/>
      <point x="1238.0" y="331.0" type="line" smooth="yes"/>
      <point x="1253.0" y="293.0"/>
      <point x="1248.0" y="270.0"/>
      <point x="1305.0" y="270.0" type="curve" smooth="yes"/>
      <point x="1337.0" y="270.0" type="line" smooth="yes"/>
      <point x="1372.0" y="270.0"/>
      <point x="1390.0" y="270.0"/>
      <point x="1390.0" y="231.0" type="curve" smooth="yes"/>
      <point x="1390.0" y="45.0" type="line" smooth="yes"/>
      <point x="1390.0" y="5.0"/>
      <point x="1384.0" y="0.0"/>
      <point x="1345.0" y="0.0" type="curve" smooth="yes"/>
      <point x="651.0" y="0.0" type="line" smooth="yes"/>
      <point x="611.0" y="0.0"/>
      <point x="610.0" y="9.0"/>
      <point x="610.0" y="49.0" type="curve" smooth="yes"/>
      <point x="610.0" y="227.0" type="line" smooth="yes"/>
      <point x="610.0" y="265.0"/>
      <point x="616.0" y="270.0"/>
      <point x="653.0" y="270.0" type="curve" smooth="yes"/>
      <point x="667.0" y="270.0" type="line" smooth="yes"/>
      <point x="715.0" y="270.0"/>
      <point x="720.716796875" y="278.908203125"/>
      <point x="716.0" y="319.0" type="curve" smooth="yes"/>
      <point x="708.0" y="387.0" type="line" smooth="yes"/>
      <point x="704.73046875" y="414.791992188"/>
      <point x="700.0" y="420.0"/>
      <point x="661.0" y="420.0" type="curve" smooth="yes"/>
      <point x="514.0" y="420.0" type="line" smooth="yes"/>
      <point x="475.0" y="420.0"/>
      <point x="457.150390625" y="425.168945312"/>
      <point x="452.0" y="395.0" type="curve" smooth="yes"/>
      <point x="438.0" y="313.0" type="line" smooth="yes"/>
      <point x="432.323242188" y="279.75"/>
      <point x="437.0" y="270.0"/>
      <point x="463.0" y="270.0" type="curve" smooth="yes"/>
      <point x="467.0" y="270.0" type="line" smooth="yes"/>
      <point x="499.0" y="270.0"/>
      <point x="500.0" y="261.0"/>
      <point x="500.0" y="229.0" type="curve" smooth="yes"/>
      <point x="500.0" y="37.0" type="line" smooth="yes"/>
      <point x="500.0" y="4.0"/>
      <point x="490.0" y="0.0"/>
      <point x="459.0" y="0.0" type="curve" smooth="yes"/>
      <point x="66.0" y="0.0" type="line" smooth="yes"/>
      <point x="10.0" y="0.0"/>
      <point x="0.0" y="1.0"/>
    </contour>
  </outline>
</glyph>
<glyph name="B" format="2">
  <advance width="1210"/>
  <unicode hex="0042"/>
  <anchor x="686.0" y="0.0" name="Anchor-1"/>
  <anchor x="654.0" y="1500.0" name="Anchor-0"/>
  <anchor x="686.0" y="0.0" name="Anchor-2"/>
  <anchor x="654.0" y="1500.0" name="Anchor-0"/>
  <outline>
    <contour>
      <point x="630.0" y="270.0" type="line" smooth="yes"/>
      <point x="692.0" y="270.0"/>
      <point x="720.0" y="352.0"/>
      <point x="720.0" y="470.0" type="curve" smooth="yes"/>
      <point x="720.0" y="588.0"/>
      <point x="672.0" y="640.0"/>
      <point x="630.0" y="640.0" type="curve" smooth="yes"/>
      <point x="601.0" y="640.0" type="line" smooth="yes"/>
      <point x="575.0" y="640.0"/>
      <point x="560.0" y="624.0"/>
      <point x="560.0" y="596.0" type="curve" smooth="yes"/>
      <point x="560.0" y="326.0" type="line" smooth="yes"/>
      <point x="560.0" y="285.0"/>
      <point x="566.0" y="270.0"/>
      <point x="605.0" y="270.0" type="curve" smooth="yes"/>
    </contour>
    <contour>
      <point x="587.0" y="910.0" type="curve" smooth="yes"/>
      <point x="600.0" y="910.0" type="line" smooth="yes"/>
      <point x="652.0" y="910.0"/>
      <point x="670.0" y="962.0"/>
      <point x="670.0" y="1080.0" type="curve" smooth="yes"/>
      <point x="670.0" y="1198.0"/>
      <point x="642.0" y="1230.0"/>
      <point x="600.0" y="1230.0" type="curve" smooth="yes"/>
      <point x="591.0" y="1230.0" type="line" smooth="yes"/>
      <point x="560.0" y="1230.0"/>
      <point x="560.0" y="1229.0"/>
      <point x="560.0" y="1198.0" type="curve" smooth="yes"/>
      <point x="560.0" y="969.0" type="line" smooth="yes"/>
      <point x="560.0" y="919.0"/>
      <point x="563.0" y="910.0"/>
    </contour>
    <contour>
      <point x="730.0" y="0.0" type="curve" smooth="yes"/>
      <point x="57.0" y="0.0" type="line" smooth="yes"/>
      <point x="11.0" y="0.0"/>
      <point x="10.0" y="19.0"/>
      <point x="10.0" y="66.0" type="curve" smooth="yes"/>
      <point x="10.0" y="240.0" type="line" smooth="yes"/>
      <point x="10.0" y="266.0"/>
      <point x="21.0" y="270.0"/>
      <point x="45.0" y="270.0" type="curve" smooth="yes"/>
      <point x="83.0" y="270.0" type="line" smooth="yes"/>
      <point x="127.0" y="270.0"/>
      <point x="130.0" y="287.0"/>
      <point x="130.0" y="332.0" type="curve" smooth="yes"/>
      <point x="130.0" y="1178.0" type="line" smooth="yes"/>
      <point x="130.0" y="1214.0"/>
      <point x="124.0" y="1230.0"/>
      <point x="89.0" y="1230.0" type="curve" smooth="yes"/>
      <point x="53.0" y="1230.0" type="line" smooth="yes"/>
      <point x="16.0" y="1230.0"/>
      <point x="10.0" y="1236.0"/>
      <point x="10.0" y="1272.0" type="curve" smooth="yes"/>
      <point x="10.0" y="1448.0" type="line" smooth="yes"/>
      <point x="10.0" y="1488.0"/>
      <point x="19.0" y="1500.0"/>
      <point x="57.0" y="1500.0" type="curve" smooth="yes"/>
      <point x="690.0" y="1500.0" type="line" smooth="yes"/>
      <point x="1002.0" y="1500.0"/>
      <point x="1150.0" y="1380.0"/>
      <point x="1150.0" y="1150.0" type="curve" smooth="yes"/>
      <point x="1150.0" y="945.0"/>
      <point x="1034.0" y="859.0"/>
      <point x="905.0" y="805.0" type="curve" smooth="yes"/>
      <point x="868.5078125" y="789.724609375"/>
      <point x="865.71875" y="772.110351562"/>
      <point x="911.0" y="760.0" type="curve" smooth="yes"/>
      <point x="1083.0" y="714.0"/>
      <point x="1210.0" y="623.0"/>
      <point x="1210.0" y="390.0" type="curve" smooth="yes"/>
      <point x="1210.0" y="120.0"/>
      <point x="1062.0" y="-4.06582737317e-14"/>
    </contour>
  </outline>
</glyph>
<glyph name="C" format="2">
  <advance width="1208"/>
  <unicode hex="0043"/>
  <anchor x="677.398" y="0.0" name="Anchor-1"/>
  <anchor x="676.398" y="1500.0" name="Anchor-0"/>
  <anchor x="677.398" y="0.0" name="Anchor-2"/>
  <anchor x="676.398" y="1500.0" name="Anchor-0"/>
  <outline>
    <contour>
      <point x="30.3984375" y="750.0" type="curve" smooth="yes"/>
      <point x="30.3984375" y="1196.0"/>
      <point x="184.3984375" y="1540.0"/>
      <point x="580.3984375" y="1540.0" type="curve" smooth="yes"/>
      <point x="720.3984375" y="1540.0"/>
      <point x="791.3984375" y="1487.0"/>
      <point x="826.3984375" y="1431.0" type="curve" smooth="yes"/>
      <point x="853.640625" y="1387.41210938"/>
      <point x="855.3984375" y="1401.0"/>
      <point x="889.3984375" y="1444.0" type="curve" smooth="yes"/>
      <point x="922.3984375" y="1488.0" type="line" smooth="yes"/>
      <point x="937.3984375" y="1507.0"/>
      <point x="943.3984375" y="1510.0"/>
      <point x="980.3984375" y="1510.0" type="curve" smooth="yes"/>
      <point x="1120.3984375" y="1510.0" type="line" smooth="yes"/>
      <point x="1169.3984375" y="1510.0"/>
      <point x="1170.3984375" y="1501.0"/>
      <point x="1170.3984375" y="1452.0" type="curve" smooth="yes"/>
      <point x="1170.3984375" y="974.0" type="line" smooth="yes"/>
      <point x="1170.3984375" y="936.0"/>
      <point x="1165.3984375" y="930.0"/>
      <point x="1125.3984375" y="930.0" type="curve" smooth="yes"/>
      <point x="912.3984375" y="930.0" type="line" smooth="yes"/>
      <point x="864.3984375" y="930.0"/>
      <point x="858.3984375" y="941.0"/>
      <point x="849.3984375" y="977.0" type="curve" smooth="yes"/>
      <point x="804.3984375" y="1157.0"/>
      <point x="810.3984375" y="1284.0"/>
      <point x="700.3984375" y="1284.0" type="curve" smooth="yes"/>
      <point x="592.3984375" y="1284.0"/>
      <point x="550.3984375" y="1094.0"/>
      <point x="550.3984375" y="750.0" type="curve" smooth="yes"/>
      <point x="550.3984375" y="406.0"/>
      <point x="592.3984375" y="228.0"/>
      <point x="720.3984375" y="228.0" type="curve" smooth="yes"/>
      <point x="806.3984375" y="228.0"/>
      <point x="850.3984375" y="338.0"/>
      <point x="890.3984375" y="522.0" type="curve" smooth="yes"/>
      <point x="902.3984375" y="577.0"/>
      <point x="909.3984375" y="590.0"/>
      <point x="958.3984375" y="590.0" type="curve" smooth="yes"/>
      <point x="1154.3984375" y="590.0" type="line" smooth="yes"/>
      <point x="1207.3984375" y="590.0"/>
      <point x="1211.3984375" y="579.0"/>
      <point x="1206.3984375" y="542.0" type="curve" smooth="yes"/>
      <point x="1164.3984375" y="202.0"/>
      <point x="1025.3984375" y="-40.0"/>
      <point x="680.3984375" y="-40.0" type="curve" smooth="yes"/>
      <point x="194.3984375" y="-40.0"/>
      <point x="30.3984375" y="264.0"/>
    </contour>
  </outline>
</glyph>
<glyph name="D" format="2">
  <advance width="1320"/>
  <unicode hex="0044"/>
  <anchor x="694.0" y="1500.0" name="Anchor-0"/>
  <anchor x="693.0" y="0.0" name="Anchor-1"/>
  <anchor x="693.0" y="0.0" name="Anchor-2"/>
  <outline>
    <contour>
      <point x="10.0" y="34.0" type="curve" smooth="yes"/>
      <point x="10.0" y="230.0" type="line" smooth="yes"/>
      <point x="10.0" y="263.0"/>
      <point x="18.0" y="270.0"/>
      <point x="49.0" y="270.0" type="curve" smooth="yes"/>
      <point x="93.0" y="270.0" type="line" smooth="yes"/>
      <point x="129.0" y="270.0"/>
      <point x="130.0" y="279.0"/>
      <point x="130.0" y="316.0" type="curve" smooth="yes"/>
      <point x="130.0" y="1179.0" type="line" smooth="yes"/>
      <point x="130.0" y="1222.0"/>
      <point x="124.0" y="1230.0"/>
      <point x="83.0" y="1230.0" type="curve" smooth="yes"/>
      <point x="59.0" y="1230.0" type="line" smooth="yes"/>
      <point x="15.0" y="1230.0"/>
      <point x="10.0" y="1236.0"/>
      <point x="10.0" y="1278.0" type="curve" smooth="yes"/>
      <point x="10.0" y="1447.0" type="line" smooth="yes"/>
      <point x="10.0" y="1492.0"/>
      <point x="20.0" y="1500.0"/>
      <point x="63.0" y="1500.0" type="curve" smooth="yes"/>
      <point x="670.0" y="1500.0" type="line" smooth="yes"/>
      <point x="1216.0" y="1500.0"/>
      <point x="1300.0" y="1176.0"/>
      <point x="1300.0" y="750.0" type="curve" smooth="yes"/>
      <point x="1300.0" y="324.0"/>
      <point x="1196.0" y="-6.44164216352e-14"/>
      <point x="670.0" y="0.0" type="curve" smooth="yes"/>
      <point x="58.0" y="0.0" type="line" smooth="yes"/>
      <point x="25.0" y="0.0"/>
      <point x="10.0" y="1.0"/>
    </contour>
    <contour>
      <point x="648.0" y="270.0" type="curve" smooth="yes"/>
      <point x="650.0" y="270.0" type="line" smooth="yes"/>
      <point x="778.0" y="270.0"/>
      <point x="810.0" y="426.0"/>
      <point x="810.0" y="750.0" type="curve" smooth="yes"/>
      <point x="810.0" y="1074.0"/>
      <point x="758.0" y="1230.0"/>
      <point x="650.0" y="1230.0" type="curve" smooth="yes"/>
      <point x="639.0" y="1230.0" type="line" smooth="yes"/>
      <point x="612.0" y="1230.0"/>
      <point x="600.0" y="1222.0"/>
      <point x="600.0" y="1174.0" type="curve" smooth="yes"/>
      <point x="600.0" y="316.0" type="line" smooth="yes"/>
      <point x="600.0" y="272.0"/>
      <point x="603.0" y="270.0"/>
    </contour>
  </outline>
</glyph>
<glyph name="E" format="2">
  <advance width="1170"/>
  <unicode hex="0045"/>
  <anchor x="703.835" y="1500.0" name="Anchor-0"/>
  <anchor x="675.835" y="0.0" name="Anchor-1"/>
  <anchor x="675.835" y="0.0" name="Anchor-2"/>
  <anchor x="985.835" y="50.0" name="Anchor-3"/>
  <outline>
    <contour>
      <point x="85.8349609375" y="1230.0" type="curve" smooth="yes"/>
      <point x="55.8349609375" y="1230.0" type="line" smooth="yes"/>
      <point x="13.8349609375" y="1230.0"/>
      <point x="9.8349609375" y="1238.0"/>
      <point x="9.8349609375" y="1278.0" type="curve" smooth="yes"/>
      <point x="9.8349609375" y="1454.0" type="line" smooth="yes"/>
      <point x="9.8349609375" y="1499.0"/>
      <point x="23.8349609375" y="1500.0"/>
      <point x="65.8349609375" y="1500.0" type="curve" smooth="yes"/>
      <point x="1097.83496094" y="1500.0" type="line" smooth="yes"/>
      <point x="1136.83496094" y="1500.0"/>
      <point x="1139.83496094" y="1489.0"/>
      <point x="1139.83496094" y="1452.0" type="curve" smooth="yes"/>
      <point x="1139.83496094" y="948.0" type="line" smooth="yes"/>
      <point x="1139.83496094" y="910.0"/>
      <point x="1139.83496094" y="910.0"/>
      <point x="1101.83496094" y="910.0" type="curve" smooth="yes"/>
      <point x="941.834960938" y="910.0" type="line" smooth="yes"/>
      <point x="911.834960938" y="910.0"/>
      <point x="909.834960938" y="924.0"/>
      <point x="908.834960938" y="950.0" type="curve" smooth="yes"/>
      <point x="902.834960938" y="1154.0"/>
      <point x="869.834960938" y="1230.0"/>
      <point x="699.834960938" y="1230.0" type="curve" smooth="yes"/>
      <point x="657.834960938" y="1230.0" type="line" smooth="yes"/>
      <point x="618.834960938" y="1230.0"/>
      <point x="599.834960938" y="1226.0"/>
      <point x="599.834960938" y="1183.0" type="curve" smooth="yes"/>
      <point x="599.834960938" y="918.0" type="line" smooth="yes"/>
      <point x="599.834960938" y="870.0"/>
      <point x="605.834960938" y="860.0"/>
      <point x="617.834960938" y="860.0" type="curve" smooth="yes"/>
      <point x="618.834960938" y="860.0" type="line" smooth="yes"/>
      <point x="641.834960938" y="860.0"/>
      <point x="659.834960938" y="945.0"/>
      <point x="665.834960938" y="1038.0" type="curve" smooth="yes"/>
      <point x="667.856445312" y="1069.3359375"/>
      <point x="672.834960938" y="1086.0"/>
      <point x="700.834960938" y="1086.0" type="curve" smooth="yes"/>
      <point x="811.834960938" y="1086.0" type="line" smooth="yes"/>
      <point x="854.834960938" y="1086.0"/>
      <point x="859.834960938" y="1080.0"/>
      <point x="859.834960938" y="1038.0" type="curve" smooth="yes"/>
      <point x="859.834960938" y="458.0" type="line" smooth="yes"/>
      <point x="859.834960938" y="423.0"/>
      <point x="854.834960938" y="416.0"/>
      <point x="817.834960938" y="416.0" type="curve" smooth="yes"/>
      <point x="709.834960938" y="416.0" type="line" smooth="yes"/>
      <point x="668.834960938" y="416.0"/>
      <point x="667.041992188" y="434.53125"/>
      <point x="664.834960938" y="468.0" type="curve" smooth="yes"/>
      <point x="658.834960938" y="559.0"/>
      <point x="648.834960938" y="650.0"/>
      <point x="621.834960938" y="650.0" type="curve" smooth="yes"/>
      <point x="620.834960938" y="650.0" type="line" smooth="yes"/>
      <point x="603.834960938" y="650.0"/>
      <point x="599.834960938" y="633.0"/>
      <point x="599.834960938" y="592.0" type="curve" smooth="yes"/>
      <point x="599.834960938" y="310.0" type="line" smooth="yes"/>
      <point x="599.834960938" y="263.0"/>
      <point x="608.834960938" y="270.0"/>
      <point x="653.834960938" y="270.0" type="curve" smooth="yes"/>
      <point x="679.834960938" y="270.0" type="line" smooth="yes"/>
      <point x="883.834960938" y="270.0"/>
      <point x="921.834960938" y="361.0"/>
      <point x="928.834960938" y="592.0" type="curve" smooth="yes"/>
      <point x="930.834960938" y="643.0"/>
      <point x="924.834960938" y="650.0"/>
      <point x="979.834960938" y="650.0" type="curve" smooth="yes"/>
      <point x="1119.83496094" y="650.0" type="line" smooth="yes"/>
      <point x="1164.83496094" y="650.0"/>
      <point x="1159.83496094" y="644.0"/>
      <point x="1159.83496094" y="600.0" type="curve" smooth="yes"/>
      <point x="1159.83496094" y="40.0" type="line" smooth="yes"/>
      <point x="1159.83496094" y="-2.0"/>
      <point x="1157.83496094" y="0.0"/>
      <point x="1115.83496094" y="0.0" type="curve" smooth="yes"/>
      <point x="59.8349609375" y="0.0" type="line" smooth="yes"/>
      <point x="19.8349609375" y="0.0"/>
      <point x="9.8349609375" y="-7.0"/>
      <point x="9.8349609375" y="36.0" type="curve" smooth="yes"/>
      <point x="9.8349609375" y="238.0" type="line" smooth="yes"/>
      <point x="9.8349609375" y="272.0"/>
      <point x="12.8349609375" y="270.0"/>
      <point x="45.8349609375" y="270.0" type="curve" smooth="yes"/>
      <point x="85.8349609375" y="270.0" type="line" smooth="yes"/>
      <point x="128.834960938" y="270.0"/>
      <point x="129.834960938" y="269.0"/>
      <point x="129.834960938" y="312.0" type="curve" smooth="yes"/>
      <point x="129.834960938" y="1192.0" type="line" smooth="yes"/>
      <point x="129.834960938" y="1227.0"/>
      <point x="121.834960938" y="1230.0"/>
    </contour>
  </outline>
</glyph>
<glyph name="F" format="2">
  <advance width="1150"/>
  <unicode hex="0046"/>
  <anchor x="376.0" y="0.0" name="Anchor-1"/>
  <anchor x="684.0" y="1500.0" name="Anchor-0"/>
  <anchor x="376.0" y="0.0" name="Anchor-2"/>
  <anchor x="684.0" y="1500.0" name="Anchor-0"/>
  <outline>
    <contour>
      <point x="94.0" y="1230.0" type="curve" smooth="yes"/>
      <point x="35.0" y="1230.0" type="line" smooth="yes"/>
      <point x="12.0" y="1230.0"/>
      <point x="10.0" y="1238.0"/>
      <point x="10.0" y="1262.0" type="curve" smooth="yes"/>
      <point x="10.0" y="1474.0" type="line" smooth="yes"/>
      <point x="10.0" y="1499.0"/>
      <point x="19.0" y="1500.0"/>
      <point x="44.0" y="1500.0" type="curve" smooth="yes"/>
      <point x="1104.0" y="1500.0" type="line" smooth="yes"/>
      <point x="1136.0" y="1500.0"/>
      <point x="1140.0" y="1493.0"/>
      <point x="1140.0" y="1460.0" type="curve" smooth="yes"/>
      <point x="1140.0" y="921.0" type="line" smooth="yes"/>
      <point x="1140.0" y="893.0"/>
      <point x="1133.0" y="890.0"/>
      <point x="1104.0" y="890.0" type="curve" smooth="yes"/>
      <point x="956.0" y="890.0" type="line" smooth="yes"/>
      <point x="920.0" y="890.0"/>
      <point x="911.0" y="890.0"/>
      <point x="910.0" y="925.0" type="curve" smooth="yes"/>
      <point x="905.0" y="1135.0"/>
      <point x="902.0" y="1230.0"/>
      <point x="680.0" y="1230.0" type="curve" smooth="yes"/>
      <point x="642.0" y="1230.0" type="line" smooth="yes"/>
      <point x="610.0" y="1230.0"/>
      <point x="600.0" y="1229.0"/>
      <point x="600.0" y="1197.0" type="curve" smooth="yes"/>
      <point x="600.0" y="851.0" type="line" smooth="yes"/>
      <point x="600.0" y="841.0"/>
      <point x="603.0" y="837.0"/>
      <point x="609.0" y="837.0" type="curve" smooth="yes"/>
      <point x="611.0" y="837.0" type="line" smooth="yes"/>
      <point x="654.0" y="837.0"/>
      <point x="661.0" y="929.0"/>
      <point x="669.0" y="1049.0" type="curve" smooth="yes"/>
      <point x="670.0" y="1064.0"/>
      <point x="678.0" y="1066.0"/>
      <point x="694.0" y="1066.0" type="curve" smooth="yes"/>
      <point x="837.0" y="1066.0" type="line" smooth="yes"/>
      <point x="858.0" y="1066.0"/>
      <point x="860.0" y="1058.0"/>
      <point x="860.0" y="1036.0" type="curve" smooth="yes"/>
      <point x="860.0" y="406.0" type="line" smooth="yes"/>
      <point x="860.0" y="382.0"/>
      <point x="854.0" y="376.0"/>
      <point x="828.0" y="376.0" type="curve" smooth="yes"/>
      <point x="708.0" y="376.0" type="line" smooth="yes"/>
      <point x="679.0" y="376.0"/>
      <point x="672.0" y="377.0"/>
      <point x="669.0" y="403.0" type="curve" smooth="yes"/>
      <point x="657.0" y="521.0"/>
      <point x="646.0" y="615.0"/>
      <point x="614.0" y="615.0" type="curve" smooth="yes"/>
      <point x="613.0" y="615.0" type="line" smooth="yes"/>
      <point x="601.0" y="615.0"/>
      <point x="600.0" y="607.0"/>
      <point x="600.0" y="603.0" type="curve" smooth="yes"/>
      <point x="600.0" y="317.0" type="line" smooth="yes"/>
      <point x="600.0" y="277.0"/>
      <point x="605.0" y="270.0"/>
      <point x="647.0" y="270.0" type="curve" smooth="yes"/>
      <point x="723.0" y="270.0" type="line" smooth="yes"/>
      <point x="760.0" y="270.0"/>
      <point x="760.0" y="270.0"/>
      <point x="760.0" y="233.0" type="curve" smooth="yes"/>
      <point x="760.0" y="47.0" type="line" smooth="yes"/>
      <point x="760.0" y="5.0"/>
      <point x="754.0" y="0.0"/>
      <point x="713.0" y="0.0" type="curve" smooth="yes"/>
      <point x="51.0" y="0.0" type="line" smooth="yes"/>
      <point x="18.0" y="0.0"/>
      <point x="10.0" y="3.0"/>
      <point x="10.0" y="35.0" type="curve" smooth="yes"/>
      <point x="10.0" y="241.0" type="line" smooth="yes"/>
      <point x="10.0" y="269.0"/>
      <point x="19.0" y="270.0"/>
      <point x="48.0" y="270.0" type="curve" smooth="yes"/>
      <point x="87.0" y="270.0" type="line" smooth="yes"/>
      <point x="127.0" y="270.0"/>
      <point x="130.0" y="277.0"/>
      <point x="130.0" y="318.0" type="curve" smooth="yes"/>
      <point x="130.0" y="1195.0" type="line" smooth="yes"/>
      <point x="130.0" y="1225.0"/>
      <point x="122.0" y="1230.0"/>
    </contour>
  </outline>
</glyph>
<glyph name="G" format="2">
  <advance width="1310"/>
  <unicode hex="0047"/>
  <anchor x="666.0" y="1500.0" name="Anchor-0"/>
  <anchor x="637.0" y="0.0" name="Anchor-1"/>
  <anchor x="637.0" y="0.0" name="Anchor-2"/>
  <outline>
    <contour>
      <point x="717.0" y="860.0" type="curve" smooth="yes"/>
      <point x="1249.0" y="860.0" type="line" smooth="yes"/>
      <point x="1294.0" y="860.0"/>
      <point x="1300.0" y="855.0"/>
      <point x="1300.0" y="808.0" type="curve" smooth="yes"/>
      <point x="1300.0" y="626.0" type="line" smooth="yes"/>
      <point x="1300.0" y="592.0"/>
      <point x="1292.0" y="590.0"/>
      <point x="1257.0" y="590.0" type="curve" smooth="yes"/>
      <point x="1237.0" y="590.0" type="line" smooth="yes"/>
      <point x="1206.0" y="590.0"/>
      <point x="1200.0" y="586.0"/>
      <point x="1200.0" y="556.0" type="curve" smooth="yes"/>
      <point x="1200.0" y="334.0" type="line" smooth="yes"/>
      <point x="1200.0" y="288.0"/>
      <point x="1189.11035156" y="277.836914062"/>
      <point x="1172.0" y="251.0" type="curve" smooth="yes"/>
      <point x="1077.0" y="102.0"/>
      <point x="1007.0" y="-40.0"/>
      <point x="670.0" y="-40.0" type="curve" smooth="yes"/>
      <point x="174.0" y="-40.0"/>
      <point x="20.0" y="264.0"/>
      <point x="20.0" y="750.0" type="curve" smooth="yes"/>
      <point x="20.0" y="1196.0"/>
      <point x="164.0" y="1540.0"/>
      <point x="620.0" y="1540.0" type="curve" smooth="yes"/>
      <point x="746.0" y="1540.0"/>
      <point x="823.0" y="1454.0"/>
      <point x="837.0" y="1425.0" type="curve" smooth="yes"/>
      <point x="853.526367188" y="1390.76757812"/>
      <point x="868.0" y="1402.0"/>
      <point x="893.0" y="1434.0" type="curve" smooth="yes"/>
      <point x="936.0" y="1492.0" type="line" smooth="yes"/>
      <point x="946.0" y="1505.0"/>
      <point x="958.0" y="1510.0"/>
      <point x="983.0" y="1510.0" type="curve" smooth="yes"/>
      <point x="1133.0" y="1510.0" type="line" smooth="yes"/>
      <point x="1167.0" y="1510.0"/>
      <point x="1180.0" y="1507.0"/>
      <point x="1180.0" y="1474.0" type="curve" smooth="yes"/>
      <point x="1180.0" y="1029.0" type="line" smooth="yes"/>
      <point x="1180.0" y="985.0"/>
      <point x="1179.0" y="970.0"/>
      <point x="1135.0" y="970.0" type="curve" smooth="yes"/>
      <point x="939.0" y="970.0" type="line" smooth="yes"/>
      <point x="882.0" y="970.0"/>
      <point x="885.092773438" y="982.596679688"/>
      <point x="869.0" y="1020.0" type="curve" smooth="yes"/>
      <point x="795.0" y="1192.0"/>
      <point x="780.0" y="1284.0"/>
      <point x="690.0" y="1284.0" type="curve" smooth="yes"/>
      <point x="582.0" y="1284.0"/>
      <point x="540.0" y="1094.0"/>
      <point x="540.0" y="750.0" type="curve" smooth="yes"/>
      <point x="540.0" y="406.0"/>
      <point x="572.0" y="210.0"/>
      <point x="660.0" y="210.0" type="curve" smooth="yes"/>
      <point x="718.0" y="210.0"/>
      <point x="727.0" y="285.0"/>
      <point x="742.0" y="384.0" type="curve" smooth="yes"/>
      <point x="746.563476562" y="414.119140625"/>
      <point x="750.0" y="431.0"/>
      <point x="750.0" y="474.0" type="curve" smooth="yes"/>
      <point x="750.0" y="544.0" type="line" smooth="yes"/>
      <point x="750.0" y="583.0"/>
      <point x="747.0" y="590.0"/>
      <point x="709.0" y="590.0" type="curve" smooth="yes"/>
      <point x="705.0" y="590.0" type="line" smooth="yes"/>
      <point x="659.0" y="590.0"/>
      <point x="660.0" y="610.0"/>
      <point x="660.0" y="652.0" type="curve" smooth="yes"/>
      <point x="660.0" y="810.0" type="line" smooth="yes"/>
      <point x="660.0" y="858.0"/>
      <point x="672.0" y="860.0"/>
    </contour>
  </outline>
</glyph>
<glyph name="H" format="2">
  <advance width="1440"/>
  <unicode hex="0048"/>
  <anchor x="716.0" y="0.0" name="Anchor-1"/>
  <anchor x="721.0" y="1500.0" name="Anchor-0"/>
  <anchor x="716.0" y="0.0" name="Anchor-2"/>
  <anchor x="721.0" y="1500.0" name="Anchor-0"/>
  <outline>
    <contour>
      <point x="600.0" y="1188.0" type="curve" smooth="yes"/>
      <point x="600.0" y="950.0" type="line" smooth="yes"/>
      <point x="600.0" y="901.0"/>
      <point x="612.0" y="900.0"/>
      <point x="662.0" y="900.0" type="curve" smooth="yes"/>
      <point x="787.0" y="900.0" type="line" smooth="yes"/>
      <point x="837.0" y="900.0"/>
      <point x="840.0" y="911.0"/>
      <point x="840.0" y="962.0" type="curve" smooth="yes"/>
      <point x="840.0" y="1196.0" type="line" smooth="yes"/>
      <point x="840.0" y="1228.0"/>
      <point x="838.0" y="1230.0"/>
      <point x="805.0" y="1230.0" type="curve" smooth="yes"/>
      <point x="797.0" y="1230.0" type="line" smooth="yes"/>
      <point x="747.0" y="1230.0"/>
      <point x="740.0" y="1233.0"/>
      <point x="740.0" y="1282.0" type="curve" smooth="yes"/>
      <point x="740.0" y="1439.0" type="line" smooth="yes"/>
      <point x="740.0" y="1493.0"/>
      <point x="748.0" y="1500.0"/>
      <point x="800.0" y="1500.0" type="curve" smooth="yes"/>
      <point x="1370.0" y="1500.0" type="line" smooth="yes"/>
      <point x="1408.0" y="1500.0"/>
      <point x="1430.0" y="1493.0"/>
      <point x="1430.0" y="1451.0" type="curve" smooth="yes"/>
      <point x="1430.0" y="1278.0" type="line" smooth="yes"/>
      <point x="1430.0" y="1239.0"/>
      <point x="1422.0" y="1230.0"/>
      <point x="1380.0" y="1230.0" type="curve" smooth="yes"/>
      <point x="1351.0" y="1230.0" type="line" smooth="yes"/>
      <point x="1313.0" y="1230.0"/>
      <point x="1310.0" y="1218.0"/>
      <point x="1310.0" y="1179.0" type="curve" smooth="yes"/>
      <point x="1310.0" y="320.0" type="line" smooth="yes"/>
      <point x="1310.0" y="282.0"/>
      <point x="1311.0" y="270.0"/>
      <point x="1349.0" y="270.0" type="curve" smooth="yes"/>
      <point x="1379.0" y="270.0" type="line" smooth="yes"/>
      <point x="1424.0" y="270.0"/>
      <point x="1430.0" y="260.0"/>
      <point x="1430.0" y="213.0" type="curve" smooth="yes"/>
      <point x="1430.0" y="81.0" type="line" smooth="yes"/>
      <point x="1430.0" y="8.0"/>
      <point x="1421.0" y="0.0"/>
      <point x="1350.0" y="0.0" type="curve" smooth="yes"/>
      <point x="820.0" y="0.0" type="line" smooth="yes"/>
      <point x="761.0" y="0.0"/>
      <point x="740.0" y="7.0"/>
      <point x="740.0" y="70.0" type="curve" smooth="yes"/>
      <point x="740.0" y="225.0" type="line" smooth="yes"/>
      <point x="740.0" y="263.0"/>
      <point x="753.0" y="270.0"/>
      <point x="789.0" y="270.0" type="curve" smooth="yes"/>
      <point x="798.0" y="270.0" type="line" smooth="yes"/>
      <point x="825.0" y="270.0"/>
      <point x="840.0" y="271.0"/>
      <point x="840.0" y="318.0" type="curve" smooth="yes"/>
      <point x="840.0" y="599.0" type="line" smooth="yes"/>
      <point x="840.0" y="642.0"/>
      <point x="831.0" y="650.0"/>
      <point x="791.0" y="650.0" type="curve" smooth="yes"/>
      <point x="647.0" y="650.0" type="line" smooth="yes"/>
      <point x="606.0" y="650.0"/>
      <point x="600.0" y="640.0"/>
      <point x="600.0" y="597.0" type="curve" smooth="yes"/>
      <point x="600.0" y="329.0" type="line" smooth="yes"/>
      <point x="600.0" y="285.0"/>
      <point x="601.0" y="270.0"/>
      <point x="645.0" y="270.0" type="curve" smooth="yes"/>
      <point x="647.0" y="270.0" type="line" smooth="yes"/>
      <point x="687.0" y="270.0"/>
      <point x="700.0" y="267.0"/>
      <point x="700.0" y="228.0" type="curve" smooth="yes"/>
      <point x="700.0" y="65.0" type="line" smooth="yes"/>
      <point x="700.0" y="6.0"/>
      <point x="674.0" y="0.0"/>
      <point x="620.0" y="0.0" type="curve" smooth="yes"/>
      <point x="80.0" y="0.0" type="line" smooth="yes"/>
      <point x="22.0" y="0.0"/>
      <point x="10.0" y="6.0"/>
      <point x="10.0" y="67.0" type="curve" smooth="yes"/>
      <point x="10.0" y="206.0" type="line" smooth="yes"/>
      <point x="10.0" y="251.0"/>
      <point x="12.0" y="270.0"/>
      <point x="57.0" y="270.0" type="curve" smooth="yes"/>
      <point x="65.0" y="270.0" type="line" smooth="yes"/>
      <point x="114.0" y="270.0"/>
      <point x="130.0" y="271.0"/>
      <point x="130.0" y="320.0" type="curve" smooth="yes"/>
      <point x="130.0" y="1184.0" type="line" smooth="yes"/>
      <point x="130.0" y="1225.0"/>
      <point x="119.0" y="1230.0"/>
      <point x="76.0" y="1230.0" type="curve" smooth="yes"/>
      <point x="75.0" y="1230.0" type="line" smooth="yes"/>
      <point x="23.0" y="1230.0"/>
      <point x="10.0" y="1235.0"/>
      <point x="10.0" y="1290.0" type="curve" smooth="yes"/>
      <point x="10.0" y="1444.0" type="line" smooth="yes"/>
      <point x="10.0" y="1493.0"/>
      <point x="35.0" y="1500.0"/>
      <point x="80.0" y="1500.0" type="curve" smooth="yes"/>
      <point x="620.0" y="1500.0" type="line" smooth="yes"/>
      <point x="677.0" y="1500.0"/>
      <point x="700.0" y="1494.0"/>
      <point x="700.0" y="1432.0" type="curve" smooth="yes"/>
      <point x="700.0" y="1278.0" type="line" smooth="yes"/>
      <point x="700.0" y="1235.0"/>
      <point x="694.0" y="1230.0"/>
      <point x="653.0" y="1230.0" type="curve" smooth="yes"/>
      <point x="643.0" y="1230.0" type="line" smooth="yes"/>
      <point x="607.0" y="1230.0"/>
      <point x="600.0" y="1225.0"/>
    </contour>
  </outline>
</glyph>
<glyph name="I" format="2">
  <advance width="770"/>
  <unicode hex="0049"/>
  <anchor x="378.0" y="0.0" name="Anchor-2"/>
  <anchor x="378.0" y="0.0" name="Anchor-1"/>
  <anchor x="382.0" y="1500.0" name="Anchor-0"/>
  <anchor x="378.0" y="0.0" name="Anchor-3"/>
  <anchor x="378.0" y="0.0" name="Anchor-2"/>
  <anchor x="382.0" y="1500.0" name="Anchor-0"/>
  <outline>
    <contour>
      <point x="620.0" y="1178.0" type="curve" smooth="yes"/>
      <point x="620.0" y="314.0" type="line" smooth="yes"/>
      <point x="620.0" y="271.0"/>
      <point x="630.0" y="270.0"/>
      <point x="674.0" y="270.0" type="curve" smooth="yes"/>
      <point x="712.0" y="270.0" type="line" smooth="yes"/>
      <point x="745.0" y="270.0"/>
      <point x="760.0" y="269.0"/>
      <point x="760.0" y="236.0" type="curve" smooth="yes"/>
      <point x="760.0" y="50.0" type="line" smooth="yes"/>
      <point x="760.0" y="5.0"/>
      <point x="754.0" y="0.0"/>
      <point x="710.0" y="0.0" type="curve" smooth="yes"/>
      <point x="60.0" y="0.0" type="line" smooth="yes"/>
      <point x="14.0" y="0.0"/>
      <point x="10.0" y="9.0"/>
      <point x="10.0" y="56.0" type="curve" smooth="yes"/>
      <point x="10.0" y="221.0" type="line" smooth="yes"/>
      <point x="10.0" y="266.0"/>
      <point x="23.0" y="270.0"/>
      <point x="65.0" y="270.0" type="curve" smooth="yes"/>
      <point x="103.0" y="270.0" type="line" smooth="yes"/>
      <point x="141.0" y="270.0"/>
      <point x="150.0" y="276.0"/>
      <point x="150.0" y="317.0" type="curve" smooth="yes"/>
      <point x="150.0" y="1176.0" type="line" smooth="yes"/>
      <point x="150.0" y="1219.0"/>
      <point x="148.0" y="1230.0"/>
      <point x="105.0" y="1230.0" type="curve" smooth="yes"/>
      <point x="63.0" y="1230.0" type="line" smooth="yes"/>
      <point x="22.0" y="1230.0"/>
      <point x="10.0" y="1234.0"/>
      <point x="10.0" y="1278.0" type="curve" smooth="yes"/>
      <point x="10.0" y="1443.0" type="line" smooth="yes"/>
      <point x="10.0" y="1491.0"/>
      <point x="12.0" y="1500.0"/>
      <point x="60.0" y="1500.0" type="curve" smooth="yes"/>
      <point x="706.0" y="1500.0" type="line" smooth="yes"/>
      <point x="754.0" y="1500.0"/>
      <point x="760.0" y="1489.0"/>
      <point x="760.0" y="1444.0" type="curve" smooth="yes"/>
      <point x="760.0" y="1284.0" type="line" smooth="yes"/>
      <point x="760.0" y="1236.0"/>
      <point x="753.0" y="1230.0"/>
      <point x="707.0" y="1230.0" type="curve" smooth="yes"/>
      <point x="670.0" y="1230.0" type="line" smooth="yes"/>
      <point x="626.0" y="1230.0"/>
      <point x="620.0" y="1220.0"/>
    </contour>
  </outline>
</glyph>
<glyph name="J" format="2">
  <advance width="1112"/>
  <unicode hex="004A"/>
  <anchor x="636.0" y="1500.0" name="Anchor-0"/>
  <anchor x="448.0" y="0.0" name="Anchor-1"/>
  <anchor x="448.0" y="0.0" name="Anchor-2"/>
  <outline>
    <contour>
      <point x="0.0" y="390.0" type="curve" smooth="yes"/>
      <point x="0.0" y="594.0"/>
      <point x="88.0" y="740.0"/>
      <point x="268.0" y="740.0" type="curve" smooth="yes"/>
      <point x="422.0" y="740.0"/>
      <point x="496.0" y="648.0"/>
      <point x="496.0" y="522.0" type="curve" smooth="yes"/>
      <point x="496.0" y="342.0"/>
      <point x="390.0" y="304.0"/>
      <point x="390.0" y="248.0" type="curve" smooth="yes"/>
      <point x="390.0" y="214.0"/>
      <point x="418.0" y="190.0"/>
      <point x="452.0" y="190.0" type="curve" smooth="yes"/>
      <point x="504.0" y="190.0"/>
      <point x="522.0" y="260.0"/>
      <point x="522.0" y="480.0" type="curve" smooth="yes"/>
      <point x="522.0" y="1172.0" type="line" smooth="yes"/>
      <point x="522.0" y="1228.0"/>
      <point x="509.0" y="1230.0"/>
      <point x="453.0" y="1230.0" type="curve" smooth="yes"/>
      <point x="360.0" y="1230.0" type="line" smooth="yes"/>
      <point x="316.0" y="1230.0"/>
      <point x="302.0" y="1231.0"/>
      <point x="302.0" y="1278.0" type="curve" smooth="yes"/>
      <point x="302.0" y="1442.0" type="line" smooth="yes"/>
      <point x="302.0" y="1491.0"/>
      <point x="303.0" y="1500.0"/>
      <point x="352.0" y="1500.0" type="curve" smooth="yes"/>
      <point x="1062.0" y="1500.0" type="line" smooth="yes"/>
      <point x="1104.0" y="1500.0"/>
      <point x="1112.0" y="1493.0"/>
      <point x="1112.0" y="1449.0" type="curve" smooth="yes"/>
      <point x="1112.0" y="1272.0" type="line" smooth="yes"/>
      <point x="1112.0" y="1231.0"/>
      <point x="1100.0" y="1230.0"/>
      <point x="1059.0" y="1230.0" type="curve" smooth="yes"/>
      <point x="1010.0" y="1230.0" type="line" smooth="yes"/>
      <point x="975.0" y="1230.0"/>
      <point x="972.0" y="1217.0"/>
      <point x="972.0" y="1181.0" type="curve" smooth="yes"/>
      <point x="972.0" y="540.0" type="line" smooth="yes"/>
      <point x="972.0" y="160.0"/>
      <point x="794.0" y="-40.0"/>
      <point x="432.0" y="-40.0" type="curve" smooth="yes"/>
      <point x="118.0" y="-40.0"/>
      <point x="0.0" y="170.0"/>
    </contour>
  </outline>
</glyph>
<glyph name="K" format="2">
  <advance width="1510"/>
  <unicode hex="004B"/>
  <anchor x="856.0" y="1500.0" name="Anchor-0"/>
  <anchor x="730.0" y="0.0" name="Anchor-1"/>
  <anchor x="730.0" y="0.0" name="Anchor-2"/>
  <outline>
    <contour>
      <point x="10.0" y="54.0" type="curve" smooth="yes"/>
      <point x="10.0" y="224.0" type="line" smooth="yes"/>
      <point x="10.0" y="262.0"/>
      <point x="15.0" y="270.0"/>
      <point x="52.0" y="270.0" type="curve" smooth="yes"/>
      <point x="78.0" y="270.0" type="line" smooth="yes"/>
      <point x="126.0" y="270.0"/>
      <point x="130.0" y="278.0"/>
      <point x="130.0" y="324.0" type="curve" smooth="yes"/>
      <point x="130.0" y="1194.0" type="line" smooth="yes"/>
      <point x="130.0" y="1229.0"/>
      <point x="118.0" y="1230.0"/>
      <point x="83.0" y="1230.0" type="curve" smooth="yes"/>
      <point x="50.0" y="1230.0" type="line" smooth="yes"/>
      <point x="11.0" y="1230.0"/>
      <point x="10.0" y="1242.0"/>
      <point x="10.0" y="1281.0" type="curve" smooth="yes"/>
      <point x="10.0" y="1454.0" type="line" smooth="yes"/>
      <point x="10.0" y="1495.0"/>
      <point x="24.0" y="1500.0"/>
      <point x="62.0" y="1500.0" type="curve" smooth="yes"/>
      <point x="690.0" y="1500.0" type="line" smooth="yes"/>
      <point x="726.0" y="1500.0"/>
      <point x="740.0" y="1495.0"/>
      <point x="740.0" y="1456.0" type="curve" smooth="yes"/>
      <point x="740.0" y="1290.0" type="line" smooth="yes"/>
      <point x="740.0" y="1241.0"/>
      <point x="736.0" y="1230.0"/>
      <point x="688.0" y="1230.0" type="curve" smooth="yes"/>
      <point x="648.0" y="1230.0" type="line" smooth="yes"/>
      <point x="608.0" y="1230.0"/>
      <point x="600.0" y="1222.0"/>
      <point x="600.0" y="1180.0" type="curve" smooth="yes"/>
      <point x="600.0" y="942.0" type="line" smooth="yes"/>
      <point x="600.0" y="870.0"/>
      <point x="634.4375" y="865.517578125"/>
      <point x="652.0" y="896.0" type="curve" smooth="yes"/>
      <point x="846.0" y="1198.0" type="line" smooth="yes"/>
      <point x="861.787109375" y="1225.40039062"/>
      <point x="862.0" y="1230.0"/>
      <point x="830.0" y="1230.0" type="curve" smooth="yes"/>
      <point x="823.0" y="1230.0" type="line" smooth="yes"/>
      <point x="771.0" y="1230.0"/>
      <point x="770.0" y="1232.0"/>
      <point x="770.0" y="1284.0" type="curve" smooth="yes"/>
      <point x="770.0" y="1458.0" type="line" smooth="yes"/>
      <point x="770.0" y="1490.0"/>
      <point x="775.0" y="1500.0"/>
      <point x="806.0" y="1500.0" type="curve" smooth="yes"/>
      <point x="1408.0" y="1500.0" type="line" smooth="yes"/>
      <point x="1439.0" y="1500.0"/>
      <point x="1440.0" y="1481.0"/>
      <point x="1440.0" y="1450.0" type="curve" smooth="yes"/>
      <point x="1440.0" y="1287.0" type="line" smooth="yes"/>
      <point x="1440.0" y="1242.0"/>
      <point x="1439.0" y="1230.0"/>
      <point x="1394.0" y="1230.0" type="curve" smooth="yes"/>
      <point x="1334.0" y="1230.0" type="line" smooth="yes"/>
      <point x="1277.0" y="1230.0"/>
      <point x="1274.96777344" y="1221.10839844"/>
      <point x="1258.0" y="1190.0" type="curve" smooth="yes"/>
      <point x="1122.0" y="989.0" type="line" smooth="yes"/>
      <point x="1098.95507812" y="946.751953125"/>
      <point x="1090.52441406" y="930.104492188"/>
      <point x="1107.0" y="880.0" type="curve" smooth="yes"/>
      <point x="1346.0" y="314.0" type="line" smooth="yes"/>
      <point x="1373.0" y="276.0"/>
      <point x="1379.0" y="270.0"/>
      <point x="1446.0" y="270.0" type="curve" smooth="yes"/>
      <point x="1460.0" y="270.0" type="line" smooth="yes"/>
      <point x="1490.0" y="270.0"/>
      <point x="1500.0" y="263.0"/>
      <point x="1500.0" y="231.0" type="curve" smooth="yes"/>
      <point x="1500.0" y="40.0" type="line" smooth="yes"/>
      <point x="1500.0" y="5.0"/>
      <point x="1484.0" y="0.0"/>
      <point x="1448.0" y="0.0" type="curve" smooth="yes"/>
      <point x="802.0" y="0.0" type="line" smooth="yes"/>
      <point x="765.0" y="0.0"/>
      <point x="760.0" y="8.0"/>
      <point x="760.0" y="46.0" type="curve" smooth="yes"/>
      <point x="760.0" y="223.0" type="line" smooth="yes"/>
      <point x="760.0" y="266.0"/>
      <point x="769.0" y="270.0"/>
      <point x="808.0" y="270.0" type="curve" smooth="yes"/>
      <point x="812.0" y="270.0" type="line" smooth="yes"/>
      <point x="866.0" y="270.0"/>
      <point x="860.380859375" y="293.75390625"/>
      <point x="860.0" y="321.0" type="curve" smooth="yes"/>
      <point x="764.0" y="580.0" type="line" smooth="yes"/>
      <point x="751.440429688" y="613.884765625"/>
      <point x="728.1171875" y="613.919921875"/>
      <point x="704.0" y="582.0" type="curve" smooth="yes"/>
      <point x="636.0" y="472.0" type="line" smooth="yes"/>
      <point x="619.224609375" y="444.39453125"/>
      <point x="600.0" y="427.0"/>
      <point x="600.0" y="376.0" type="curve" smooth="yes"/>
      <point x="600.0" y="310.0" type="line" smooth="yes"/>
      <point x="600.0" y="273.0"/>
      <point x="608.0" y="270.0"/>
      <point x="646.0" y="270.0" type="curve" smooth="yes"/>
      <point x="680.0" y="270.0" type="line" smooth="yes"/>
      <point x="715.0" y="270.0"/>
      <point x="720.0" y="262.0"/>
      <point x="720.0" y="226.0" type="curve" smooth="yes"/>
      <point x="720.0" y="56.0" type="line" smooth="yes"/>
      <point x="720.0" y="5.0"/>
      <point x="708.0" y="0.0"/>
      <point x="660.0" y="0.0" type="curve" smooth="yes"/>
      <point x="56.0" y="0.0" type="line" smooth="yes"/>
      <point x="12.0" y="0.0"/>
      <point x="10.0" y="10.0"/>
    </contour>
  </outline>
</glyph>
<glyph name="L" format="2">
  <advance width="1100"/>
  <unicode hex="004C"/>
  <anchor x="879.0" y="943.0" name="Anchor-3"/>
  <anchor x="646.0" y="0.0" name="Anchor-1"/>
  <anchor x="304.0" y="1500.0" name="Anchor-0"/>
  <anchor x="646.0" y="0.0" name="Anchor-2"/>
  <anchor x="879.0" y="943.0" name="Anchor-1"/>
  <anchor x="304.0" y="1500.0" name="Anchor-0"/>
  <outline>
    <contour>
      <point x="87.0" y="1230.0" type="curve" smooth="yes"/>
      <point x="45.0" y="1230.0" type="line" smooth="yes"/>
      <point x="15.0" y="1230.0"/>
      <point x="10.0" y="1236.0"/>
      <point x="10.0" y="1268.0" type="curve" smooth="yes"/>
      <point x="10.0" y="1446.0" type="line" smooth="yes"/>
      <point x="10.0" y="1491.0"/>
      <point x="12.0" y="1500.0"/>
      <point x="57.0" y="1500.0" type="curve" smooth="yes"/>
      <point x="711.0" y="1500.0" type="line" smooth="yes"/>
      <point x="751.0" y="1500.0"/>
      <point x="760.0" y="1495.0"/>
      <point x="760.0" y="1452.0" type="curve" smooth="yes"/>
      <point x="760.0" y="1278.0" type="line" smooth="yes"/>
      <point x="760.0" y="1234.0"/>
      <point x="748.0" y="1230.0"/>
      <point x="707.0" y="1230.0" type="curve" smooth="yes"/>
      <point x="649.0" y="1230.0" type="line" smooth="yes"/>
      <point x="610.0" y="1230.0"/>
      <point x="600.0" y="1229.0"/>
      <point x="600.0" y="1190.0" type="curve" smooth="yes"/>
      <point x="600.0" y="326.0" type="line" smooth="yes"/>
      <point x="600.0" y="279.0"/>
      <point x="602.0" y="270.0"/>
      <point x="649.0" y="270.0" type="curve" smooth="yes"/>
      <point x="670.0" y="270.0" type="line" smooth="yes"/>
      <point x="793.0" y="270.0"/>
      <point x="818.0" y="348.0"/>
      <point x="829.0" y="646.0" type="curve" smooth="yes"/>
      <point x="831.0" y="687.0"/>
      <point x="828.0" y="690.0"/>
      <point x="871.0" y="690.0" type="curve" smooth="yes"/>
      <point x="1029.0" y="690.0" type="line" smooth="yes"/>
      <point x="1062.0" y="690.0"/>
      <point x="1070.0" y="686.0"/>
      <point x="1070.0" y="654.0" type="curve" smooth="yes"/>
      <point x="1070.0" y="52.0" type="line" smooth="yes"/>
      <point x="1070.0" y="9.0"/>
      <point x="1067.0" y="0.0"/>
      <point x="1025.0" y="0.0" type="curve" smooth="yes"/>
      <point x="55.0" y="0.0" type="line" smooth="yes"/>
      <point x="15.0" y="0.0"/>
      <point x="10.0" y="6.0"/>
      <point x="10.0" y="48.0" type="curve" smooth="yes"/>
      <point x="10.0" y="234.0" type="line" smooth="yes"/>
      <point x="10.0" y="261.0"/>
      <point x="13.0" y="270.0"/>
      <point x="39.0" y="270.0" type="curve" smooth="yes"/>
      <point x="77.0" y="270.0" type="line" smooth="yes"/>
      <point x="121.0" y="270.0"/>
      <point x="130.0" y="277.0"/>
      <point x="130.0" y="323.0" type="curve" smooth="yes"/>
      <point x="130.0" y="1180.0" type="line" smooth="yes"/>
      <point x="130.0" y="1221.0"/>
      <point x="127.0" y="1230.0"/>
    </contour>
  </outline>
</glyph>
<glyph name="M" format="2">
  <advance width="1830"/>
  <unicode hex="004D"/>
  <anchor x="946.0" y="1500.0" name="Anchor-0"/>
  <anchor x="845.0" y="0.0" name="Anchor-1"/>
  <anchor x="845.0" y="0.0" name="Anchor-2"/>
  <outline>
    <contour>
      <point x="142.0" y="1230.0" type="curve" smooth="yes"/>
      <point x="128.0" y="1230.0" type="line" smooth="yes"/>
      <point x="81.0" y="1230.0"/>
      <point x="80.0" y="1229.0"/>
      <point x="80.0" y="1277.0" type="curve" smooth="yes"/>
      <point x="80.0" y="1469.0" type="line" smooth="yes"/>
      <point x="80.0" y="1510.0"/>
      <point x="98.0" y="1500.0"/>
      <point x="136.0" y="1500.0" type="curve" smooth="yes"/>
      <point x="766.0" y="1500.0" type="line" smooth="yes"/>
      <point x="845.0" y="1500.0"/>
      <point x="836.0" y="1473.0"/>
      <point x="855.0" y="1417.0" type="curve" smooth="yes"/>
      <point x="916.0" y="989.0" type="line" smooth="yes"/>
      <point x="920.465820312" y="923.866210938"/>
      <point x="928.0" y="853.0"/>
      <point x="948.0" y="853.0" type="curve" smooth="yes"/>
      <point x="970.0" y="853.0"/>
      <point x="982.27734375" y="886.606445312"/>
      <point x="996.0" y="957.0" type="curve" smooth="yes"/>
      <point x="1087.0" y="1459.0" type="line" smooth="yes"/>
      <point x="1101.0" y="1496.0"/>
      <point x="1102.0" y="1500.0"/>
      <point x="1154.0" y="1500.0" type="curve" smooth="yes"/>
      <point x="1700.0" y="1500.0" type="line" smooth="yes"/>
      <point x="1751.0" y="1500.0"/>
      <point x="1770.0" y="1512.0"/>
      <point x="1770.0" y="1457.0" type="curve" smooth="yes"/>
      <point x="1770.0" y="1281.0" type="line" smooth="yes"/>
      <point x="1770.0" y="1232.0"/>
      <point x="1772.0" y="1230.0"/>
      <point x="1722.0" y="1230.0" type="curve" smooth="yes"/>
      <point x="1700.0" y="1230.0" type="line" smooth="yes"/>
      <point x="1657.0" y="1230.0"/>
      <point x="1659.0" y="1228.0"/>
      <point x="1660.0" y="1187.0" type="curve" smooth="yes"/>
      <point x="1690.0" y="311.0" type="line" smooth="yes"/>
      <point x="1691.0" y="276.0"/>
      <point x="1686.0" y="270.0"/>
      <point x="1724.0" y="270.0" type="curve" smooth="yes"/>
      <point x="1784.0" y="270.0" type="line" smooth="yes"/>
      <point x="1817.0" y="270.0"/>
      <point x="1820.0" y="263.0"/>
      <point x="1820.0" y="229.0" type="curve" smooth="yes"/>
      <point x="1820.0" y="55.0" type="line" smooth="yes"/>
      <point x="1820.0" y="12.0"/>
      <point x="1818.0" y="0.0"/>
      <point x="1772.0" y="0.0" type="curve" smooth="yes"/>
      <point x="1196.0" y="0.0" type="line" smooth="yes"/>
      <point x="1152.0" y="0.0"/>
      <point x="1150.0" y="8.0"/>
      <point x="1150.0" y="53.0" type="curve" smooth="yes"/>
      <point x="1150.0" y="223.0" type="line" smooth="yes"/>
      <point x="1150.0" y="268.0"/>
      <point x="1162.0" y="270.0"/>
      <point x="1204.0" y="270.0" type="curve" smooth="yes"/>
      <point x="1210.0" y="270.0" type="line" smooth="yes"/>
      <point x="1252.0" y="270.0"/>
      <point x="1263.0" y="280.0"/>
      <point x="1262.0" y="322.0" type="curve" smooth="yes"/>
      <point x="1250.0" y="683.0" type="line" smooth="yes"/>
      <point x="1246.0" y="822.0"/>
      <point x="1277.0" y="957.0"/>
      <point x="1240.0" y="957.0" type="curve" smooth="yes"/>
      <point x="1215.0" y="957.0"/>
      <point x="1222.15527344" y="925.520507812"/>
      <point x="1204.0" y="833.0" type="curve" smooth="yes"/>
      <point x="1027.0" y="21.0" type="line" smooth="yes"/>
      <point x="1012.0" y="-22.0"/>
      <point x="1005.0" y="-30.0"/>
      <point x="946.0" y="-30.0" type="curve" smooth="yes"/>
      <point x="706.0" y="-30.0" type="line" smooth="yes"/>
      <point x="647.0" y="-30.0"/>
      <point x="639.0" y="-22.0"/>
      <point x="624.0" y="21.0" type="curve" smooth="yes"/>
      <point x="507.0" y="887.0" type="line" smooth="yes"/>
      <point x="491.283104117" y="963.897354998"/>
      <point x="492.0" y="1097.0"/>
      <point x="466.0" y="1097.0" type="curve" smooth="yes"/>
      <point x="449.0" y="1097.0"/>
      <point x="450.0" y="1063.0"/>
      <point x="446.0" y="973.0" type="curve" smooth="yes"/>
      <point x="416.0" y="341.0" type="line" smooth="yes"/>
      <point x="414.0" y="293.0"/>
      <point x="409.0" y="270.0"/>
      <point x="464.0" y="270.0" type="curve" smooth="yes"/>
      <point x="496.0" y="270.0" type="line" smooth="yes"/>
      <point x="533.0" y="270.0"/>
      <point x="540.0" y="263.0"/>
      <point x="540.0" y="225.0" type="curve" smooth="yes"/>
      <point x="540.0" y="51.0" type="line" smooth="yes"/>
      <point x="540.0" y="2.0"/>
      <point x="528.0" y="0.0"/>
      <point x="482.0" y="0.0" type="curve" smooth="yes"/>
      <point x="62.0" y="0.0" type="line" smooth="yes"/>
      <point x="15.0" y="0.0"/>
      <point x="10.0" y="6.0"/>
      <point x="10.0" y="55.0" type="curve" smooth="yes"/>
      <point x="10.0" y="235.0" type="line" smooth="yes"/>
      <point x="10.0" y="263.0"/>
      <point x="13.0" y="270.0"/>
      <point x="40.0" y="270.0" type="curve" smooth="yes"/>
      <point x="98.0" y="270.0" type="line" smooth="yes"/>
      <point x="158.0" y="270.0"/>
      <point x="145.0" y="294.0"/>
      <point x="148.0" y="347.0" type="curve" smooth="yes"/>
      <point x="194.0" y="1195.0" type="line" smooth="yes"/>
      <point x="196.0" y="1238.0"/>
      <point x="184.0" y="1230.0"/>
    </contour>
  </outline>
</glyph>
<glyph name="N" format="2">
  <advance width="1250"/>
  <unicode hex="004E"/>
  <anchor x="806.0" y="1500.0" name="Anchor-0"/>
  <anchor x="606.0" y="0.0" name="Anchor-1"/>
  <anchor x="606.0" y="0.0" name="Anchor-2"/>
  <outline>
    <contour>
      <point x="69.0" y="1230.0" type="curve" smooth="yes"/>
      <point x="55.0" y="1230.0" type="line" smooth="yes"/>
      <point x="20.0" y="1230.0"/>
      <point x="10.0" y="1233.0"/>
      <point x="10.0" y="1267.0" type="curve" smooth="yes"/>
      <point x="10.0" y="1436.0" type="line" smooth="yes"/>
      <point x="10.0" y="1494.0"/>
      <point x="19.0" y="1500.0"/>
      <point x="75.0" y="1500.0" type="curve" smooth="yes"/>
      <point x="457.0" y="1500.0" type="line" smooth="yes"/>
      <point x="530.0" y="1500.0"/>
      <point x="545.0" y="1495.0"/>
      <point x="578.0" y="1459.0" type="curve" smooth="yes"/>
      <point x="820.0" y="899.0" type="line" smooth="yes"/>
      <point x="834.78125" y="858.686523438"/>
      <point x="860.0" y="838.0"/>
      <point x="860.0" y="927.0" type="curve" smooth="yes"/>
      <point x="860.0" y="1191.0" type="line" smooth="yes"/>
      <point x="860.0" y="1220.0"/>
      <point x="857.0" y="1230.0"/>
      <point x="829.0" y="1230.0" type="curve" smooth="yes"/>
      <point x="785.0" y="1230.0" type="line" smooth="yes"/>
      <point x="741.0" y="1230.0"/>
      <point x="740.0" y="1241.0"/>
      <point x="740.0" y="1285.0" type="curve" smooth="yes"/>
      <point x="740.0" y="1449.0" type="line" smooth="yes"/>
      <point x="740.0" y="1497.0"/>
      <point x="754.0" y="1500.0"/>
      <point x="799.0" y="1500.0" type="curve" smooth="yes"/>
      <point x="1203.0" y="1500.0" type="line" smooth="yes"/>
      <point x="1230.0" y="1500.0"/>
      <point x="1240.0" y="1494.0"/>
      <point x="1240.0" y="1465.0" type="curve" smooth="yes"/>
      <point x="1240.0" y="1293.0" type="line" smooth="yes"/>
      <point x="1240.0" y="1234.0"/>
      <point x="1231.0" y="1230.0"/>
      <point x="1191.0" y="1230.0" type="curve" smooth="yes"/>
      <point x="1175.0" y="1230.0" type="line" smooth="yes"/>
      <point x="1138.0" y="1230.0"/>
      <point x="1130.0" y="1217.0"/>
      <point x="1130.0" y="1181.0" type="curve" smooth="yes"/>
      <point x="1130.0" y="10.0" type="line" smooth="yes"/>
      <point x="1130.0" y="-27.0"/>
      <point x="1121.0" y="-30.0"/>
      <point x="1083.0" y="-30.0" type="curve" smooth="yes"/>
      <point x="790.0" y="-30.0" type="line" smooth="yes"/>
      <point x="730.0" y="-30.0"/>
      <point x="716.0" y="-13.0"/>
      <point x="689.0" y="17.0" type="curve" smooth="yes"/>
      <point x="439.0" y="693.0" type="line" smooth="yes"/>
      <point x="405.0" y="732.0"/>
      <point x="390.0" y="724.0"/>
      <point x="390.0" y="631.0" type="curve" smooth="yes"/>
      <point x="390.0" y="325.0" type="line" smooth="yes"/>
      <point x="390.0" y="278.0"/>
      <point x="395.0" y="270.0"/>
      <point x="441.0" y="270.0" type="curve" smooth="yes"/>
      <point x="485.0" y="270.0" type="line" smooth="yes"/>
      <point x="513.0" y="270.0"/>
      <point x="520.0" y="262.0"/>
      <point x="520.0" y="232.0" type="curve" smooth="yes"/>
      <point x="520.0" y="50.0" type="line" smooth="yes"/>
      <point x="520.0" y="1.0"/>
      <point x="493.0" y="0.0"/>
      <point x="449.0" y="0.0" type="curve" smooth="yes"/>
      <point x="77.0" y="0.0" type="line" smooth="yes"/>
      <point x="19.0" y="0.0"/>
      <point x="10.0" y="5.0"/>
      <point x="10.0" y="65.0" type="curve" smooth="yes"/>
      <point x="10.0" y="219.0" type="line" smooth="yes"/>
      <point x="10.0" y="269.0"/>
      <point x="21.0" y="270.0"/>
      <point x="71.0" y="270.0" type="curve" smooth="yes"/>
      <point x="69.0" y="270.0" type="line" smooth="yes"/>
      <point x="115.0" y="270.0"/>
      <point x="120.0" y="279.0"/>
      <point x="120.0" y="326.0" type="curve" smooth="yes"/>
      <point x="120.0" y="1179.0" type="line" smooth="yes"/>
      <point x="120.0" y="1230.0"/>
      <point x="120.0" y="1230.0"/>
    </contour>
  </outline>
</glyph>
<glyph name="O" format="2">
  <advance width="1240"/>
  <unicode hex="004F"/>
  <anchor x="616.0" y="0.0" name="Anchor-1"/>
  <anchor x="616.0" y="1500.0" name="Anchor-0"/>
  <anchor x="616.0" y="0.0" name="Anchor-2"/>
  <anchor x="616.0" y="1500.0" name="Anchor-0"/>
  <outline>
    <contour>
      <point x="30.0" y="750.0" type="curve" smooth="yes"/>
      <point x="30.0" y="1316.0"/>
      <point x="164.0" y="1540.0"/>
      <point x="620.0" y="1540.0" type="curve" smooth="yes"/>
      <point x="1076.0" y="1540.0"/>
      <point x="1210.0" y="1316.0"/>
      <point x="1210.0" y="750.0" type="curve" smooth="yes"/>
      <point x="1210.0" y="184.0"/>
      <point x="1056.0" y="-40.0"/>
      <point x="620.0" y="-40.0" type="curve" smooth="yes"/>
      <point x="164.0" y="-40.0"/>
      <point x="30.0" y="184.0"/>
    </contour>
    <contour>
      <point x="515.0" y="750.0" type="curve" smooth="yes"/>
      <point x="515.0" y="326.0"/>
      <point x="542.0" y="220.0"/>
      <point x="620.0" y="220.0" type="curve" smooth="yes"/>
      <point x="718.0" y="220.0"/>
      <point x="725.0" y="326.0"/>
      <point x="725.0" y="750.0" type="curve" smooth="yes"/>
      <point x="725.0" y="1174.0"/>
      <point x="698.0" y="1280.0"/>
      <point x="620.0" y="1280.0" type="curve" smooth="yes"/>
      <point x="542.0" y="1280.0"/>
      <point x="515.0" y="1174.0"/>
    </contour>
  </outline>
</glyph>
<glyph name="P" format="2">
  <advance width="1230"/>
  <unicode hex="0050"/>
  <anchor x="606.0" y="1500.0" name="Anchor-0"/>
  <anchor x="322.0" y="0.0" name="Anchor-1"/>
  <anchor x="322.0" y="0.0" name="Anchor-2"/>
  <outline>
    <contour>
      <point x="74.0" y="1230.0" type="curve" smooth="yes"/>
      <point x="64.0" y="1230.0" type="line" smooth="yes"/>
      <point x="18.0" y="1230.0"/>
      <point x="10.0" y="1232.0"/>
      <point x="10.0" y="1278.0" type="curve" smooth="yes"/>
      <point x="10.0" y="1448.0" type="line" smooth="yes"/>
      <point x="10.0" y="1496.0"/>
      <point x="21.0" y="1500.0"/>
      <point x="66.0" y="1500.0" type="curve" smooth="yes"/>
      <point x="680.0" y="1500.0" type="line" smooth="yes"/>
      <point x="1042.0" y="1500.0"/>
      <point x="1220.0" y="1380.0"/>
      <point x="1220.0" y="1040.0" type="curve" smooth="yes"/>
      <point x="1220.0" y="700.0"/>
      <point x="1042.0" y="560.0"/>
      <point x="680.0" y="560.0" type="curve" smooth="yes"/>
      <point x="644.0" y="560.0" type="line" smooth="yes"/>
      <point x="601.0" y="560.0"/>
      <point x="600.0" y="551.0"/>
      <point x="600.0" y="508.0" type="curve" smooth="yes"/>
      <point x="600.0" y="318.0" type="line" smooth="yes"/>
      <point x="600.0" y="274.0"/>
      <point x="607.0" y="270.0"/>
      <point x="652.0" y="270.0" type="curve" smooth="yes"/>
      <point x="716.0" y="270.0" type="line" smooth="yes"/>
      <point x="758.0" y="270.0"/>
      <point x="760.0" y="262.0"/>
      <point x="760.0" y="220.0" type="curve" smooth="yes"/>
      <point x="760.0" y="56.0" type="line" smooth="yes"/>
      <point x="760.0" y="10.0"/>
      <point x="760.0" y="0.0"/>
      <point x="714.0" y="0.0" type="curve" smooth="yes"/>
      <point x="58.0" y="0.0" type="line" smooth="yes"/>
      <point x="18.0" y="0.0"/>
      <point x="10.0" y="4.0"/>
      <point x="10.0" y="46.0" type="curve" smooth="yes"/>
      <point x="10.0" y="220.0" type="line" smooth="yes"/>
      <point x="10.0" y="263.0"/>
      <point x="14.0" y="270.0"/>
      <point x="56.0" y="270.0" type="curve" smooth="yes"/>
      <point x="72.0" y="270.0" type="line" smooth="yes"/>
      <point x="128.0" y="270.0"/>
      <point x="130.0" y="280.0"/>
      <point x="130.0" y="334.0" type="curve" smooth="yes"/>
      <point x="130.0" y="1182.0" type="line" smooth="yes"/>
      <point x="130.0" y="1229.0"/>
      <point x="121.0" y="1230.0"/>
    </contour>
    <contour>
      <point x="632.0" y="830.0" type="curve" smooth="yes"/>
      <point x="650.0" y="830.0" type="line" smooth="yes"/>
      <point x="702.0" y="830.0"/>
      <point x="720.0" y="902.0"/>
      <point x="720.0" y="1040.0" type="curve" smooth="yes"/>
      <point x="720.0" y="1178.0"/>
      <point x="702.0" y="1230.0"/>
      <point x="650.0" y="1230.0" type="curve" smooth="yes"/>
      <point x="626.0" y="1230.0" type="line" smooth="yes"/>
      <point x="591.0" y="1230.0"/>
      <point x="600.0" y="1221.0"/>
      <point x="600.0" y="1186.0" type="curve" smooth="yes"/>
      <point x="600.0" y="874.0" type="line" smooth="yes"/>
      <point x="600.0" y="836.0"/>
      <point x="595.0" y="830.0"/>
    </contour>
  </outline>
</glyph>
<glyph name="Q" format="2">
  <advance width="1240"/>
  <unicode hex="0051"/>
  <anchor x="666.0" y="1500.0" name="Anchor-0"/>
  <outline>
    <contour>
      <point x="30.0" y="750.0" type="curve" smooth="yes"/>
      <point x="30.0" y="1316.0"/>
      <point x="164.0" y="1540.0"/>
      <point x="620.0" y="1540.0" type="curve" smooth="yes"/>
      <point x="1076.0" y="1540.0"/>
      <point x="1210.0" y="1316.0"/>
      <point x="1210.0" y="750.0" type="curve" smooth="yes"/>
      <point x="1210.0" y="465.0"/>
      <point x="1163.0" y="233.0"/>
      <point x="1013.0" y="96.0" type="curve" smooth="yes"/>
      <point x="972.44921875" y="58.9638671875"/>
      <point x="980.80859375" y="54.69921875"/>
      <point x="1002.0" y="35.0" type="curve" smooth="yes"/>
      <point x="1018.45898438" y="19.7001953125"/>
      <point x="1033.0" y="6.0"/>
      <point x="1066.0" y="6.0" type="curve" smooth="yes"/>
      <point x="1110.0" y="6.0"/>
      <point x="1118.0" y="42.0"/>
      <point x="1132.0" y="128.0" type="curve" smooth="yes"/>
      <point x="1135.81933594" y="151.4609375"/>
      <point x="1132.0" y="164.0"/>
      <point x="1164.0" y="164.0" type="curve" smooth="yes"/>
      <point x="1294.0" y="164.0" type="line" smooth="yes"/>
      <point x="1347.0" y="164.0"/>
      <point x="1354.85449219" y="156.381835938"/>
      <point x="1354.0" y="110.0" type="curve" smooth="yes"/>
      <point x="1350.0" y="-107.0"/>
      <point x="1304.0" y="-350.0"/>
      <point x="1080.0" y="-350.0" type="curve" smooth="yes"/>
      <point x="878.0" y="-350.0"/>
      <point x="843.0" y="-209.0"/>
      <point x="798.0" y="-60.0" type="curve" smooth="yes"/>
      <point x="788.546875" y="-28.701171875"/>
      <point x="786.0" y="-21.0"/>
      <point x="750.0" y="-27.0" type="curve" smooth="yes"/>
      <point x="696.97265625" y="-35.837890625"/>
      <point x="678.0" y="-40.0"/>
      <point x="620.0" y="-40.0" type="curve" smooth="yes"/>
      <point x="164.0" y="-40.0"/>
      <point x="30.0" y="184.0"/>
    </contour>
    <contour>
      <point x="531.0" y="285.0" type="curve" smooth="yes"/>
      <point x="550.0" y="244.0"/>
      <point x="574.0" y="220.0"/>
      <point x="620.0" y="220.0" type="curve" smooth="yes"/>
      <point x="644.0" y="220.0"/>
      <point x="687.9609375" y="230.698242188"/>
      <point x="699.0" y="246.0" type="curve" smooth="yes"/>
      <point x="715.825195312" y="269.321289062"/>
      <point x="709.716796875" y="275.8515625"/>
      <point x="693.0" y="308.0" type="curve" smooth="yes"/>
      <point x="680.0" y="333.0"/>
      <point x="645.0" y="370.0"/>
      <point x="608.0" y="370.0" type="curve" smooth="yes"/>
      <point x="575.0" y="370.0"/>
      <point x="547.747070312" y="362.298828125"/>
      <point x="522.0" y="343.0" type="curve" smooth="yes"/>
      <point x="513.381835938" y="336.540039062"/>
      <point x="514.30859375" y="321.01953125"/>
    </contour>
    <contour>
      <point x="751.0" y="554.0" type="curve" smooth="yes"/>
      <point x="754.0" y="630.0"/>
      <point x="755.0" y="649.0"/>
      <point x="755.0" y="750.0" type="curve" smooth="yes"/>
      <point x="755.0" y="1074.0"/>
      <point x="728.0" y="1280.0"/>
      <point x="620.0" y="1280.0" type="curve" smooth="yes"/>
      <point x="512.0" y="1280.0"/>
      <point x="485.0" y="1074.0"/>
      <point x="485.0" y="750.0" type="curve" smooth="yes"/>
      <point x="485.0" y="692.0"/>
      <point x="485.0" y="638.0"/>
      <point x="487.0" y="588.0" type="curve" smooth="yes"/>
      <point x="488.662109375" y="546.440429688"/>
      <point x="494.921875" y="530.168945312"/>
      <point x="505.0" y="582.0" type="curve" smooth="yes"/>
      <point x="519.0" y="654.0"/>
      <point x="567.0" y="706.0"/>
      <point x="614.0" y="706.0" type="curve" smooth="yes"/>
      <point x="676.0" y="706.0"/>
      <point x="709.733398438" y="639.47265625"/>
      <point x="725.0" y="579.0" type="curve" smooth="yes"/>
      <point x="737.83203125" y="528.170898438"/>
      <point x="749.104492188" y="505.985351562"/>
    </contour>
  </outline>
</glyph>
<glyph name="R" format="2">
  <advance width="1356"/>
  <unicode hex="0052"/>
  <anchor x="676.0" y="0.0" name="Anchor-1"/>
  <anchor x="686.0" y="1500.0" name="Anchor-0"/>
  <anchor x="676.0" y="0.0" name="Anchor-2"/>
  <anchor x="686.0" y="1500.0" name="Anchor-0"/>
  <outline>
    <contour>
      <point x="1386.0" y="273.0" type="curve" smooth="yes"/>
      <point x="1344.0" y="95.0"/>
      <point x="1260.0" y="-40.0"/>
      <point x="1050.0" y="-40.0" type="curve" smooth="yes"/>
      <point x="554.0" y="-40.0"/>
      <point x="883.0" y="620.0"/>
      <point x="650.0" y="620.0" type="curve" smooth="yes"/>
      <point x="638.0" y="620.0" type="line" smooth="yes"/>
      <point x="600.0" y="620.0"/>
      <point x="600.0" y="610.0"/>
      <point x="600.0" y="572.0" type="curve" smooth="yes"/>
      <point x="600.0" y="310.0" type="line" smooth="yes"/>
      <point x="600.0" y="279.0"/>
      <point x="601.0" y="270.0"/>
      <point x="632.0" y="270.0" type="curve" smooth="yes"/>
      <point x="674.0" y="270.0" type="line" smooth="yes"/>
      <point x="710.0" y="270.0"/>
      <point x="720.0" y="263.0"/>
      <point x="720.0" y="224.0" type="curve" smooth="yes"/>
      <point x="720.0" y="72.0" type="line" smooth="yes"/>
      <point x="720.0" y="13.0"/>
      <point x="719.0" y="0.0"/>
      <point x="660.0" y="0.0" type="curve" smooth="yes"/>
      <point x="53.0" y="0.0" type="line" smooth="yes"/>
      <point x="19.0" y="0.0"/>
      <point x="10.0" y="5.0"/>
      <point x="10.0" y="38.0" type="curve" smooth="yes"/>
      <point x="10.0" y="226.0" type="line" smooth="yes"/>
      <point x="10.0" y="263.0"/>
      <point x="16.0" y="270.0"/>
      <point x="52.0" y="270.0" type="curve" smooth="yes"/>
      <point x="73.0" y="270.0" type="line" smooth="yes"/>
      <point x="120.0" y="270.0"/>
      <point x="130.0" y="276.0"/>
      <point x="130.0" y="322.0" type="curve" smooth="yes"/>
      <point x="130.0" y="1179.0" type="line" smooth="yes"/>
      <point x="130.0" y="1225.0"/>
      <point x="119.0" y="1230.0"/>
      <point x="76.0" y="1230.0" type="curve" smooth="yes"/>
      <point x="56.0" y="1230.0" type="line" smooth="yes"/>
      <point x="14.0" y="1230.0"/>
      <point x="10.0" y="1242.0"/>
      <point x="10.0" y="1282.0" type="curve" smooth="yes"/>
      <point x="10.0" y="1462.0" type="line" smooth="yes"/>
      <point x="10.0" y="1496.0"/>
      <point x="20.0" y="1500.0"/>
      <point x="55.0" y="1500.0" type="curve" smooth="yes"/>
      <point x="720.0" y="1500.0" type="line" smooth="yes"/>
      <point x="1062.0" y="1500.0"/>
      <point x="1190.0" y="1300.0"/>
      <point x="1190.0" y="1110.0" type="curve" smooth="yes"/>
      <point x="1190.0" y="949.0"/>
      <point x="1168.0" y="835.0"/>
      <point x="1083.0" y="742.0" type="curve" smooth="yes"/>
      <point x="1046.91433886" y="702.518041337"/>
      <point x="1014.0" y="707.0"/>
      <point x="1066.0" y="678.0" type="curve" smooth="yes"/>
      <point x="1308.0" y="545.0"/>
      <point x="1103.0" y="308.0"/>
      <point x="1218.0" y="308.0" type="curve" smooth="yes"/>
      <point x="1244.0" y="308.0"/>
      <point x="1246.28931379" y="323.091857449"/>
      <point x="1256.0" y="358.0" type="curve" smooth="yes"/>
      <point x="1263.34863281" y="384.416992188"/>
      <point x="1282.64941406" y="388.471679688"/>
      <point x="1321.0" y="374.0" type="curve" smooth="yes"/>
      <point x="1374.0" y="354.0" type="line" smooth="yes"/>
      <point x="1405.67800705" y="342.046035077"/>
      <point x="1395.93616488" y="315.110413057"/>
    </contour>
    <contour>
      <point x="641.0" y="880.0" type="curve" smooth="yes"/>
      <point x="649.0" y="880.0" type="line" smooth="yes"/>
      <point x="711.0" y="880.0"/>
      <point x="720.0" y="952.0"/>
      <point x="720.0" y="1050.0" type="curve" smooth="yes"/>
      <point x="720.0" y="1148.0"/>
      <point x="711.0" y="1230.0"/>
      <point x="649.0" y="1230.0" type="curve" smooth="yes"/>
      <point x="631.0" y="1230.0" type="line" smooth="yes"/>
      <point x="593.0" y="1230.0"/>
      <point x="600.0" y="1221.0"/>
      <point x="600.0" y="1182.0" type="curve" smooth="yes"/>
      <point x="600.0" y="926.0" type="line" smooth="yes"/>
      <point x="600.0" y="877.0"/>
      <point x="593.0" y="880.0"/>
    </contour>
  </outline>
</glyph>
<glyph name="S" format="2">
  <advance width="1070"/>
  <unicode hex="0053"/>
  <anchor x="615.0" y="0.0" name="Anchor-1"/>
  <anchor x="626.0" y="1500.0" name="Anchor-0"/>
  <anchor x="615.0" y="0.0" name="Anchor-2"/>
  <anchor x="626.0" y="1500.0" name="Anchor-0"/>
  <outline>
    <contour>
      <point x="774.0" y="1017.0" type="curve" smooth="yes"/>
      <point x="726.0" y="1173.0"/>
      <point x="661.0" y="1228.0"/>
      <point x="590.0" y="1228.0" type="curve" smooth="yes"/>
      <point x="528.0" y="1228.0"/>
      <point x="502.0" y="1204.0"/>
      <point x="502.0" y="1156.0" type="curve" smooth="yes"/>
      <point x="502.0" y="916.0"/>
      <point x="1060.0" y="940.0"/>
      <point x="1060.0" y="380.0" type="curve" smooth="yes"/>
      <point x="1060.0" y="80.0"/>
      <point x="872.0" y="-40.0"/>
      <point x="670.0" y="-40.0" type="curve" smooth="yes"/>
      <point x="450.0" y="-40.0"/>
      <point x="400.0" y="34.0"/>
      <point x="362.0" y="87.0" type="curve" smooth="yes"/>
      <point x="327.779737251" y="134.728261202"/>
      <point x="324.0" y="103.0"/>
      <point x="294.0" y="51.0" type="curve" smooth="yes"/>
      <point x="276.0" y="17.0" type="line" smooth="yes"/>
      <point x="263.0" y="-6.0"/>
      <point x="246.0" y="-10.0"/>
      <point x="209.0" y="-10.0" type="curve" smooth="yes"/>
      <point x="84.0" y="-10.0" type="line" smooth="yes"/>
      <point x="45.0" y="-10.0"/>
      <point x="30.0" y="-3.0"/>
      <point x="30.0" y="35.0" type="curve" smooth="yes"/>
      <point x="30.0" y="537.0" type="line" smooth="yes"/>
      <point x="30.0" y="579.0"/>
      <point x="33.0" y="590.0"/>
      <point x="74.0" y="590.0" type="curve" smooth="yes"/>
      <point x="220.0" y="590.0" type="line" smooth="yes"/>
      <point x="267.0" y="590.0"/>
      <point x="256.278320312" y="581.887695312"/>
      <point x="263.0" y="541.0" type="curve" smooth="yes"/>
      <point x="287.0" y="395.0"/>
      <point x="363.0" y="252.0"/>
      <point x="480.0" y="252.0" type="curve" smooth="yes"/>
      <point x="572.0" y="252.0"/>
      <point x="610.0" y="292.0"/>
      <point x="610.0" y="370.0" type="curve" smooth="yes"/>
      <point x="610.0" y="680.0"/>
      <point x="60.0" y="628.0"/>
      <point x="60.0" y="1128.0" type="curve" smooth="yes"/>
      <point x="60.0" y="1398.0"/>
      <point x="228.0" y="1530.0"/>
      <point x="430.0" y="1530.0" type="curve" smooth="yes"/>
      <point x="552.0" y="1530.0"/>
      <point x="619.0" y="1473.0"/>
      <point x="676.0" y="1415.0" type="curve" smooth="yes"/>
      <point x="710.065573539" y="1380.33678482"/>
      <point x="709.0" y="1383.0"/>
      <point x="738.0" y="1430.0" type="curve" smooth="yes"/>
      <point x="763.0" y="1473.0" type="line" smooth="yes"/>
      <point x="775.0" y="1492.0"/>
      <point x="775.0" y="1500.0"/>
      <point x="808.0" y="1500.0" type="curve" smooth="yes"/>
      <point x="962.0" y="1500.0" type="line" smooth="yes"/>
      <point x="997.0" y="1500.0"/>
      <point x="1010.0" y="1491.0"/>
      <point x="1010.0" y="1454.0" type="curve" smooth="yes"/>
      <point x="1010.0" y="1005.0" type="line" smooth="yes"/>
      <point x="1010.0" y="957.0"/>
      <point x="1003.0" y="950.0"/>
      <point x="953.0" y="950.0" type="curve" smooth="yes"/>
      <point x="844.0" y="950.0" type="line" smooth="yes"/>
      <point x="778.0" y="950.0"/>
      <point x="789.630877273" y="966.199648863"/>
    </contour>
  </outline>
</glyph>
<glyph name="T" format="2">
  <advance width="1250"/>
  <unicode hex="0054"/>
  <anchor x="620.0" y="1500.0" name="Anchor-0"/>
  <anchor x="621.0" y="0.0" name="Anchor-1"/>
  <anchor x="621.0" y="0.0" name="Anchor-2"/>
  <outline>
    <contour>
      <point x="270.0" y="51.0" type="curve" smooth="yes"/>
      <point x="270.0" y="220.0" type="line" smooth="yes"/>
      <point x="270.0" y="260.0"/>
      <point x="277.0" y="270.0"/>
      <point x="316.0" y="270.0" type="curve" smooth="yes"/>
      <point x="348.0" y="270.0" type="line" smooth="yes"/>
      <point x="401.0" y="270.0"/>
      <point x="410.0" y="282.0"/>
      <point x="410.0" y="335.0" type="curve" smooth="yes"/>
      <point x="410.0" y="1202.0" type="line" smooth="yes"/>
      <point x="410.0" y="1226.0"/>
      <point x="411.0" y="1240.0"/>
      <point x="386.0" y="1240.0" type="curve" smooth="yes"/>
      <point x="380.0" y="1240.0" type="line" smooth="yes"/>
      <point x="331.0" y="1240.0"/>
      <point x="277.0" y="1174.0"/>
      <point x="271.0" y="927.0" type="curve" smooth="yes"/>
      <point x="270.0" y="879.0"/>
      <point x="256.0" y="870.0"/>
      <point x="204.0" y="870.0" type="curve" smooth="yes"/>
      <point x="83.0" y="870.0" type="line" smooth="yes"/>
      <point x="44.0" y="870.0"/>
      <point x="30.0" y="872.0"/>
      <point x="30.0" y="911.0" type="curve" smooth="yes"/>
      <point x="30.0" y="1442.0" type="line" smooth="yes"/>
      <point x="30.0" y="1485.0"/>
      <point x="31.0" y="1500.0"/>
      <point x="74.0" y="1500.0" type="curve" smooth="yes"/>
      <point x="1180.0" y="1500.0" type="line" smooth="yes"/>
      <point x="1212.0" y="1500.0"/>
      <point x="1220.0" y="1487.0"/>
      <point x="1220.0" y="1452.0" type="curve" smooth="yes"/>
      <point x="1220.0" y="927.0" type="line" smooth="yes"/>
      <point x="1220.0" y="876.0"/>
      <point x="1211.0" y="870.0"/>
      <point x="1158.0" y="870.0" type="curve" smooth="yes"/>
      <point x="1040.0" y="870.0" type="line" smooth="yes"/>
      <point x="988.0" y="870.0"/>
      <point x="980.0" y="876.0"/>
      <point x="979.0" y="925.0" type="curve" smooth="yes"/>
      <point x="973.0" y="1174.0"/>
      <point x="940.0" y="1240.0"/>
      <point x="880.0" y="1240.0" type="curve" smooth="yes"/>
      <point x="868.0" y="1240.0" type="line" smooth="yes"/>
      <point x="838.0" y="1240.0"/>
      <point x="840.0" y="1226.0"/>
      <point x="840.0" y="1197.0" type="curve" smooth="yes"/>
      <point x="840.0" y="350.0" type="line" smooth="yes"/>
      <point x="840.0" y="287.0"/>
      <point x="843.0" y="270.0"/>
      <point x="906.0" y="270.0" type="curve" smooth="yes"/>
      <point x="923.0" y="270.0" type="line" smooth="yes"/>
      <point x="969.0" y="270.0"/>
      <point x="980.0" y="258.0"/>
      <point x="980.0" y="215.0" type="curve" smooth="yes"/>
      <point x="980.0" y="55.0" type="line" smooth="yes"/>
      <point x="980.0" y="7.0"/>
      <point x="970.0" y="0.0"/>
      <point x="924.0" y="0.0" type="curve" smooth="yes"/>
      <point x="324.0" y="0.0" type="line" smooth="yes"/>
      <point x="282.0" y="0.0"/>
      <point x="270.0" y="6.0"/>
    </contour>
  </outline>
</glyph>
<glyph name="U" format="2">
  <advance width="1340"/>
  <unicode hex="0055"/>
  <anchor x="1156.0" y="190.0" name="Anchor-2"/>
  <anchor x="761.0" y="0.0" name="Anchor-1"/>
  <anchor x="791.0" y="1500.0" name="Anchor-0"/>
  <anchor x="1156.0" y="190.0" name="Anchor-3"/>
  <anchor x="761.0" y="0.0" name="Anchor-2"/>
  <anchor x="791.0" y="1500.0" name="Anchor-0"/>
  <outline>
    <contour>
      <point x="876.0" y="1230.0" type="curve" smooth="yes"/>
      <point x="850.0" y="1230.0" type="line" smooth="yes"/>
      <point x="802.0" y="1230.0"/>
      <point x="790.0" y="1242.0"/>
      <point x="790.0" y="1287.0" type="curve" smooth="yes"/>
      <point x="790.0" y="1427.0" type="line" smooth="yes"/>
      <point x="790.0" y="1481.0"/>
      <point x="792.0" y="1500.0"/>
      <point x="846.0" y="1500.0" type="curve" smooth="yes"/>
      <point x="1282.0" y="1500.0" type="line" smooth="yes"/>
      <point x="1325.0" y="1500.0"/>
      <point x="1330.0" y="1491.0"/>
      <point x="1330.0" y="1446.0" type="curve" smooth="yes"/>
      <point x="1330.0" y="1285.0" type="line" smooth="yes"/>
      <point x="1330.0" y="1237.0"/>
      <point x="1323.0" y="1230.0"/>
      <point x="1283.0" y="1230.0" type="curve" smooth="yes"/>
      <point x="1272.0" y="1230.0" type="line" smooth="yes"/>
      <point x="1220.0" y="1230.0"/>
      <point x="1210.0" y="1223.0"/>
      <point x="1210.0" y="1169.0" type="curve" smooth="yes"/>
      <point x="1210.0" y="600.0" type="line" smooth="yes"/>
      <point x="1210.0" y="170.0"/>
      <point x="1066.0" y="-40.0"/>
      <point x="690.0" y="-40.0" type="curve" smooth="yes"/>
      <point x="164.0" y="-40.0"/>
      <point x="130.0" y="254.0"/>
      <point x="130.0" y="620.0" type="curve" smooth="yes"/>
      <point x="130.0" y="1179.0" type="line" smooth="yes"/>
      <point x="130.0" y="1225.0"/>
      <point x="120.0" y="1230.0"/>
      <point x="76.0" y="1230.0" type="curve" smooth="yes"/>
      <point x="70.0" y="1230.0" type="line" smooth="yes"/>
      <point x="21.0" y="1230.0"/>
      <point x="10.0" y="1232.0"/>
      <point x="10.0" y="1281.0" type="curve" smooth="yes"/>
      <point x="10.0" y="1437.0" type="line" smooth="yes"/>
      <point x="10.0" y="1486.0"/>
      <point x="17.0" y="1500.0"/>
      <point x="64.0" y="1500.0" type="curve" smooth="yes"/>
      <point x="688.0" y="1500.0" type="line" smooth="yes"/>
      <point x="725.0" y="1500.0"/>
      <point x="730.0" y="1491.0"/>
      <point x="730.0" y="1452.0" type="curve" smooth="yes"/>
      <point x="730.0" y="1279.0" type="line" smooth="yes"/>
      <point x="730.0" y="1239.0"/>
      <point x="724.0" y="1230.0"/>
      <point x="681.0" y="1230.0" type="curve" smooth="yes"/>
      <point x="656.0" y="1230.0" type="line" smooth="yes"/>
      <point x="602.0" y="1230.0"/>
      <point x="600.0" y="1219.0"/>
      <point x="600.0" y="1164.0" type="curve" smooth="yes"/>
      <point x="600.0" y="660.0" type="line" smooth="yes"/>
      <point x="600.0" y="376.0"/>
      <point x="612.0" y="254.0"/>
      <point x="770.0" y="254.0" type="curve" smooth="yes"/>
      <point x="888.0" y="254.0"/>
      <point x="930.0" y="336.0"/>
      <point x="930.0" y="600.0" type="curve" smooth="yes"/>
      <point x="930.0" y="1179.0" type="line" smooth="yes"/>
      <point x="930.0" y="1224.0"/>
      <point x="918.0" y="1230.0"/>
    </contour>
  </outline>
</glyph>
<glyph name="V" format="2">
  <advance width="1390"/>
  <unicode hex="0056"/>
  <anchor x="845.0" y="1500.0" name="Anchor-0"/>
  <anchor x="721.0" y="0.0" name="Anchor-1"/>
  <anchor x="721.0" y="0.0" name="Anchor-2"/>
  <outline>
    <contour>
      <point x="821.0" y="501.0" type="curve" smooth="yes"/>
      <point x="952.0" y="1187.0" type="line" smooth="yes"/>
      <point x="965.0" y="1219.0"/>
      <point x="963.0" y="1230.0"/>
      <point x="927.0" y="1230.0" type="curve" smooth="yes"/>
      <point x="923.0" y="1230.0" type="line" smooth="yes"/>
      <point x="891.0" y="1230.0"/>
      <point x="890.0" y="1239.0"/>
      <point x="890.0" y="1271.0" type="curve" smooth="yes"/>
      <point x="890.0" y="1463.0" type="line" smooth="yes"/>
      <point x="890.0" y="1496.0"/>
      <point x="900.0" y="1500.0"/>
      <point x="931.0" y="1500.0" type="curve" smooth="yes"/>
      <point x="1324.0" y="1500.0" type="line" smooth="yes"/>
      <point x="1380.0" y="1500.0"/>
      <point x="1390.0" y="1499.0"/>
      <point x="1390.0" y="1443.0" type="curve" smooth="yes"/>
      <point x="1390.0" y="1279.0" type="line" smooth="yes"/>
      <point x="1390.0" y="1245.0"/>
      <point x="1382.0" y="1230.0"/>
      <point x="1344.0" y="1230.0" type="curve" smooth="yes"/>
      <point x="1279.0" y="1230.0" type="line" smooth="yes"/>
      <point x="1246.0" y="1230.0"/>
      <point x="1248.0" y="1215.0"/>
      <point x="1239.0" y="1193.0" type="curve" smooth="yes"/>
      <point x="962.0" y="23.0" type="line" smooth="yes"/>
      <point x="949.0" y="-9.0"/>
      <point x="945.0" y="-10.0"/>
      <point x="899.0" y="-10.0" type="curve" smooth="yes"/>
      <point x="499.0" y="-10.0" type="line" smooth="yes"/>
      <point x="452.0" y="-10.0"/>
      <point x="446.0" y="1.0"/>
      <point x="433.0" y="33.0" type="curve" smooth="yes"/>
      <point x="152.0" y="1169.0" type="line" smooth="yes"/>
      <point x="137.0" y="1207.0"/>
      <point x="142.0" y="1230.0"/>
      <point x="85.0" y="1230.0" type="curve" smooth="yes"/>
      <point x="53.0" y="1230.0" type="line" smooth="yes"/>
      <point x="18.0" y="1230.0"/>
      <point x="0.0" y="1230.0"/>
      <point x="0.0" y="1269.0" type="curve" smooth="yes"/>
      <point x="0.0" y="1455.0" type="line" smooth="yes"/>
      <point x="0.0" y="1495.0"/>
      <point x="6.0" y="1500.0"/>
      <point x="45.0" y="1500.0" type="curve" smooth="yes"/>
      <point x="739.0" y="1500.0" type="line" smooth="yes"/>
      <point x="779.0" y="1500.0"/>
      <point x="780.0" y="1491.0"/>
      <point x="780.0" y="1451.0" type="curve" smooth="yes"/>
      <point x="780.0" y="1273.0" type="line" smooth="yes"/>
      <point x="780.0" y="1235.0"/>
      <point x="774.0" y="1230.0"/>
      <point x="737.0" y="1230.0" type="curve" smooth="yes"/>
      <point x="723.0" y="1230.0" type="line" smooth="yes"/>
      <point x="665.0" y="1230.0"/>
      <point x="660.0" y="1220.0"/>
      <point x="674.0" y="1181.0" type="curve" smooth="yes"/>
      <point x="776.0" y="497.0" type="line" smooth="yes"/>
      <point x="792.0" y="451.0"/>
      <point x="808.0" y="470.0"/>
    </contour>
  </outline>
</glyph>
<glyph name="W" format="2">
  <advance width="1920"/>
  <unicode hex="0057"/>
  <anchor x="966.0" y="0.0" name="Anchor-1"/>
  <anchor x="1056.0" y="1500.0" name="Anchor-0"/>
  <anchor x="966.0" y="0.0" name="Anchor-2"/>
  <anchor x="1056.0" y="1500.0" name="Anchor-0"/>
  <outline>
    <contour>
      <point x="804.0" y="936.0" type="curve" smooth="yes"/>
      <point x="853.0" y="1092.0" type="line" smooth="yes"/>
      <point x="865.194335938" y="1130.82324219"/>
      <point x="871.021484375" y="1137.86816406"/>
      <point x="867.0" y="1162.0" type="curve" smooth="yes"/>
      <point x="859.0" y="1210.0" type="line" smooth="yes"/>
      <point x="856.081054688" y="1227.51367188"/>
      <point x="848.0" y="1230.0"/>
      <point x="825.0" y="1230.0" type="curve" smooth="yes"/>
      <point x="809.0" y="1230.0" type="line" smooth="yes"/>
      <point x="771.0" y="1230.0"/>
      <point x="770.0" y="1239.0"/>
      <point x="770.0" y="1278.0" type="curve" smooth="yes"/>
      <point x="770.0" y="1435.0" type="line" smooth="yes"/>
      <point x="770.0" y="1489.0"/>
      <point x="771.0" y="1500.0"/>
      <point x="825.0" y="1500.0" type="curve" smooth="yes"/>
      <point x="1293.0" y="1500.0" type="line" smooth="yes"/>
      <point x="1327.0" y="1500.0"/>
      <point x="1370.0" y="1498.0"/>
      <point x="1370.0" y="1460.0" type="curve" smooth="yes"/>
      <point x="1370.0" y="1294.0" type="line" smooth="yes"/>
      <point x="1370.0" y="1251.0"/>
      <point x="1369.0" y="1230.0"/>
      <point x="1352.0" y="1230.0" type="curve" smooth="yes"/>
      <point x="1330.0" y="1230.0" type="line" smooth="yes"/>
      <point x="1313.0" y="1230.0"/>
      <point x="1307.0390625" y="1220.85546875"/>
      <point x="1314.0" y="1188.0" type="curve" smooth="yes"/>
      <point x="1339.0" y="1070.0" type="line" smooth="yes"/>
      <point x="1352.67578125" y="1005.44824219"/>
      <point x="1373.0" y="903.0"/>
      <point x="1399.0" y="903.0" type="curve" smooth="yes"/>
      <point x="1408.0" y="903.0"/>
      <point x="1420.89355469" y="920.262695312"/>
      <point x="1430.0" y="956.0" type="curve" smooth="yes"/>
      <point x="1483.0" y="1164.0" type="line" smooth="yes"/>
      <point x="1495.76074219" y="1214.08007812"/>
      <point x="1503.0" y="1230.0"/>
      <point x="1469.0" y="1230.0" type="curve" smooth="yes"/>
      <point x="1457.0" y="1230.0" type="line" smooth="yes"/>
      <point x="1432.0" y="1230.0"/>
      <point x="1420.0" y="1236.0"/>
      <point x="1420.0" y="1284.0" type="curve" smooth="yes"/>
      <point x="1420.0" y="1442.0" type="line" smooth="yes"/>
      <point x="1420.0" y="1494.0"/>
      <point x="1427.0" y="1500.0"/>
      <point x="1477.0" y="1500.0" type="curve" smooth="yes"/>
      <point x="1859.0" y="1500.0" type="line" smooth="yes"/>
      <point x="1900.0" y="1500.0"/>
      <point x="1920.0" y="1498.0"/>
      <point x="1920.0" y="1453.0" type="curve" smooth="yes"/>
      <point x="1920.0" y="1272.0" type="line" smooth="yes"/>
      <point x="1920.0" y="1233.0"/>
      <point x="1911.0" y="1230.0"/>
      <point x="1871.0" y="1230.0" type="curve" smooth="yes"/>
      <point x="1853.0" y="1230.0" type="line" smooth="yes"/>
      <point x="1793.0" y="1230.0"/>
      <point x="1783.09375" y="1216.12207031"/>
      <point x="1773.0" y="1172.0" type="curve" smooth="yes"/>
      <point x="1509.0" y="18.0" type="line" smooth="yes"/>
      <point x="1500.30957031" y="-19.986328125"/>
      <point x="1485.0" y="-20.0"/>
      <point x="1436.0" y="-20.0" type="curve" smooth="yes"/>
      <point x="1204.0" y="-20.0" type="line" smooth="yes"/>
      <point x="1147.73535156" y="-20.0"/>
      <point x="1143.67089844" y="-11.1728515625"/>
      <point x="1137.0" y="32.0" type="curve" smooth="yes"/>
      <point x="1048.0" y="608.0" type="line" smooth="yes"/>
      <point x="1039.97949219" y="659.908203125"/>
      <point x="1045.0" y="693.0"/>
      <point x="1003.0" y="693.0" type="curve" smooth="yes"/>
      <point x="973.0" y="693.0"/>
      <point x="968.108398438" y="664.856445312"/>
      <point x="960.0" y="628.0" type="curve" smooth="yes"/>
      <point x="828.0" y="28.0" type="line" smooth="yes"/>
      <point x="819.405273438" y="-11.0693359375"/>
      <point x="812.0" y="-20.0"/>
      <point x="754.0" y="-20.0" type="curve" smooth="yes"/>
      <point x="542.0" y="-20.0" type="line" smooth="yes"/>
      <point x="479.0" y="-20.0"/>
      <point x="470.771484375" y="-19.8984375"/>
      <point x="458.0" y="26.0" type="curve" smooth="yes"/>
      <point x="138.0" y="1176.0" type="line" smooth="yes"/>
      <point x="121.0" y="1224.0"/>
      <point x="121.0" y="1230.0"/>
      <point x="53.0" y="1230.0" type="curve" smooth="yes"/>
      <point x="47.0" y="1230.0" type="line" smooth="yes"/>
      <point x="7.0" y="1230.0"/>
      <point x="0.0" y="1235.0"/>
      <point x="0.0" y="1276.0" type="curve" smooth="yes"/>
      <point x="0.0" y="1448.0" type="line" smooth="yes"/>
      <point x="0.0" y="1498.0"/>
      <point x="16.0" y="1500.0"/>
      <point x="63.0" y="1500.0" type="curve" smooth="yes"/>
      <point x="631.0" y="1500.0" type="line" smooth="yes"/>
      <point x="684.0" y="1500.0"/>
      <point x="700.0" y="1499.0"/>
      <point x="700.0" y="1442.0" type="curve" smooth="yes"/>
      <point x="700.0" y="1290.0" type="line" smooth="yes"/>
      <point x="700.0" y="1239.0"/>
      <point x="688.0" y="1230.0"/>
      <point x="667.0" y="1230.0" type="curve" smooth="yes"/>
      <point x="663.0" y="1230.0" type="line" smooth="yes"/>
      <point x="655.0" y="1230.0"/>
      <point x="644.0" y="1230.0"/>
      <point x="655.0" y="1196.0" type="curve" smooth="yes"/>
      <point x="701.0" y="1024.0" type="line" smooth="yes"/>
      <point x="720.0" y="965.0"/>
      <point x="732.0" y="882.0"/>
      <point x="756.0" y="882.0" type="curve" smooth="yes"/>
      <point x="777.0" y="882.0"/>
      <point x="793.12890625" y="901.388671875"/>
    </contour>
  </outline>
</glyph>
<glyph name="X" format="2">
  <advance width="1370"/>
  <unicode hex="0058"/>
  <anchor x="776.0" y="1500.0" name="Anchor-0"/>
  <anchor x="626.0" y="0.0" name="Anchor-1"/>
  <anchor x="626.0" y="0.0" name="Anchor-2"/>
  <outline>
    <contour>
      <point x="0.0" y="59.0" type="curve" smooth="yes"/>
      <point x="0.0" y="211.0" type="line" smooth="yes"/>
      <point x="0.0" y="258.0"/>
      <point x="1.0" y="270.0"/>
      <point x="48.0" y="270.0" type="curve" smooth="yes"/>
      <point x="60.0" y="270.0" type="line" smooth="yes"/>
      <point x="115.0" y="270.0"/>
      <point x="129.198242188" y="274.5546875"/>
      <point x="148.0" y="305.0" type="curve" smooth="yes"/>
      <point x="366.0" y="658.0" type="line" smooth="yes"/>
      <point x="399.869140625" y="712.842773438"/>
      <point x="392.419921875" y="736.828125"/>
      <point x="362.0" y="791.0" type="curve" smooth="yes"/>
      <point x="143.0" y="1181.0" type="line" smooth="yes"/>
      <point x="122.813476562" y="1216.94921875"/>
      <point x="110.0" y="1230.0"/>
      <point x="76.0" y="1230.0" type="curve" smooth="yes"/>
      <point x="66.0" y="1230.0" type="line" smooth="yes"/>
      <point x="16.0" y="1230.0"/>
      <point x="10.0" y="1236.0"/>
      <point x="10.0" y="1288.0" type="curve" smooth="yes"/>
      <point x="10.0" y="1431.0" type="line" smooth="yes"/>
      <point x="10.0" y="1489.0"/>
      <point x="12.0" y="1500.0"/>
      <point x="70.0" y="1500.0" type="curve" smooth="yes"/>
      <point x="692.0" y="1500.0" type="line" smooth="yes"/>
      <point x="737.0" y="1500.0"/>
      <point x="750.0" y="1496.0"/>
      <point x="750.0" y="1448.0" type="curve" smooth="yes"/>
      <point x="750.0" y="1280.0" type="line" smooth="yes"/>
      <point x="750.0" y="1240.0"/>
      <point x="748.0" y="1230.0"/>
      <point x="708.0" y="1230.0" type="curve" smooth="yes"/>
      <point x="706.0" y="1230.0" type="line" smooth="yes"/>
      <point x="663.0" y="1230.0"/>
      <point x="671.575195312" y="1208.22460938"/>
      <point x="683.0" y="1181.0" type="curve" smooth="yes"/>
      <point x="730.0" y="1069.0" type="line" smooth="yes"/>
      <point x="750.493164062" y="1020.16601562"/>
      <point x="771.185546875" y="1037.46289062"/>
      <point x="791.0" y="1087.0" type="curve" smooth="yes"/>
      <point x="831.0" y="1187.0" type="line" smooth="yes"/>
      <point x="846.38671875" y="1225.46679688"/>
      <point x="831.0" y="1230.0"/>
      <point x="818.0" y="1230.0" type="curve" smooth="yes"/>
      <point x="810.0" y="1230.0" type="line" smooth="yes"/>
      <point x="787.0" y="1230.0"/>
      <point x="780.0" y="1233.0"/>
      <point x="780.0" y="1275.0" type="curve" smooth="yes"/>
      <point x="780.0" y="1446.0" type="line" smooth="yes"/>
      <point x="780.0" y="1492.0"/>
      <point x="783.0" y="1500.0"/>
      <point x="828.0" y="1500.0" type="curve" smooth="yes"/>
      <point x="1296.0" y="1500.0" type="line" smooth="yes"/>
      <point x="1325.0" y="1500.0"/>
      <point x="1330.0" y="1492.0"/>
      <point x="1330.0" y="1461.0" type="curve" smooth="yes"/>
      <point x="1330.0" y="1275.0" type="line" smooth="yes"/>
      <point x="1330.0" y="1232.0"/>
      <point x="1322.0" y="1230.0"/>
      <point x="1278.0" y="1230.0" type="curve" smooth="yes"/>
      <point x="1270.0" y="1230.0" type="line" smooth="yes"/>
      <point x="1222.0" y="1230.0"/>
      <point x="1203.74414062" y="1230.33789062"/>
      <point x="1188.0" y="1204.0" type="curve" smooth="yes"/>
      <point x="974.0" y="846.0" type="line" smooth="yes"/>
      <point x="949.655273438" y="805.2734375"/>
      <point x="968.376953125" y="789.666992188"/>
      <point x="1002.0" y="731.0" type="curve" smooth="yes"/>
      <point x="1245.0" y="307.0" type="line" smooth="yes"/>
      <point x="1262.15039062" y="277.07421875"/>
      <point x="1283.0" y="270.0"/>
      <point x="1316.0" y="270.0" type="curve" smooth="yes"/>
      <point x="1326.0" y="270.0" type="line" smooth="yes"/>
      <point x="1355.0" y="270.0"/>
      <point x="1370.0" y="263.0"/>
      <point x="1370.0" y="225.0" type="curve" smooth="yes"/>
      <point x="1370.0" y="43.0" type="line" smooth="yes"/>
      <point x="1370.0" y="2.0"/>
      <point x="1362.0" y="0.0"/>
      <point x="1320.0" y="0.0" type="curve" smooth="yes"/>
      <point x="686.0" y="0.0" type="line" smooth="yes"/>
      <point x="642.0" y="0.0"/>
      <point x="630.0" y="1.0"/>
      <point x="630.0" y="45.0" type="curve" smooth="yes"/>
      <point x="630.0" y="222.0" type="line" smooth="yes"/>
      <point x="630.0" y="260.0"/>
      <point x="632.0" y="270.0"/>
      <point x="650.0" y="270.0" type="curve" smooth="yes"/>
      <point x="664.0" y="270.0" type="line" smooth="yes"/>
      <point x="700.0" y="270.0"/>
      <point x="693.977539062" y="292.755859375"/>
      <point x="676.0" y="329.0" type="curve" smooth="yes"/>
      <point x="614.0" y="454.0" type="line" smooth="yes"/>
      <point x="603.299804688" y="475.573242188"/>
      <point x="593.186523438" y="475.864257812"/>
      <point x="584.0" y="461.0" type="curve" smooth="yes"/>
      <point x="495.0" y="317.0" type="line" smooth="yes"/>
      <point x="474.532226562" y="283.883789062"/>
      <point x="478.0" y="270.0"/>
      <point x="504.0" y="270.0" type="curve" smooth="yes"/>
      <point x="522.0" y="270.0" type="line" smooth="yes"/>
      <point x="544.0" y="270.0"/>
      <point x="560.0" y="260.0"/>
      <point x="560.0" y="215.0" type="curve" smooth="yes"/>
      <point x="560.0" y="79.0" type="line" smooth="yes"/>
      <point x="560.0" y="18.0"/>
      <point x="543.0" y="0.0"/>
      <point x="486.0" y="0.0" type="curve" smooth="yes"/>
      <point x="48.0" y="0.0" type="line" smooth="yes"/>
      <point x="1.0" y="0.0"/>
      <point x="0.0" y="11.0"/>
    </contour>
  </outline>
</glyph>
<glyph name="Y" format="2">
  <advance width="1380"/>
  <unicode hex="0059"/>
  <anchor x="701.0" y="0.0" name="Anchor-1"/>
  <anchor x="786.0" y="1500.0" name="Anchor-0"/>
  <anchor x="701.0" y="0.0" name="Anchor-2"/>
  <anchor x="786.0" y="1500.0" name="Anchor-0"/>
  <outline>
    <contour>
      <point x="350.0" y="36.0" type="curve" smooth="yes"/>
      <point x="350.0" y="224.0" type="line" smooth="yes"/>
      <point x="350.0" y="262.0"/>
      <point x="353.0" y="270.0"/>
      <point x="390.0" y="270.0" type="curve" smooth="yes"/>
      <point x="426.0" y="270.0" type="line" smooth="yes"/>
      <point x="466.0" y="270.0"/>
      <point x="470.0" y="278.0"/>
      <point x="470.0" y="319.0" type="curve" smooth="yes"/>
      <point x="470.0" y="463.0" type="line" smooth="yes"/>
      <point x="470.0" y="517.0"/>
      <point x="456.802734375" y="528.931640625"/>
      <point x="441.0" y="561.0" type="curve" smooth="yes"/>
      <point x="134.0" y="1184.0" type="line" smooth="yes"/>
      <point x="116.025390625" y="1220.4765625"/>
      <point x="109.0" y="1230.0"/>
      <point x="49.0" y="1230.0" type="curve" smooth="yes"/>
      <point x="43.0" y="1230.0" type="line" smooth="yes"/>
      <point x="1.0" y="1230.0"/>
      <point x="0.0" y="1239.0"/>
      <point x="0.0" y="1281.0" type="curve" smooth="yes"/>
      <point x="0.0" y="1430.0" type="line" smooth="yes"/>
      <point x="0.0" y="1492.0"/>
      <point x="19.0" y="1500.0"/>
      <point x="77.0" y="1500.0" type="curve" smooth="yes"/>
      <point x="671.0" y="1500.0" type="line" smooth="yes"/>
      <point x="722.0" y="1500.0"/>
      <point x="740.0" y="1497.0"/>
      <point x="740.0" y="1442.0" type="curve" smooth="yes"/>
      <point x="740.0" y="1277.0" type="line" smooth="yes"/>
      <point x="740.0" y="1237.0"/>
      <point x="729.0" y="1230.0"/>
      <point x="704.0" y="1230.0" type="curve" smooth="yes"/>
      <point x="699.0" y="1230.0" type="line" smooth="yes"/>
      <point x="659.0" y="1230.0"/>
      <point x="659.955078125" y="1220.54394531"/>
      <point x="680.0" y="1176.0" type="curve" smooth="yes"/>
      <point x="752.0" y="1016.0" type="line" smooth="yes"/>
      <point x="789.020507812" y="933.733398438"/>
      <point x="787.650390625" y="942.522460938"/>
      <point x="823.0" y="1020.0" type="curve" smooth="yes"/>
      <point x="896.0" y="1180.0" type="line" smooth="yes"/>
      <point x="916.361328125" y="1224.62792969"/>
      <point x="899.0" y="1230.0"/>
      <point x="877.0" y="1230.0" type="curve" smooth="yes"/>
      <point x="870.0" y="1230.0" type="line" smooth="yes"/>
      <point x="849.0" y="1230.0"/>
      <point x="830.0" y="1232.0"/>
      <point x="830.0" y="1283.0" type="curve" smooth="yes"/>
      <point x="830.0" y="1450.0" type="line" smooth="yes"/>
      <point x="830.0" y="1495.0"/>
      <point x="836.0" y="1500.0"/>
      <point x="880.0" y="1500.0" type="curve" smooth="yes"/>
      <point x="1331.0" y="1500.0" type="line" smooth="yes"/>
      <point x="1365.0" y="1500.0"/>
      <point x="1380.0" y="1499.0"/>
      <point x="1380.0" y="1461.0" type="curve" smooth="yes"/>
      <point x="1380.0" y="1257.0" type="line" smooth="yes"/>
      <point x="1380.0" y="1232.0"/>
      <point x="1369.0" y="1230.0"/>
      <point x="1343.0" y="1230.0" type="curve" smooth="yes"/>
      <point x="1307.0" y="1230.0" type="line" smooth="yes"/>
      <point x="1288.0" y="1230.0"/>
      <point x="1277.25976562" y="1222.62109375"/>
      <point x="1259.0" y="1188.0" type="curve" smooth="yes"/>
      <point x="980.0" y="659.0" type="line" smooth="yes"/>
      <point x="960.698242188" y="622.40234375"/>
      <point x="940.0" y="616.0"/>
      <point x="940.0" y="553.0" type="curve" smooth="yes"/>
      <point x="940.0" y="317.0" type="line" smooth="yes"/>
      <point x="940.0" y="279.0"/>
      <point x="943.0" y="270.0"/>
      <point x="980.0" y="270.0" type="curve" smooth="yes"/>
      <point x="1039.0" y="270.0" type="line" smooth="yes"/>
      <point x="1078.0" y="270.0"/>
      <point x="1080.0" y="261.0"/>
      <point x="1080.0" y="221.0" type="curve" smooth="yes"/>
      <point x="1080.0" y="39.0" type="line" smooth="yes"/>
      <point x="1080.0" y="8.0"/>
      <point x="1076.0" y="0.0"/>
      <point x="1046.0" y="0.0" type="curve" smooth="yes"/>
      <point x="382.0" y="0.0" type="line" smooth="yes"/>
      <point x="355.0" y="0.0"/>
      <point x="350.0" y="7.0"/>
    </contour>
  </outline>
</glyph>
<glyph name="Z" format="2">
  <advance width="1190"/>
  <unicode hex="005A"/>
  <anchor x="436.0" y="0.0" name="Anchor-1"/>
  <anchor x="406.0" y="1500.0" name="Anchor-0"/>
  <anchor x="436.0" y="0.0" name="Anchor-2"/>
  <anchor x="406.0" y="1500.0" name="Anchor-0"/>
  <outline>
    <contour>
      <point x="70.0" y="1500.0" type="curve" smooth="yes"/>
      <point x="1036.0" y="1500.0" type="line" smooth="yes"/>
      <point x="1085.0" y="1500.0"/>
      <point x="1100.0" y="1490.0"/>
      <point x="1100.0" y="1438.0" type="curve" smooth="yes"/>
      <point x="1100.0" y="1172.0" type="line" smooth="yes"/>
      <point x="1100.0" y="1102.0"/>
      <point x="1076.34082031" y="1061.60449219"/>
      <point x="1052.0" y="1024.0" type="curve" smooth="yes"/>
      <point x="632.0" y="367.0" type="line" smooth="yes"/>
      <point x="613.665039062" y="333.952148438"/>
      <point x="597.0" y="308.0"/>
      <point x="597.0" y="288.0" type="curve" smooth="yes"/>
      <point x="597.0" y="277.0"/>
      <point x="602.0" y="270.0"/>
      <point x="650.0" y="270.0" type="curve" smooth="yes"/>
      <point x="690.0" y="270.0" type="line" smooth="yes"/>
      <point x="890.0" y="270.0"/>
      <point x="908.0" y="386.0"/>
      <point x="919.0" y="626.0" type="curve" smooth="yes"/>
      <point x="921.0" y="681.0"/>
      <point x="924.0" y="690.0"/>
      <point x="980.0" y="690.0" type="curve" smooth="yes"/>
      <point x="1108.0" y="690.0" type="line" smooth="yes"/>
      <point x="1155.0" y="690.0"/>
      <point x="1160.0" y="656.0"/>
      <point x="1160.0" y="614.0" type="curve" smooth="yes"/>
      <point x="1160.0" y="62.0" type="line" smooth="yes"/>
      <point x="1160.0" y="4.0"/>
      <point x="1150.0" y="0.0"/>
      <point x="1094.0" y="0.0" type="curve" smooth="yes"/>
      <point x="78.0" y="0.0" type="line" smooth="yes"/>
      <point x="20.0" y="0.0"/>
      <point x="10.0" y="2.0"/>
      <point x="10.0" y="60.0" type="curve" smooth="yes"/>
      <point x="10.0" y="240.0" type="line" smooth="yes"/>
      <point x="10.0" y="307.0"/>
      <point x="31.9189453125" y="337.741210938"/>
      <point x="56.0" y="374.0" type="curve" smooth="yes"/>
      <point x="532.0" y="1166.0" type="line" smooth="yes"/>
      <point x="546.572265625" y="1187.94042969"/>
      <point x="562.0" y="1198.0"/>
      <point x="562.0" y="1208.0" type="curve" smooth="yes"/>
      <point x="562.0" y="1224.0"/>
      <point x="545.0" y="1230.0"/>
      <point x="520.0" y="1230.0" type="curve" smooth="yes"/>
      <point x="500.0" y="1230.0" type="line" smooth="yes"/>
      <point x="350.0" y="1230.0"/>
      <point x="270.0" y="1103.0"/>
      <point x="261.0" y="896.0" type="curve" smooth="yes"/>
      <point x="259.0" y="850.0"/>
      <point x="260.0" y="850.0"/>
      <point x="212.0" y="850.0" type="curve" smooth="yes"/>
      <point x="56.0" y="850.0" type="line" smooth="yes"/>
      <point x="20.0" y="850.0"/>
      <point x="20.0" y="850.0"/>
      <point x="20.0" y="886.0" type="curve" smooth="yes"/>
      <point x="20.0" y="1456.0" type="line" smooth="yes"/>
      <point x="20.0" y="1498.0"/>
      <point x="28.0" y="1500.0"/>
    </contour>
  </outline>
</glyph>
<glyph name="bracketleft" format="2">
  <advance width="810"/>
  <unicode hex="005B"/>
  <outline>
    <contour>
      <point x="210.0" y="1560.0" type="curve" smooth="yes"/>
      <point x="701.0" y="1560.0" type="line" smooth="yes"/>
      <point x="744.0" y="1560.0"/>
      <point x="750.0" y="1555.0"/>
      <point x="750.0" y="1510.0" type="curve" smooth="yes"/>
      <point x="750.0" y="1386.0" type="line" smooth="yes"/>
      <point x="750.0" y="1342.0"/>
      <point x="746.0" y="1330.0"/>
      <point x="699.0" y="1330.0" type="curve" smooth="yes"/>
      <point x="597.0" y="1330.0" type="line" smooth="yes"/>
      <point x="540.0" y="1330.0"/>
      <point x="530.0" y="1329.0"/>
      <point x="530.0" y="1272.0" type="curve" smooth="yes"/>
      <point x="530.0" y="2.0" type="line" smooth="yes"/>
      <point x="530.0" y="-56.0"/>
      <point x="531.0" y="-70.0"/>
      <point x="589.0" y="-70.0" type="curve" smooth="yes"/>
      <point x="693.0" y="-70.0" type="line" smooth="yes"/>
      <point x="747.0" y="-70.0"/>
      <point x="750.0" y="-77.0"/>
      <point x="750.0" y="-132.0" type="curve" smooth="yes"/>
      <point x="750.0" y="-242.0" type="line" smooth="yes"/>
      <point x="750.0" y="-295.0"/>
      <point x="744.0" y="-300.0"/>
      <point x="693.0" y="-300.0" type="curve" smooth="yes"/>
      <point x="210.0" y="-300.0" type="line" smooth="yes"/>
      <point x="123.0" y="-300.0"/>
      <point x="110.0" y="-295.0"/>
      <point x="110.0" y="-205.0" type="curve" smooth="yes"/>
      <point x="110.0" y="1465.0" type="line" smooth="yes"/>
      <point x="110.0" y="1555.0"/>
      <point x="123.0" y="1560.0"/>
    </contour>
  </outline>
</glyph>
<glyph name="a" format="2">
  <advance height="2310" width="1087"/>
  <unicode hex="0061"/>
  <anchor x="1009.66" y="90.0" name="Anchor-2"/>
  <anchor x="489.656" y="0.0" name="Anchor-1"/>
  <anchor x="476.656" y="1040.0" name="Anchor-0"/>
  <anchor x="476.656" y="1040.0" name="Anchor-0"/>
  <anchor x="489.656" y="0.0" name="Anchor-2"/>
  <anchor x="1009.66" y="90.0" name="Anchor-3"/>
  <outline>
    <contour>
      <point x="9.65625" y="256.0" type="curve" smooth="yes"/>
      <point x="9.65625" y="484.0"/>
      <point x="193.65625" y="588.0"/>
      <point x="467.65625" y="588.0" type="curve" smooth="yes"/>
      <point x="515.65625" y="588.0" type="line" smooth="yes"/>
      <point x="538.65625" y="588.0"/>
      <point x="541.65625" y="590.0"/>
      <point x="541.65625" y="614.0" type="curve" smooth="yes"/>
      <point x="541.65625" y="664.0" type="line" smooth="yes"/>
      <point x="541.65625" y="768.0"/>
      <point x="582.65625" y="898.0"/>
      <point x="502.65625" y="898.0" type="curve" smooth="yes"/>
      <point x="472.65625" y="898.0"/>
      <point x="440.65625" y="880.0"/>
      <point x="440.65625" y="868.0" type="curve" smooth="yes"/>
      <point x="440.65625" y="845.0"/>
      <point x="487.65625" y="844.0"/>
      <point x="487.65625" y="756.0" type="curve" smooth="yes"/>
      <point x="487.65625" y="658.0"/>
      <point x="395.65625" y="600.0"/>
      <point x="287.65625" y="600.0" type="curve" smooth="yes"/>
      <point x="165.65625" y="600.0"/>
      <point x="69.65625" y="678.0"/>
      <point x="69.65625" y="786.0" type="curve" smooth="yes"/>
      <point x="69.65625" y="940.0"/>
      <point x="223.65625" y="1070.0"/>
      <point x="515.65625" y="1070.0" type="curve" smooth="yes"/>
      <point x="795.65625" y="1070.0"/>
      <point x="951.65625" y="946.0"/>
      <point x="951.65625" y="694.0" type="curve" smooth="yes"/>
      <point x="951.65625" y="232.0" type="line" smooth="yes"/>
      <point x="951.65625" y="192.0"/>
      <point x="965.65625" y="184.0"/>
      <point x="973.65625" y="184.0" type="curve" smooth="yes"/>
      <point x="981.65625" y="184.0"/>
      <point x="997.65625" y="194.0"/>
      <point x="1001.65625" y="297.0" type="curve" smooth="yes"/>
      <point x="1002.1953125" y="310.8828125"/>
      <point x="1013.65625" y="317.0"/>
      <point x="1024.65625" y="314.0" type="curve"/>
      <point x="1128.65625" y="294.0" type="line" smooth="yes"/>
      <point x="1140.37695312" y="291.74609375"/>
      <point x="1135.15917969" y="284.309570312"/>
      <point x="1134.65625" y="270.0" type="curve" smooth="yes"/>
      <point x="1127.65625" y="71.0"/>
      <point x="1036.65625" y="-20.0"/>
      <point x="825.65625" y="-20.0" type="curve" smooth="yes"/>
      <point x="824.65625" y="-20.0" type="line" smooth="yes"/>
      <point x="673.65625" y="-20.0"/>
      <point x="590.365234375" y="21.0341796875"/>
      <point x="538.65625" y="88.0" type="curve" smooth="yes"/>
      <point x="522.748046875" y="108.6015625"/>
      <point x="523.6953125" y="117.032226562"/>
      <point x="506.65625" y="91.0" type="curve" smooth="yes"/>
      <point x="470.65625" y="36.0"/>
      <point x="450.65625" y="-20.0"/>
      <point x="279.65625" y="-20.0" type="curve" smooth="yes"/>
      <point x="111.65625" y="-20.0"/>
      <point x="9.65625" y="78.0"/>
    </contour>
    <contour>
      <point x="463.65625" y="316.0" type="curve" smooth="yes"/>
      <point x="463.65625" y="232.0"/>
      <point x="489.65625" y="199.0"/>
      <point x="509.65625" y="199.0" type="curve" smooth="yes"/>
      <point x="531.65625" y="199.0"/>
      <point x="551.65625" y="250.0"/>
      <point x="551.65625" y="342.0" type="curve" smooth="yes"/>
      <point x="551.65625" y="410.0" type="line" smooth="yes"/>
      <point x="551.65625" y="427.0"/>
      <point x="545.65625" y="437.0"/>
      <point x="533.65625" y="437.0" type="curve" smooth="yes"/>
      <point x="520.65625" y="437.0" type="line" smooth="yes"/>
      <point x="498.65625" y="437.0"/>
      <point x="463.65625" y="420.0"/>
    </contour>
  </outline>
</glyph>
<glyph name="b" format="2">
  <advance height="2310" width="1116"/>
  <unicode hex="0062"/>
  <anchor x="550.0" y="0.0" name="Anchor-1"/>
  <anchor x="737.0" y="1040.0" name="Anchor-0"/>
  <anchor x="737.0" y="1040.0" name="Anchor-0"/>
  <anchor x="550.0" y="0.0" name="Anchor-2"/>
  <outline>
    <contour>
      <point x="510.0" y="520.0" type="curve" smooth="yes"/>
      <point x="510.0" y="262.0"/>
      <point x="534.0" y="204.0"/>
      <point x="576.0" y="204.0" type="curve" smooth="yes"/>
      <point x="614.0" y="204.0"/>
      <point x="646.0" y="262.0"/>
      <point x="646.0" y="520.0" type="curve" smooth="yes"/>
      <point x="646.0" y="778.0"/>
      <point x="614.0" y="836.0"/>
      <point x="576.0" y="836.0" type="curve" smooth="yes"/>
      <point x="524.0" y="836.0"/>
      <point x="510.0" y="778.0"/>
    </contour>
    <contour>
      <point x="46.0" y="1350.0" type="line" smooth="yes"/>
      <point x="15.0" y="1350.0"/>
      <point x="10.0" y="1354.0"/>
      <point x="10.0" y="1384.0" type="curve" smooth="yes"/>
      <point x="10.0" y="1529.0" type="line" smooth="yes"/>
      <point x="10.0" y="1556.0"/>
      <point x="21.0" y="1560.0"/>
      <point x="46.0" y="1560.0" type="curve" smooth="yes"/>
      <point x="462.0" y="1560.0" type="line" smooth="yes"/>
      <point x="494.0" y="1560.0"/>
      <point x="510.0" y="1559.0"/>
      <point x="510.0" y="1524.0" type="curve" smooth="yes"/>
      <point x="510.0" y="943.0" type="line" smooth="yes"/>
      <point x="510.0" y="902.0"/>
      <point x="517.556640625" y="898.74609375"/>
      <point x="526.0" y="916.0" type="curve" smooth="yes"/>
      <point x="572.0" y="1010.0"/>
      <point x="608.0" y="1078.0"/>
      <point x="772.0" y="1078.0" type="curve" smooth="yes"/>
      <point x="1010.0" y="1078.0"/>
      <point x="1086.0" y="880.0"/>
      <point x="1086.0" y="520.0" type="curve" smooth="yes"/>
      <point x="1086.0" y="160.0"/>
      <point x="1000.0" y="-40.0"/>
      <point x="742.0" y="-40.0" type="curve" smooth="yes"/>
      <point x="608.0" y="-40.0"/>
      <point x="566.0" y="8.0"/>
      <point x="533.0" y="103.0" type="curve" smooth="yes"/>
      <point x="523.989257812" y="128.938476562"/>
      <point x="510.0" y="123.0"/>
      <point x="510.0" y="84.0" type="curve" smooth="yes"/>
      <point x="510.0" y="36.0" type="line" smooth="yes"/>
      <point x="510.0" y="2.0"/>
      <point x="497.0" y="0.0"/>
      <point x="466.0" y="0.0" type="curve" smooth="yes"/>
      <point x="44.0" y="0.0" type="line" smooth="yes"/>
      <point x="17.0" y="0.0"/>
      <point x="10.0" y="5.0"/>
      <point x="10.0" y="34.0" type="curve" smooth="yes"/>
      <point x="10.0" y="178.0" type="line" smooth="yes"/>
      <point x="10.0" y="207.0"/>
      <point x="23.0" y="210.0"/>
      <point x="50.0" y="210.0" type="curve" smooth="yes"/>
      <point x="52.0" y="210.0" type="line" smooth="yes"/>
      <point x="86.0" y="210.0"/>
      <point x="90.0" y="217.0"/>
      <point x="90.0" y="252.0" type="curve" smooth="yes"/>
      <point x="90.0" y="1323.0" type="line" smooth="yes"/>
      <point x="90.0" y="1343.0"/>
      <point x="87.0" y="1350.0"/>
      <point x="68.0" y="1350.0" type="curve" smooth="yes"/>
    </contour>
  </outline>
</glyph>
<glyph name="c" format="2">
  <advance height="2310" width="988"/>
  <unicode hex="0063"/>
  <anchor x="564.0" y="0.0" name="Anchor-2"/>
  <anchor x="566.0" y="1040.0" name="Anchor-0"/>
  <anchor x="566.0" y="1040.0" name="Anchor-0"/>
  <anchor x="564.0" y="0.0" name="Anchor-1"/>
  <anchor x="566.0" y="1040.0" name="Anchor-0"/>
  <anchor x="564.0" y="0.0" name="Anchor-1"/>
  <outline>
    <contour>
      <point x="30.0" y="510.0" type="curve" smooth="yes"/>
      <point x="30.0" y="810.0"/>
      <point x="146.0" y="1080.0"/>
      <point x="558.0" y="1080.0" type="curve" smooth="yes"/>
      <point x="882.0" y="1080.0"/>
      <point x="958.0" y="918.0"/>
      <point x="958.0" y="744.0" type="curve" smooth="yes"/>
      <point x="958.0" y="588.0"/>
      <point x="830.0" y="500.0"/>
      <point x="692.0" y="500.0" type="curve" smooth="yes"/>
      <point x="558.0" y="500.0"/>
      <point x="508.0" y="552.0"/>
      <point x="508.0" y="666.0" type="curve" smooth="yes"/>
      <point x="508.0" y="788.0"/>
      <point x="590.0" y="788.0"/>
      <point x="590.0" y="852.0" type="curve" smooth="yes"/>
      <point x="590.0" y="878.0"/>
      <point x="574.0" y="898.0"/>
      <point x="548.0" y="898.0" type="curve" smooth="yes"/>
      <point x="478.0" y="898.0"/>
      <point x="470.0" y="788.0"/>
      <point x="470.0" y="510.0" type="curve" smooth="yes"/>
      <point x="470.0" y="212.0"/>
      <point x="492.0" y="166.0"/>
      <point x="560.0" y="166.0" type="curve" smooth="yes"/>
      <point x="608.0" y="166.0"/>
      <point x="625.0" y="238.0"/>
      <point x="633.0" y="321.0" type="curve" smooth="yes"/>
      <point x="635.104492188" y="342.831054688"/>
      <point x="651.0" y="346.0"/>
      <point x="682.0" y="346.0" type="curve" smooth="yes"/>
      <point x="928.0" y="346.0" type="line" smooth="yes"/>
      <point x="962.0" y="346.0"/>
      <point x="959.22265625" y="342.891601562"/>
      <point x="959.0" y="315.0" type="curve" smooth="yes"/>
      <point x="957.0" y="64.0"/>
      <point x="828.0" y="-40.0"/>
      <point x="526.0" y="-40.0" type="curve" smooth="yes"/>
      <point x="114.0" y="-40.0"/>
      <point x="30.0" y="230.0"/>
    </contour>
  </outline>
</glyph>
<glyph name="d" format="2">
  <advance height="2310" width="1116"/>
  <unicode hex="0064"/>
  <anchor x="1289.0" y="1040.0" name="Anchor-3"/>
  <anchor x="522.0" y="0.0" name="Anchor-1"/>
  <anchor x="401.0" y="1040.0" name="Anchor-0"/>
  <anchor x="401.0" y="1040.0" name="Anchor-0"/>
  <anchor x="1289.0" y="1040.0" name="Anchor-1"/>
  <anchor x="522.0" y="0.0" name="Anchor-2"/>
  <outline>
    <contour>
      <point x="470.0" y="518.0" type="curve" smooth="yes"/>
      <point x="470.0" y="250.0"/>
      <point x="492.0" y="202.0"/>
      <point x="540.0" y="202.0" type="curve" smooth="yes"/>
      <point x="582.0" y="202.0"/>
      <point x="606.0" y="250.0"/>
      <point x="606.0" y="518.0" type="curve" smooth="yes"/>
      <point x="606.0" y="786.0"/>
      <point x="582.0" y="834.0"/>
      <point x="540.0" y="834.0" type="curve" smooth="yes"/>
      <point x="502.0" y="834.0"/>
      <point x="470.0" y="786.0"/>
    </contour>
    <contour>
      <point x="30.0" y="518.0" type="curve" smooth="yes"/>
      <point x="30.0" y="878.0"/>
      <point x="116.001953125" y="1079.11425781"/>
      <point x="374.0" y="1078.0" type="curve" smooth="yes"/>
      <point x="483.0" y="1077.52929688"/>
      <point x="553.0" y="1020.96972656"/>
      <point x="587.0" y="935.0" type="curve" smooth="yes"/>
      <point x="599.552734375" y="903.259765625"/>
      <point x="606.0" y="918.0"/>
      <point x="606.0" y="973.0" type="curve" smooth="yes"/>
      <point x="606.0" y="1324.0" type="line" smooth="yes"/>
      <point x="606.0" y="1345.0"/>
      <point x="598.0" y="1350.0"/>
      <point x="579.0" y="1350.0" type="curve" smooth="yes"/>
      <point x="561.0" y="1350.0" type="line" smooth="yes"/>
      <point x="530.0" y="1350.0"/>
      <point x="526.0" y="1351.0"/>
      <point x="526.0" y="1382.0" type="curve" smooth="yes"/>
      <point x="526.0" y="1522.0" type="line" smooth="yes"/>
      <point x="526.0" y="1557.0"/>
      <point x="534.0" y="1560.0"/>
      <point x="570.0" y="1560.0" type="curve" smooth="yes"/>
      <point x="991.0" y="1560.0" type="line" smooth="yes"/>
      <point x="1016.0" y="1560.0"/>
      <point x="1026.0" y="1556.0"/>
      <point x="1026.0" y="1529.0" type="curve" smooth="yes"/>
      <point x="1026.0" y="255.0" type="line" smooth="yes"/>
      <point x="1026.0" y="216.0"/>
      <point x="1030.0" y="210.0"/>
      <point x="1068.0" y="210.0" type="curve" smooth="yes"/>
      <point x="1083.0" y="210.0" type="line" smooth="yes"/>
      <point x="1105.0" y="210.0"/>
      <point x="1106.0" y="201.0"/>
      <point x="1106.0" y="178.0" type="curve" smooth="yes"/>
      <point x="1106.0" y="35.0" type="line" smooth="yes"/>
      <point x="1106.0" y="4.0"/>
      <point x="1100.0" y="0.0"/>
      <point x="1068.0" y="0.0" type="curve" smooth="yes"/>
      <point x="637.0" y="0.0" type="line" smooth="yes"/>
      <point x="609.0" y="0.0"/>
      <point x="606.0" y="7.0"/>
      <point x="606.0" y="36.0" type="curve" smooth="yes"/>
      <point x="606.0" y="87.0" type="line" smooth="yes"/>
      <point x="606.0" y="111.0"/>
      <point x="594.373046875" y="129.083007812"/>
      <point x="581.0" y="98.0" type="curve" smooth="yes"/>
      <point x="544.0" y="12.0"/>
      <point x="480.0" y="-40.0"/>
      <point x="354.0" y="-40.0" type="curve" smooth="yes"/>
      <point x="96.0" y="-40.0"/>
      <point x="30.0" y="158.0"/>
    </contour>
  </outline>
</glyph>
<glyph name="e" format="2">
  <advance height="2310" width="968"/>
  <unicode hex="0065"/>
  <anchor x="798.0" y="102.0" name="Anchor-2"/>
  <anchor x="567.0" y="0.0" name="Anchor-1"/>
  <anchor x="535.0" y="1040.0" name="Anchor-0"/>
  <anchor x="535.0" y="1040.0" name="Anchor-0"/>
  <anchor x="567.0" y="0.0" name="Anchor-2"/>
  <anchor x="798.0" y="102.0" name="Anchor-3"/>
  <outline>
    <contour>
      <point x="30.0" y="500.0" type="curve" smooth="yes"/>
      <point x="30.0" y="820.0"/>
      <point x="128.0" y="1080.0"/>
      <point x="530.0" y="1080.0" type="curve" smooth="yes"/>
      <point x="860.0" y="1080.0"/>
      <point x="938.0" y="816.0"/>
      <point x="938.0" y="490.0" type="curve" smooth="yes"/>
      <point x="938.0" y="459.0"/>
      <point x="934.0" y="452.0"/>
      <point x="904.0" y="452.0" type="curve" smooth="yes"/>
      <point x="478.0" y="452.0" type="line" smooth="yes"/>
      <point x="450.0" y="452.0"/>
      <point x="454.823242188" y="447.079101562"/>
      <point x="455.0" y="422.0" type="curve" smooth="yes"/>
      <point x="456.0" y="280.0"/>
      <point x="457.0" y="166.0"/>
      <point x="530.0" y="166.0" type="curve" smooth="yes"/>
      <point x="599.0" y="166.0"/>
      <point x="606.0" y="218.0"/>
      <point x="614.0" y="322.0" type="curve" smooth="yes"/>
      <point x="615.26953125" y="338.50390625"/>
      <point x="626.0" y="346.0"/>
      <point x="650.0" y="346.0" type="curve" smooth="yes"/>
      <point x="902.0" y="346.0" type="line" smooth="yes"/>
      <point x="930.0" y="346.0"/>
      <point x="931.763671875" y="342.4921875"/>
      <point x="930.0" y="320.0" type="curve" smooth="yes"/>
      <point x="910.0" y="65.0"/>
      <point x="780.0" y="-40.0"/>
      <point x="496.0" y="-40.0" type="curve" smooth="yes"/>
      <point x="124.0" y="-40.0"/>
      <point x="30.0" y="220.0"/>
    </contour>
    <contour>
      <point x="486.0" y="658.0" type="curve" smooth="yes"/>
      <point x="522.0" y="658.0" type="line" smooth="yes"/>
      <point x="550.0" y="658.0"/>
      <point x="547.016601562" y="657.944335938"/>
      <point x="548.0" y="685.0" type="curve" smooth="yes"/>
      <point x="552.0" y="795.0"/>
      <point x="546.0" y="882.0"/>
      <point x="508.0" y="882.0" type="curve" smooth="yes"/>
      <point x="462.0" y="882.0"/>
      <point x="464.0" y="806.0"/>
      <point x="460.0" y="695.0" type="curve" smooth="yes"/>
      <point x="458.9453125" y="665.744140625"/>
      <point x="451.0" y="658.0"/>
    </contour>
  </outline>
</glyph>
<glyph name="f" format="2">
  <advance width="700"/>
  <unicode hex="0066"/>
  <anchor x="539.0" y="1692.0" name="Anchor-0"/>
  <anchor x="321.0" y="0.0" name="Anchor-1"/>
  <anchor x="321.0" y="0.0" name="Anchor-2"/>
  <outline>
    <contour>
      <point x="510.0" y="787.0" type="curve" smooth="yes"/>
      <point x="510.0" y="248.0" type="line" smooth="yes"/>
      <point x="510.0" y="215.0"/>
      <point x="516.0" y="210.0"/>
      <point x="551.0" y="210.0" type="curve" smooth="yes"/>
      <point x="593.0" y="210.0" type="line" smooth="yes"/>
      <point x="632.0" y="210.0"/>
      <point x="650.0" y="206.0"/>
      <point x="650.0" y="163.0" type="curve" smooth="yes"/>
      <point x="650.0" y="46.0" type="line" smooth="yes"/>
      <point x="650.0" y="3.0"/>
      <point x="643.0" y="0.0"/>
      <point x="599.0" y="0.0" type="curve" smooth="yes"/>
      <point x="67.0" y="0.0" type="line" smooth="yes"/>
      <point x="25.0" y="0.0"/>
      <point x="10.0" y="6.0"/>
      <point x="10.0" y="51.0" type="curve" smooth="yes"/>
      <point x="10.0" y="155.0" type="line" smooth="yes"/>
      <point x="10.0" y="196.0"/>
      <point x="12.0" y="210.0"/>
      <point x="43.0" y="210.0" type="curve" smooth="yes"/>
      <point x="51.0" y="210.0" type="line" smooth="yes"/>
      <point x="71.0" y="210.0"/>
      <point x="90.0" y="212.0"/>
      <point x="90.0" y="252.0" type="curve" smooth="yes"/>
      <point x="90.0" y="796.0" type="line" smooth="yes"/>
      <point x="90.0" y="822.0"/>
      <point x="88.0" y="830.0"/>
      <point x="63.0" y="830.0" type="curve" smooth="yes"/>
      <point x="51.0" y="830.0" type="line" smooth="yes"/>
      <point x="20.0" y="830.0"/>
      <point x="10.0" y="831.0"/>
      <point x="10.0" y="862.0" type="curve" smooth="yes"/>
      <point x="10.0" y="1000.0" type="line" smooth="yes"/>
      <point x="10.0" y="1031.0"/>
      <point x="14.0" y="1040.0"/>
      <point x="47.0" y="1040.0" type="curve" smooth="yes"/>
      <point x="51.0" y="1040.0" type="line" smooth="yes"/>
      <point x="84.0" y="1040.0"/>
      <point x="90.0" y="1046.0"/>
      <point x="90.0" y="1078.0" type="curve" smooth="yes"/>
      <point x="90.0" y="1144.0" type="line" smooth="yes"/>
      <point x="90.0" y="1366.0"/>
      <point x="194.0" y="1600.0"/>
      <point x="554.0" y="1600.0" type="curve" smooth="yes"/>
      <point x="856.0" y="1600.0"/>
      <point x="950.0" y="1462.0"/>
      <point x="950.0" y="1308.0" type="curve" smooth="yes"/>
      <point x="950.0" y="1148.0"/>
      <point x="840.0" y="1086.0"/>
      <point x="716.0" y="1086.0" type="curve" smooth="yes"/>
      <point x="592.0" y="1086.0"/>
      <point x="526.0" y="1162.0"/>
      <point x="526.0" y="1272.0" type="curve" smooth="yes"/>
      <point x="526.0" y="1366.0"/>
      <point x="578.0" y="1380.0"/>
      <point x="578.0" y="1402.0" type="curve" smooth="yes"/>
      <point x="578.0" y="1416.0"/>
      <point x="560.0" y="1426.0"/>
      <point x="540.0" y="1426.0" type="curve" smooth="yes"/>
      <point x="430.0" y="1426.0"/>
      <point x="510.0" y="1234.0"/>
      <point x="510.0" y="1100.0" type="curve" smooth="yes"/>
      <point x="510.0" y="1063.0" type="line" smooth="yes"/>
      <point x="510.0" y="1042.0"/>
      <point x="515.0" y="1040.0"/>
      <point x="535.0" y="1040.0" type="curve" smooth="yes"/>
      <point x="616.0" y="1040.0" type="line" smooth="yes"/>
      <point x="649.0" y="1040.0"/>
      <point x="650.0" y="1036.0"/>
      <point x="650.0" y="1004.0" type="curve" smooth="yes"/>
      <point x="650.0" y="867.0" type="line" smooth="yes"/>
      <point x="650.0" y="834.0"/>
      <point x="648.0" y="830.0"/>
      <point x="615.0" y="830.0" type="curve" smooth="yes"/>
      <point x="557.0" y="830.0" type="line" smooth="yes"/>
      <point x="520.0" y="830.0"/>
      <point x="510.0" y="824.0"/>
    </contour>
  </outline>
</glyph>
<glyph name="g" format="2">
  <advance width="879"/>
  <unicode hex="0067"/>
  <anchor x="582.0" y="1040.0" name="Anchor-0"/>
  <anchor x="506.0" y="-565.0" name="Anchor-1"/>
  <anchor x="506.0" y="-565.0" name="Anchor-2"/>
  <outline>
    <contour>
      <point x="385.0" y="710.0" type="curve" smooth="yes"/>
      <point x="385.0" y="542.0"/>
      <point x="395.0" y="520.0"/>
      <point x="423.0" y="520.0" type="curve" smooth="yes"/>
      <point x="451.0" y="520.0"/>
      <point x="461.0" y="542.0"/>
      <point x="461.0" y="710.0" type="curve" smooth="yes"/>
      <point x="461.0" y="878.0"/>
      <point x="451.0" y="900.0"/>
      <point x="423.0" y="900.0" type="curve" smooth="yes"/>
      <point x="395.0" y="900.0"/>
      <point x="385.0" y="878.0"/>
    </contour>
    <contour>
      <point x="25.0" y="710.0" type="curve" smooth="yes"/>
      <point x="25.0" y="950.0"/>
      <point x="211.0" y="1080.0"/>
      <point x="373.0" y="1080.0" type="curve" smooth="yes"/>
      <point x="375.147460938" y="1080.0"/>
      <point x="377.143554688" y="1080.00097656"/>
      <point x="379.0" y="1080.00976562" type="curve" smooth="yes"/>
      <point x="405.233398438" y="1080.140625"/>
      <point x="403.5703125" y="1082.02539062"/>
      <point x="408.379882812" y="1109.0" type="curve" smooth="yes"/>
      <point x="431.639648438" y="1239.47265625"/>
      <point x="483.1015625" y="1382.00488281"/>
      <point x="692.228515625" y="1382.00488281" type="curve" smooth="yes"/>
      <point x="820.853515625" y="1382.00488281"/>
      <point x="903.518554688" y="1296.45507812"/>
      <point x="903.518554688" y="1196.10839844" type="curve" smooth="yes"/>
      <point x="903.518554688" y="1113.4453125"/>
      <point x="854.260742188" y="1015.13476562"/>
      <point x="768.647460938" y="1015.13476562" type="curve" smooth="yes"/>
      <point x="704.6015625" y="1015.13476562"/>
      <point x="640.395507812" y="1068.76074219"/>
      <point x="640.395507812" y="1125.58789062" type="curve" smooth="yes"/>
      <point x="640.395507812" y="1133.03515625"/>
      <point x="641.051757812" y="1139.59960938"/>
      <point x="641.051757812" y="1145.17382812" type="curve" smooth="yes"/>
      <point x="641.051757812" y="1153.03808594"/>
      <point x="638.373046875" y="1163.12890625"/>
      <point x="630.817382812" y="1163.12890625" type="curve" smooth="yes"/>
      <point x="605.2734375" y="1163.12890625"/>
      <point x="594.616210938" y="1101.9375"/>
      <point x="592.325195312" y="1080.0" type="curve" smooth="yes"/>
      <point x="589.796875" y="1055.78710938"/>
      <point x="589.142578125" y="1050.57128906"/>
      <point x="606.78125" y="1043.0" type="curve" smooth="yes"/>
      <point x="737.545898438" y="986.872070312"/>
      <point x="831.0" y="870.611328125"/>
      <point x="831.0" y="720.0" type="curve" smooth="yes"/>
      <point x="831.0" y="480.0"/>
      <point x="655.0" y="340.0"/>
      <point x="423.0" y="340.0" type="curve" smooth="yes"/>
      <point x="418.0" y="340.0"/>
      <point x="404.0" y="341.0"/>
      <point x="391.0" y="342.0" type="curve" smooth="yes"/>
      <point x="381.989257812" y="342.693359375"/>
      <point x="373.51171875" y="340.51171875"/>
      <point x="363.0" y="330.0" type="curve" smooth="yes"/>
      <point x="354.0" y="321.0"/>
      <point x="345.0" y="312.0"/>
      <point x="345.0" y="294.0" type="curve" smooth="yes"/>
      <point x="345.0" y="266.0"/>
      <point x="359.0" y="238.0"/>
      <point x="429.0" y="238.0" type="curve" smooth="yes"/>
      <point x="479.0" y="238.0"/>
      <point x="545.0" y="240.0"/>
      <point x="611.0" y="240.0" type="curve" smooth="yes"/>
      <point x="811.0" y="240.0"/>
      <point x="905.0" y="108.0"/>
      <point x="905.0" y="-124.0" type="curve" smooth="yes"/>
      <point x="905.0" y="-406.0"/>
      <point x="735.0" y="-530.0"/>
      <point x="425.0" y="-530.0" type="curve" smooth="yes"/>
      <point x="119.0" y="-530.0"/>
      <point x="-5.0" y="-420.0"/>
      <point x="-5.0" y="-270.0" type="curve" smooth="yes"/>
      <point x="-5.0" y="-169.0"/>
      <point x="38.0" y="-100.0"/>
      <point x="129.0" y="-55.0" type="curve" smooth="yes"/>
      <point x="156.802734375" y="-41.251953125"/>
      <point x="156.0" y="-37.0"/>
      <point x="133.0" y="-21.0" type="curve" smooth="yes"/>
      <point x="65.0" y="26.0"/>
      <point x="19.0" y="87.0"/>
      <point x="19.0" y="168.0" type="curve" smooth="yes"/>
      <point x="19.0" y="275.0"/>
      <point x="83.0" y="343.0"/>
      <point x="186.0" y="391.0" type="curve" smooth="yes"/>
      <point x="213.0" y="404.0"/>
      <point x="212.0" y="413.0"/>
      <point x="191.0" y="426.0" type="curve" smooth="yes"/>
      <point x="91.0" y="489.0"/>
      <point x="25.0" y="584.0"/>
    </contour>
    <contour>
      <point x="597.0" y="-202.0" type="curve" smooth="yes"/>
      <point x="597.0" y="-134.0"/>
      <point x="575.0" y="-104.0"/>
      <point x="535.0" y="-104.0" type="curve" smooth="yes"/>
      <point x="513.0" y="-104.0"/>
      <point x="499.0" y="-104.0"/>
      <point x="485.0" y="-104.0" type="curve" smooth="yes"/>
      <point x="463.0" y="-104.0"/>
      <point x="443.0" y="-104.0"/>
      <point x="421.0" y="-102.0" type="curve" smooth="yes"/>
      <point x="399.874023438" y="-100.079101562"/>
      <point x="384.0" y="-97.0"/>
      <point x="371.0" y="-110.0" type="curve" smooth="yes"/>
      <point x="346.0" y="-135.0"/>
      <point x="335.0" y="-174.0"/>
      <point x="335.0" y="-204.0" type="curve" smooth="yes"/>
      <point x="335.0" y="-300.0"/>
      <point x="395.0" y="-326.0"/>
      <point x="457.0" y="-326.0" type="curve" smooth="yes"/>
      <point x="535.0" y="-326.0"/>
      <point x="597.0" y="-276.0"/>
    </contour>
  </outline>
</glyph>
<glyph name="i" format="2">
  <advance width="600"/>
  <unicode hex="0069"/>
  <anchor x="292.0" y="0.0" name="Anchor-1"/>
  <anchor x="292.0" y="0.0" name="Anchor-2"/>
  <outline>
    <contour>
      <point x="50.0" y="1380.0" type="curve" smooth="yes"/>
      <point x="50.0" y="1516.0"/>
      <point x="158.0" y="1590.0"/>
      <point x="290.0" y="1590.0" type="curve" smooth="yes"/>
      <point x="422.0" y="1590.0"/>
      <point x="530.0" y="1516.0"/>
      <point x="530.0" y="1380.0" type="curve" smooth="yes"/>
      <point x="530.0" y="1244.0"/>
      <point x="422.0" y="1170.0"/>
      <point x="290.0" y="1170.0" type="curve" smooth="yes"/>
      <point x="158.0" y="1170.0"/>
      <point x="50.0" y="1244.0"/>
    </contour>
    <contour>
      <point x="71.0" y="830.0" type="curve" smooth="yes"/>
      <point x="36.0" y="830.0" type="line" smooth="yes"/>
      <point x="18.0" y="830.0"/>
      <point x="10.0" y="833.0"/>
      <point x="10.0" y="850.0" type="curve" smooth="yes"/>
      <point x="10.0" y="1012.0" type="line" smooth="yes"/>
      <point x="10.0" y="1035.0"/>
      <point x="18.0" y="1040.0"/>
      <point x="40.0" y="1040.0" type="curve" smooth="yes"/>
      <point x="485.0" y="1040.0" type="line" smooth="yes"/>
      <point x="504.0" y="1040.0"/>
      <point x="510.0" y="1039.0"/>
      <point x="510.0" y="1020.0" type="curve" smooth="yes"/>
      <point x="510.0" y="235.0" type="line" smooth="yes"/>
      <point x="510.0" y="215.0"/>
      <point x="511.0" y="210.0"/>
      <point x="531.0" y="210.0" type="curve" smooth="yes"/>
      <point x="562.0" y="210.0" type="line" smooth="yes"/>
      <point x="585.0" y="210.0"/>
      <point x="590.0" y="209.0"/>
      <point x="590.0" y="186.0" type="curve" smooth="yes"/>
      <point x="590.0" y="31.0" type="line" smooth="yes"/>
      <point x="590.0" y="2.0"/>
      <point x="582.0" y="0.0"/>
      <point x="552.0" y="0.0" type="curve" smooth="yes"/>
      <point x="34.0" y="0.0" type="line" smooth="yes"/>
      <point x="14.0" y="0.0"/>
      <point x="10.0" y="4.0"/>
      <point x="10.0" y="25.0" type="curve" smooth="yes"/>
      <point x="10.0" y="181.0" type="line" smooth="yes"/>
      <point x="10.0" y="206.0"/>
      <point x="13.0" y="210.0"/>
      <point x="37.0" y="210.0" type="curve" smooth="yes"/>
      <point x="64.0" y="210.0" type="line" smooth="yes"/>
      <point x="85.0" y="210.0"/>
      <point x="90.0" y="211.0"/>
      <point x="90.0" y="232.0" type="curve" smooth="yes"/>
      <point x="90.0" y="804.0" type="line" smooth="yes"/>
      <point x="90.0" y="821.0"/>
      <point x="87.0" y="830.0"/>
    </contour>
  </outline>
</glyph>
<glyph name="k" format="2">
  <advance height="2310" width="1192"/>
  <unicode hex="006B"/>
  <anchor x="561.0" y="0.0" name="Anchor-1"/>
  <anchor x="895.0" y="1040.0" name="Anchor-0"/>
  <anchor x="895.0" y="1040.0" name="Anchor-0"/>
  <anchor x="561.0" y="0.0" name="Anchor-2"/>
  <outline>
    <contour>
      <point x="63.0" y="1350.0" type="curve" smooth="yes"/>
      <point x="51.0" y="1350.0" type="line" smooth="yes"/>
      <point x="14.0" y="1350.0"/>
      <point x="10.0" y="1358.0"/>
      <point x="10.0" y="1392.0" type="curve" smooth="yes"/>
      <point x="10.0" y="1516.0" type="line" smooth="yes"/>
      <point x="10.0" y="1553.0"/>
      <point x="23.0" y="1560.0"/>
      <point x="59.0" y="1560.0" type="curve" smooth="yes"/>
      <point x="455.0" y="1560.0" type="line" smooth="yes"/>
      <point x="500.0" y="1560.0"/>
      <point x="510.0" y="1559.0"/>
      <point x="510.0" y="1514.0" type="curve" smooth="yes"/>
      <point x="510.0" y="671.0" type="line" smooth="yes"/>
      <point x="510.0" y="612.0"/>
      <point x="557.395694785" y="624.957472874"/>
      <point x="571.0" y="651.0" type="curve" smooth="yes"/>
      <point x="671.0" y="785.0" type="line" smooth="yes"/>
      <point x="681.002929688" y="804.147460938"/>
      <point x="669.0" y="810.0"/>
      <point x="653.0" y="810.0" type="curve" smooth="yes"/>
      <point x="644.0" y="810.0" type="line" smooth="yes"/>
      <point x="606.0" y="810.0"/>
      <point x="598.0" y="813.0"/>
      <point x="598.0" y="850.0" type="curve" smooth="yes"/>
      <point x="598.0" y="1000.0" type="line" smooth="yes"/>
      <point x="598.0" y="1038.0"/>
      <point x="610.0" y="1040.0"/>
      <point x="645.0" y="1040.0" type="curve" smooth="yes"/>
      <point x="1117.0" y="1040.0" type="line" smooth="yes"/>
      <point x="1151.0" y="1040.0"/>
      <point x="1154.0" y="1033.0"/>
      <point x="1154.0" y="998.0" type="curve" smooth="yes"/>
      <point x="1154.0" y="853.0" type="line" smooth="yes"/>
      <point x="1154.0" y="823.0"/>
      <point x="1152.0" y="810.0"/>
      <point x="1123.0" y="810.0" type="curve" smooth="yes"/>
      <point x="1085.0" y="810.0" type="line" smooth="yes"/>
      <point x="1069.0" y="810.0"/>
      <point x="1048.70703125" y="806.953125"/>
      <point x="1039.0" y="787.0" type="curve" smooth="yes"/>
      <point x="937.0" y="639.0" type="line" smooth="yes"/>
      <point x="917.171293562" y="598.240992321"/>
      <point x="927.273969047" y="589.632932973"/>
      <point x="938.0" y="560.0" type="curve" smooth="yes"/>
      <point x="1056.0" y="234.0" type="line" smooth="yes"/>
      <point x="1063.35599496" y="213.67750546"/>
      <point x="1083.0" y="210.0"/>
      <point x="1117.0" y="210.0" type="curve" smooth="yes"/>
      <point x="1161.0" y="210.0" type="line" smooth="yes"/>
      <point x="1193.0" y="210.0"/>
      <point x="1202.0" y="208.0"/>
      <point x="1202.0" y="176.0" type="curve" smooth="yes"/>
      <point x="1202.0" y="36.0" type="line" smooth="yes"/>
      <point x="1202.0" y="3.0"/>
      <point x="1195.0" y="0.0"/>
      <point x="1161.0" y="0.0" type="curve" smooth="yes"/>
      <point x="608.0" y="0.0" type="line" smooth="yes"/>
      <point x="579.0" y="0.0"/>
      <point x="571.0" y="2.0"/>
      <point x="571.0" y="30.0" type="curve" smooth="yes"/>
      <point x="571.0" y="172.0" type="line" smooth="yes"/>
      <point x="571.0" y="205.0"/>
      <point x="577.0" y="210.0"/>
      <point x="602.0" y="210.0" type="curve" smooth="yes"/>
      <point x="607.0" y="210.0" type="line" smooth="yes"/>
      <point x="621.0" y="210.0"/>
      <point x="627.287386601" y="211.777137494"/>
      <point x="620.0" y="236.0" type="curve" smooth="yes"/>
      <point x="549.0" y="472.0" type="line" smooth="yes"/>
      <point x="539.283484532" y="504.297150007"/>
      <point x="510.0" y="527.0"/>
      <point x="510.0" y="468.0" type="curve" smooth="yes"/>
      <point x="510.0" y="252.0" type="line" smooth="yes"/>
      <point x="510.0" y="218.0"/>
      <point x="515.0" y="210.0"/>
      <point x="532.0" y="210.0" type="curve" smooth="yes"/>
      <point x="534.0" y="210.0" type="line" smooth="yes"/>
      <point x="548.0" y="210.0"/>
      <point x="550.0" y="204.0"/>
      <point x="550.0" y="178.0" type="curve" smooth="yes"/>
      <point x="550.0" y="36.0" type="line" smooth="yes"/>
      <point x="550.0" y="2.0"/>
      <point x="542.0" y="0.0"/>
      <point x="507.0" y="0.0" type="curve" smooth="yes"/>
      <point x="63.0" y="0.0" type="line" smooth="yes"/>
      <point x="26.0" y="0.0"/>
      <point x="10.0" y="4.0"/>
      <point x="10.0" y="40.0" type="curve" smooth="yes"/>
      <point x="10.0" y="168.0" type="line" smooth="yes"/>
      <point x="10.0" y="201.0"/>
      <point x="14.0" y="210.0"/>
      <point x="49.0" y="210.0" type="curve" smooth="yes"/>
      <point x="61.0" y="210.0" type="line" smooth="yes"/>
      <point x="89.0" y="210.0"/>
      <point x="90.0" y="219.0"/>
      <point x="90.0" y="268.0" type="curve" smooth="yes"/>
      <point x="90.0" y="1302.0" type="line" smooth="yes"/>
      <point x="90.0" y="1339.0"/>
      <point x="81.0" y="1350.0"/>
    </contour>
  </outline>
</glyph>
<glyph name="l" format="2">
  <advance width="600"/>
  <unicode hex="006C"/>
  <anchor x="298.0" y="1696.0" name="Anchor-0"/>
  <anchor x="761.0" y="1040.0" name="Anchor-1"/>
  <anchor x="305.0" y="0.0" name="Anchor-2"/>
  <anchor x="761.0" y="1040.0" name="Anchor-3"/>
  <outline>
    <contour>
      <point x="61.0" y="1350.0" type="curve" smooth="yes"/>
      <point x="57.0" y="1350.0" type="line" smooth="yes"/>
      <point x="21.0" y="1350.0"/>
      <point x="10.0" y="1363.0"/>
      <point x="10.0" y="1416.0" type="curve" smooth="yes"/>
      <point x="10.0" y="1496.0" type="line" smooth="yes"/>
      <point x="10.0" y="1558.0"/>
      <point x="18.0" y="1560.0"/>
      <point x="81.0" y="1560.0" type="curve" smooth="yes"/>
      <point x="447.0" y="1560.0" type="line" smooth="yes"/>
      <point x="503.0" y="1560.0"/>
      <point x="510.0" y="1556.0"/>
      <point x="510.0" y="1498.0" type="curve" smooth="yes"/>
      <point x="510.0" y="262.0" type="line" smooth="yes"/>
      <point x="510.0" y="215.0"/>
      <point x="516.0" y="210.0"/>
      <point x="551.0" y="210.0" type="curve" smooth="yes"/>
      <point x="557.0" y="210.0" type="line" smooth="yes"/>
      <point x="584.0" y="210.0"/>
      <point x="590.0" y="205.0"/>
      <point x="590.0" y="176.0" type="curve" smooth="yes"/>
      <point x="590.0" y="54.0" type="line" smooth="yes"/>
      <point x="590.0" y="3.0"/>
      <point x="583.0" y="0.0"/>
      <point x="531.0" y="0.0" type="curve" smooth="yes"/>
      <point x="51.0" y="0.0" type="line" smooth="yes"/>
      <point x="19.0" y="0.0"/>
      <point x="10.0" y="2.0"/>
      <point x="10.0" y="34.0" type="curve" smooth="yes"/>
      <point x="10.0" y="166.0" type="line" smooth="yes"/>
      <point x="10.0" y="201.0"/>
      <point x="12.0" y="210.0"/>
      <point x="47.0" y="210.0" type="curve" smooth="yes"/>
      <point x="59.0" y="210.0" type="line" smooth="yes"/>
      <point x="74.0" y="210.0"/>
      <point x="90.0" y="214.0"/>
      <point x="90.0" y="270.0" type="curve" smooth="yes"/>
      <point x="90.0" y="1298.0" type="line" smooth="yes"/>
      <point x="90.0" y="1348.0"/>
      <point x="88.0" y="1350.0"/>
    </contour>
  </outline>
</glyph>
<glyph name="m" format="2">
  <advance height="2310" width="1640"/>
  <unicode hex="006D"/>
  <anchor x="805.0" y="0.0" name="Anchor-1"/>
  <anchor x="864.0" y="1040.0" name="Anchor-0"/>
  <anchor x="864.0" y="1040.0" name="Anchor-0"/>
  <anchor x="805.0" y="0.0" name="Anchor-2"/>
  <outline>
    <contour>
      <point x="10.0" y="38.0" type="curve" smooth="yes"/>
      <point x="10.0" y="166.0" type="line" smooth="yes"/>
      <point x="10.0" y="194.0"/>
      <point x="12.0" y="210.0"/>
      <point x="43.0" y="210.0" type="curve" smooth="yes"/>
      <point x="59.0" y="210.0" type="line" smooth="yes"/>
      <point x="89.0" y="210.0"/>
      <point x="90.0" y="219.0"/>
      <point x="90.0" y="250.0" type="curve" smooth="yes"/>
      <point x="90.0" y="784.0" type="line" smooth="yes"/>
      <point x="90.0" y="827.0"/>
      <point x="83.0" y="830.0"/>
      <point x="69.0" y="830.0" type="curve" smooth="yes"/>
      <point x="54.0" y="830.0" type="line" smooth="yes"/>
      <point x="25.0" y="830.0"/>
      <point x="10.0" y="831.0"/>
      <point x="10.0" y="870.0" type="curve" smooth="yes"/>
      <point x="10.0" y="991.0" type="line" smooth="yes"/>
      <point x="10.0" y="1032.0"/>
      <point x="20.0" y="1040.0"/>
      <point x="59.0" y="1040.0" type="curve" smooth="yes"/>
      <point x="422.0" y="1040.0" type="line" smooth="yes"/>
      <point x="456.0" y="1040.0"/>
      <point x="470.0" y="1038.0"/>
      <point x="470.0" y="1004.0" type="curve" smooth="yes"/>
      <point x="470.0" y="938.0" type="line" smooth="yes"/>
      <point x="470.0" y="907.0"/>
      <point x="481.227383252" y="892.073584747"/>
      <point x="502.0" y="943.0" type="curve" smooth="yes"/>
      <point x="533.0" y="1019.0"/>
      <point x="603.0" y="1080.0"/>
      <point x="726.0" y="1080.0" type="curve" smooth="yes"/>
      <point x="829.0" y="1080.0"/>
      <point x="906.16796875" y="1042.16210938"/>
      <point x="942.0" y="971.0" type="curve" smooth="yes"/>
      <point x="957.978600352" y="939.26663557"/>
      <point x="970.453225704" y="928.184975652"/>
      <point x="995.0" y="962.0" type="curve" smooth="yes"/>
      <point x="1058.80664062" y="1049.8984375"/>
      <point x="1150.0" y="1080.0"/>
      <point x="1236.0" y="1080.0" type="curve" smooth="yes"/>
      <point x="1430.0" y="1080.0"/>
      <point x="1550.0" y="952.0"/>
      <point x="1550.0" y="738.0" type="curve" smooth="yes"/>
      <point x="1550.0" y="248.0" type="line" smooth="yes"/>
      <point x="1550.0" y="212.0"/>
      <point x="1558.0" y="210.0"/>
      <point x="1585.0" y="210.0" type="curve" smooth="yes"/>
      <point x="1595.0" y="210.0" type="line" smooth="yes"/>
      <point x="1620.0" y="210.0"/>
      <point x="1630.0" y="205.0"/>
      <point x="1630.0" y="168.0" type="curve" smooth="yes"/>
      <point x="1630.0" y="56.0" type="line" smooth="yes"/>
      <point x="1630.0" y="12.0"/>
      <point x="1629.0" y="0.0"/>
      <point x="1585.0" y="0.0" type="curve" smooth="yes"/>
      <point x="1142.0" y="0.0" type="line" smooth="yes"/>
      <point x="1101.0" y="0.0"/>
      <point x="1091.0" y="5.0"/>
      <point x="1091.0" y="44.0" type="curve" smooth="yes"/>
      <point x="1091.0" y="162.0" type="line" smooth="yes"/>
      <point x="1091.0" y="192.0"/>
      <point x="1090.0" y="210.0"/>
      <point x="1107.0" y="210.0" type="curve" smooth="yes"/>
      <point x="1114.0" y="210.0" type="line" smooth="yes"/>
      <point x="1123.0" y="210.0"/>
      <point x="1130.0" y="218.0"/>
      <point x="1130.0" y="248.0" type="curve" smooth="yes"/>
      <point x="1130.0" y="706.0" type="line" smooth="yes"/>
      <point x="1130.0" y="784.0"/>
      <point x="1107.0" y="816.0"/>
      <point x="1075.0" y="816.0" type="curve" smooth="yes"/>
      <point x="1049.0" y="816.0"/>
      <point x="1030.0" y="802.0"/>
      <point x="1030.0" y="646.0" type="curve" smooth="yes"/>
      <point x="1030.0" y="252.0" type="line" smooth="yes"/>
      <point x="1030.0" y="230.0"/>
      <point x="1031.0" y="210.0"/>
      <point x="1044.0" y="210.0" type="curve" smooth="yes"/>
      <point x="1048.0" y="210.0" type="line" smooth="yes"/>
      <point x="1063.0" y="210.0"/>
      <point x="1071.0" y="208.0"/>
      <point x="1071.0" y="184.0" type="curve" smooth="yes"/>
      <point x="1071.0" y="46.0" type="line" smooth="yes"/>
      <point x="1071.0" y="5.0"/>
      <point x="1062.0" y="0.0"/>
      <point x="1019.0" y="0.0" type="curve" smooth="yes"/>
      <point x="610.0" y="0.0" type="line" smooth="yes"/>
      <point x="574.0" y="0.0"/>
      <point x="571.0" y="7.0"/>
      <point x="571.0" y="44.0" type="curve" smooth="yes"/>
      <point x="571.0" y="176.0" type="line" smooth="yes"/>
      <point x="571.0" y="204.0"/>
      <point x="574.0" y="210.0"/>
      <point x="591.0" y="210.0" type="curve" smooth="yes"/>
      <point x="594.0" y="210.0" type="line" smooth="yes"/>
      <point x="609.0" y="210.0"/>
      <point x="610.0" y="222.0"/>
      <point x="610.0" y="250.0" type="curve" smooth="yes"/>
      <point x="610.0" y="706.0" type="line" smooth="yes"/>
      <point x="610.0" y="784.0"/>
      <point x="588.0" y="816.0"/>
      <point x="556.0" y="816.0" type="curve" smooth="yes"/>
      <point x="530.0" y="816.0"/>
      <point x="510.0" y="802.0"/>
      <point x="510.0" y="646.0" type="curve" smooth="yes"/>
      <point x="510.0" y="254.0" type="line" smooth="yes"/>
      <point x="510.0" y="220.0"/>
      <point x="511.0" y="210.0"/>
      <point x="525.0" y="210.0" type="curve" smooth="yes"/>
      <point x="531.0" y="210.0" type="line" smooth="yes"/>
      <point x="549.0" y="210.0"/>
      <point x="551.0" y="202.0"/>
      <point x="551.0" y="176.0" type="curve" smooth="yes"/>
      <point x="551.0" y="40.0" type="line" smooth="yes"/>
      <point x="551.0" y="9.0"/>
      <point x="547.0" y="0.0"/>
      <point x="514.0" y="0.0" type="curve" smooth="yes"/>
      <point x="59.0" y="0.0" type="line" smooth="yes"/>
      <point x="25.0" y="0.0"/>
      <point x="10.0" y="1.0"/>
    </contour>
  </outline>
</glyph>
